<svg width="456" height="105" viewBox="0 0 456 105" fill="none" xmlns="http://www.w3.org/2000/svg">
<path d="M129.556 98.19L139.586 72.01H135.574L125.578 98.19H129.556ZM156.787 97.408C161.717 97.408 166.647 95.81 166.647 90.064C166.647 84.964 162.635 83.672 157.637 82.856C154.339 82.312 151.687 81.632 151.687 79.456C151.687 77.212 153.829 76.192 156.243 76.192C159.473 76.192 161.411 77.824 161.547 81.122L165.865 80.374C165.321 74.764 161.343 72.792 156.277 72.792C151.993 72.792 147.369 74.594 147.369 79.66C147.369 84.216 151.211 85.78 155.529 86.732C159.099 87.514 162.295 87.412 162.295 90.234C162.295 93.022 159.847 93.974 156.821 93.974C153.523 93.974 151.109 92.206 151.109 88.704L146.723 89.18C146.791 94.824 151.449 97.408 156.787 97.408ZM175.639 97.17C176.387 97.17 177.237 97.102 177.883 96.966L177.815 93.464C177.237 93.566 176.659 93.634 176.251 93.634C175.027 93.634 174.483 93.396 174.483 92.376V83.23H177.951V80H174.483V75.274H170.505V80H168.057V83.23H170.505V92.716C170.505 95.912 172.409 97.17 175.639 97.17ZM191.718 89.384C191.718 93.43 189.644 94.246 188.046 94.246C187.06 94.246 186.176 94.178 185.36 93.362C184.544 92.512 184.51 91.322 184.51 89.758V80H180.396V89.962C180.396 92.036 180.532 94.144 181.858 95.538C183.082 96.83 184.578 97.408 186.754 97.408C189.1 97.408 190.834 96.388 191.752 94.518V97H195.696V80H191.718V89.384ZM211.247 82.108C210.125 80.442 208.357 79.592 206.147 79.592C201.591 79.592 198.531 83.128 198.531 88.5C198.531 94.042 201.761 97.408 206.215 97.408C208.459 97.408 210.261 96.456 211.247 94.586V97H215.259V73.2H211.247V82.108ZM209.955 93.362C209.275 94.076 208.357 94.45 207.133 94.45C203.835 94.45 202.917 92.41 202.917 88.5C202.917 86.392 203.223 84.828 204.039 83.842C204.685 83.026 205.705 82.584 207.201 82.584C210.431 82.584 211.349 85.134 211.349 88.534C211.349 90.71 210.907 92.342 209.955 93.362ZM223.077 77.348V72.996H219.031V77.348H223.077ZM223.077 97V80H219.031V97H223.077ZM234.578 97.408C239.814 97.408 243.214 93.838 243.214 88.5C243.214 83.366 239.916 79.592 234.578 79.592C229.172 79.592 225.874 83.332 225.874 88.5C225.874 94.042 229.138 97.408 234.578 97.408ZM234.578 94.45C233.15 94.45 232.13 94.076 231.45 93.294C230.566 92.342 230.192 90.744 230.192 88.5C230.192 86.256 230.566 84.658 231.45 83.706C232.13 82.924 233.184 82.55 234.578 82.55C236.006 82.55 237.026 82.958 237.706 83.774C238.522 84.76 238.896 86.324 238.896 88.5C238.896 90.676 238.556 92.24 237.74 93.226C237.06 94.042 236.006 94.45 234.578 94.45ZM254.428 98.19L264.458 72.01H260.446L250.45 98.19H254.428ZM283.188 87.752H290.192C289.92 91.832 287.54 93.974 283.732 93.974C280.978 93.974 279.074 93.226 277.918 91.56C276.864 90.098 276.388 88.024 276.388 85.1C276.388 82.21 276.966 80.068 277.986 78.64C279.176 76.974 281.114 76.226 283.596 76.226C287.098 76.226 288.934 78.436 289.648 81.19L294.068 80.34C292.776 75.41 288.832 72.792 283.596 72.792C276.082 72.792 271.866 77.858 271.866 85.1C271.866 93.022 276.048 97.408 283.12 97.408C286.35 97.408 289.036 96.116 290.498 93.838L290.77 97H294.34V84.114H283.188V87.752ZM306.751 79.626C303.997 79.83 302.297 81.292 301.753 83.06V80H297.741V97H301.787V89.214C301.787 84.522 303.793 83.23 306.989 83.23C307.295 83.23 307.601 83.23 307.839 83.264L307.941 79.592C307.669 79.592 307.023 79.592 306.751 79.626ZM323.26 82.414C321.832 80.612 319.554 79.592 316.868 79.592C314.284 79.592 312.244 80.408 310.748 81.972C309.218 83.604 308.47 85.848 308.47 88.466C308.47 91.22 309.184 93.464 310.748 95.062C312.21 96.558 314.25 97.408 316.902 97.408C321.254 97.408 324.042 95.47 324.926 91.56L321.016 91.254C320.642 93.328 319.35 94.382 316.868 94.382C314.046 94.382 312.618 92.784 312.55 89.622H325.198C325.3 86.698 324.62 84.114 323.26 82.414ZM316.868 82.618C318.364 82.618 319.384 83.026 320.132 83.944C320.71 84.658 321.016 85.644 321.084 86.596H312.584C312.652 85.78 312.89 84.862 313.434 84.114C314.114 83.162 315.27 82.618 316.868 82.618ZM341.845 82.414C340.417 80.612 338.139 79.592 335.453 79.592C332.869 79.592 330.829 80.408 329.333 81.972C327.803 83.604 327.055 85.848 327.055 88.466C327.055 91.22 327.769 93.464 329.333 95.062C330.795 96.558 332.835 97.408 335.487 97.408C339.839 97.408 342.627 95.47 343.511 91.56L339.601 91.254C339.227 93.328 337.935 94.382 335.453 94.382C332.631 94.382 331.203 92.784 331.135 89.622H343.783C343.885 86.698 343.205 84.114 341.845 82.414ZM335.453 82.618C336.949 82.618 337.969 83.026 338.717 83.944C339.295 84.658 339.601 85.644 339.669 86.596H331.169C331.237 85.78 331.475 84.862 332.019 84.114C332.699 83.162 333.855 82.618 335.453 82.618ZM360.465 81.326C359.309 80.136 357.915 79.592 355.705 79.592C353.257 79.592 351.421 80.51 350.571 82.584V80H346.559V97H350.605V87.684C350.605 83.57 352.815 82.754 354.311 82.754C355.297 82.754 356.113 82.822 356.861 83.57C357.745 84.386 357.813 85.474 357.813 87.038V97H361.893V86.732C361.893 84.692 361.791 82.686 360.465 81.326ZM379.45 81.394C378.26 80.102 376.798 79.592 374.588 79.592C372.31 79.592 370.44 80.544 369.522 82.516V73.2H365.51V97H369.556V87.548C369.556 83.502 371.8 82.754 373.262 82.754C374.248 82.754 375.064 82.822 375.846 83.604C376.696 84.42 376.764 85.372 376.764 86.936V97H380.844V86.732C380.844 84.624 380.742 82.788 379.45 81.394ZM392.213 97.408C397.449 97.408 400.849 93.838 400.849 88.5C400.849 83.366 397.551 79.592 392.213 79.592C386.807 79.592 383.509 83.332 383.509 88.5C383.509 94.042 386.773 97.408 392.213 97.408ZM392.213 94.45C390.785 94.45 389.765 94.076 389.085 93.294C388.201 92.342 387.827 90.744 387.827 88.5C387.827 86.256 388.201 84.658 389.085 83.706C389.765 82.924 390.819 82.55 392.213 82.55C393.641 82.55 394.661 82.958 395.341 83.774C396.157 84.76 396.531 86.324 396.531 88.5C396.531 90.676 396.191 92.24 395.375 93.226C394.695 94.042 393.641 94.45 392.213 94.45ZM414.831 89.384C414.831 93.43 412.757 94.246 411.159 94.246C410.173 94.246 409.289 94.178 408.473 93.362C407.657 92.512 407.623 91.322 407.623 89.758V80H403.509V89.962C403.509 92.036 403.645 94.144 404.971 95.538C406.195 96.83 407.691 97.408 409.867 97.408C412.213 97.408 413.947 96.388 414.865 94.518V97H418.809V80H414.831V89.384ZM428.988 97.408C432.728 97.408 436.298 96.15 436.298 92.036C436.298 88.024 432.66 87.31 429.464 86.596C427.288 86.12 425.724 85.712 425.724 84.386C425.724 83.06 427.118 82.482 428.614 82.482C430.756 82.482 432.048 83.502 432.15 85.61L435.856 84.998C435.482 80.952 432.32 79.592 428.614 79.592C425.214 79.592 421.916 81.054 421.916 84.692C421.916 88.126 424.806 89.078 427.832 89.86C430.382 90.506 432.49 90.778 432.49 92.274C432.49 93.702 431.3 94.518 429.022 94.518C426.778 94.518 425.248 93.362 425.214 91.152L421.44 91.594C421.576 95.674 425.01 97.408 428.988 97.408ZM452.962 82.414C451.534 80.612 449.256 79.592 446.57 79.592C443.986 79.592 441.946 80.408 440.45 81.972C438.92 83.604 438.172 85.848 438.172 88.466C438.172 91.22 438.886 93.464 440.45 95.062C441.912 96.558 443.952 97.408 446.604 97.408C450.956 97.408 453.744 95.47 454.628 91.56L450.718 91.254C450.344 93.328 449.052 94.382 446.57 94.382C443.748 94.382 442.32 92.784 442.252 89.622H454.9C455.002 86.698 454.322 84.114 452.962 82.414ZM446.57 82.618C448.066 82.618 449.086 83.026 449.834 83.944C450.412 84.658 450.718 85.644 450.786 86.596H442.286C442.354 85.78 442.592 84.862 443.136 84.114C443.816 83.162 444.972 82.618 446.57 82.618Z" fill="#282828"/>
<path d="M132.596 62V50.408C132.596 49.688 132.524 46.196 132.38 43.424H132.452C133.244 45.656 134.72 48.356 135.584 49.976L141.848 62H148.112V36.8H143V48.284C143 49.76 143.072 53.144 143.216 55.556H143.144C142.28 53.252 140.732 50.408 139.724 48.428L133.748 36.8H127.484V62H132.596ZM167.878 49.508C167.878 45.584 164.998 43.568 160.318 43.568C157.618 43.568 155.602 44.036 154.198 45.008C152.722 46.016 151.93 47.672 151.93 50.012L156.862 50.372C156.862 47.852 157.978 47.132 159.958 47.132C161.398 47.132 162.082 47.384 162.55 48.032C163.018 48.68 162.982 49.544 162.982 50.372L158.086 51.272C154.486 51.92 151.282 53.036 151.282 56.888C151.282 60.596 154.126 62.432 157.654 62.432C160.534 62.432 162.406 61.136 163.27 59.588C163.306 60.452 163.414 61.352 163.594 62H168.598V61.856C168.202 61.1 167.878 60.128 167.878 58.76V49.508ZM162.982 55.016C162.982 57.752 161.254 58.868 158.878 58.868C157.51 58.868 156.466 58.256 156.466 56.852C156.466 55.484 157.402 54.908 158.914 54.584L162.982 53.684V55.016ZM178.496 62.18C179.432 62.18 180.404 62.108 181.16 61.928L181.088 57.644C180.512 57.752 179.9 57.824 179.432 57.824C178.208 57.824 177.56 57.536 177.56 56.528V47.96H181.232V44H177.56V38.996H172.592V44H170V47.96H172.592V57.104C172.592 60.848 175.04 62.18 178.496 62.18ZM195.571 53.792C195.571 57.392 193.987 58.616 192.259 58.616C191.251 58.616 190.459 58.508 189.775 57.752C189.055 56.924 188.983 55.808 188.983 54.152V44H183.835V54.404C183.835 56.816 184.051 58.976 185.455 60.452C186.751 61.82 188.299 62.432 190.567 62.432C192.943 62.432 194.707 61.388 195.643 59.48V62H200.539V44H195.571V53.792ZM214.265 43.604C211.349 43.82 209.801 45.332 209.189 47.348V44H204.221V62H209.261V53.972C209.261 49.616 211.133 48.032 214.517 48.032C214.841 48.032 215.165 48.068 215.453 48.104L215.561 43.568C215.237 43.568 214.553 43.568 214.265 43.604ZM231.804 46.088C230.292 44.468 228.06 43.568 225.216 43.568C222.408 43.568 220.248 44.396 218.664 45.944C216.9 47.636 216.108 50.084 216.108 52.964C216.108 55.988 216.972 58.364 218.7 60.056C220.212 61.532 222.444 62.432 225.252 62.432C229.896 62.432 232.92 60.416 233.964 56.384L229.068 55.952C228.708 57.824 227.556 58.868 225.252 58.868C222.552 58.868 221.112 57.32 221.076 54.296H234.252C234.324 50.768 233.532 47.96 231.804 46.088ZM225.216 47.06C226.512 47.06 227.412 47.384 228.096 48.104C228.744 48.788 229.032 49.724 229.14 50.84H221.112C221.22 49.868 221.508 49.04 222.012 48.392C222.696 47.492 223.74 47.06 225.216 47.06ZM242.117 62V56.312H236.681V62H242.117ZM254.146 62V41.372H262.174V36.8H240.682V41.372H248.71V62H254.146ZM274.845 46.088C273.333 44.468 271.101 43.568 268.257 43.568C265.449 43.568 263.289 44.396 261.705 45.944C259.941 47.636 259.149 50.084 259.149 52.964C259.149 55.988 260.013 58.364 261.741 60.056C263.253 61.532 265.485 62.432 268.293 62.432C272.937 62.432 275.961 60.416 277.005 56.384L272.109 55.952C271.749 57.824 270.597 58.868 268.293 58.868C265.593 58.868 264.153 57.32 264.117 54.296H277.293C277.365 50.768 276.573 47.96 274.845 46.088ZM268.257 47.06C269.553 47.06 270.453 47.384 271.137 48.104C271.785 48.788 272.073 49.724 272.181 50.84H264.153C264.261 49.868 264.549 49.04 265.053 48.392C265.737 47.492 266.781 47.06 268.257 47.06ZM288.326 62.432C293.078 62.432 296.102 59.768 296.678 56.096L291.782 55.592C291.314 57.536 290.234 58.688 288.326 58.688C285.374 58.688 284.546 56.78 284.546 53C284.546 50.984 284.798 49.436 285.518 48.5C286.094 47.708 286.994 47.312 288.326 47.312C290.666 47.312 291.422 48.968 291.782 50.912L296.57 50.084C295.85 46.268 293.294 43.568 288.326 43.568C282.422 43.568 279.074 47.456 279.074 53C279.074 58.904 282.422 62.432 288.326 62.432ZM314.249 45.368C313.025 44.036 311.585 43.568 309.245 43.568C306.905 43.568 304.961 44.576 304.025 46.628V36.8H299.021V62H304.061V52.064C304.061 48.536 305.933 47.42 307.409 47.42C308.489 47.42 309.137 47.528 309.821 48.212C310.541 48.932 310.721 49.616 310.721 51.308V62H315.761V51.056C315.761 48.572 315.617 46.844 314.249 45.368Z" fill="#282828"/>
<rect x="1" y="1" width="98" height="98" stroke="#282828" stroke-width="2"/>
<path d="M50 0L50 100" stroke="#282828" stroke-width="2"/>
<path d="M1 1L99 99" stroke="#282828" stroke-width="2"/>
<path d="M9 1L50 42" stroke="#282828" stroke-width="2"/>
<path d="M91 99L50 58" stroke="#282828" stroke-width="2"/>
<path d="M17 1L50 34" stroke="#282828" stroke-width="2"/>
<path d="M83 99L50 66" stroke="#282828" stroke-width="2"/>
<path d="M25 1L50 26" stroke="#282828" stroke-width="2"/>
<path d="M75 99L50 74" stroke="#282828" stroke-width="2"/>
<path d="M33 1L50 18" stroke="#282828" stroke-width="2"/>
<path d="M67 99L50 82" stroke="#282828" stroke-width="2"/>
<path d="M41 1L50 10" stroke="#282828" stroke-width="2"/>
<path d="M59 99L50 90" stroke="#282828" stroke-width="2"/>
</svg>
