<svg width="673" height="100" viewBox="0 0 673 100" fill="none" xmlns="http://www.w3.org/2000/svg">
<path d="M330.556 62.835L340.586 36.655H336.574L326.578 62.835H330.556ZM357.787 62.053C362.717 62.053 367.647 60.455 367.647 54.709C367.647 49.609 363.635 48.317 358.637 47.501C355.339 46.957 352.687 46.277 352.687 44.101C352.687 41.857 354.829 40.837 357.243 40.837C360.473 40.837 362.411 42.469 362.547 45.767L366.865 45.019C366.321 39.409 362.343 37.437 357.277 37.437C352.993 37.437 348.369 39.239 348.369 44.305C348.369 48.861 352.211 50.425 356.529 51.377C360.099 52.159 363.295 52.057 363.295 54.879C363.295 57.667 360.847 58.619 357.821 58.619C354.523 58.619 352.109 56.851 352.109 53.349L347.723 53.825C347.791 59.469 352.449 62.053 357.787 62.053ZM376.639 61.815C377.387 61.815 378.237 61.747 378.883 61.611L378.815 58.109C378.237 58.211 377.659 58.279 377.251 58.279C376.027 58.279 375.483 58.041 375.483 57.021V47.875H378.951V44.645H375.483V39.919H371.505V44.645H369.057V47.875H371.505V57.361C371.505 60.557 373.409 61.815 376.639 61.815ZM392.718 54.029C392.718 58.075 390.644 58.891 389.046 58.891C388.06 58.891 387.176 58.823 386.36 58.007C385.544 57.157 385.51 55.967 385.51 54.403V44.645H381.396V54.607C381.396 56.681 381.532 58.789 382.858 60.183C384.082 61.475 385.578 62.053 387.754 62.053C390.1 62.053 391.834 61.033 392.752 59.163V61.645H396.696V44.645H392.718V54.029ZM412.247 46.753C411.125 45.087 409.357 44.237 407.147 44.237C402.591 44.237 399.531 47.773 399.531 53.145C399.531 58.687 402.761 62.053 407.215 62.053C409.459 62.053 411.261 61.101 412.247 59.231V61.645H416.259V37.845H412.247V46.753ZM410.955 58.007C410.275 58.721 409.357 59.095 408.133 59.095C404.835 59.095 403.917 57.055 403.917 53.145C403.917 51.037 404.223 49.473 405.039 48.487C405.685 47.671 406.705 47.229 408.201 47.229C411.431 47.229 412.349 49.779 412.349 53.179C412.349 55.355 411.907 56.987 410.955 58.007ZM424.077 41.993V37.641H420.031V41.993H424.077ZM424.077 61.645V44.645H420.031V61.645H424.077ZM435.578 62.053C440.814 62.053 444.214 58.483 444.214 53.145C444.214 48.011 440.916 44.237 435.578 44.237C430.172 44.237 426.874 47.977 426.874 53.145C426.874 58.687 430.138 62.053 435.578 62.053ZM435.578 59.095C434.15 59.095 433.13 58.721 432.45 57.939C431.566 56.987 431.192 55.389 431.192 53.145C431.192 50.901 431.566 49.303 432.45 48.351C433.13 47.569 434.184 47.195 435.578 47.195C437.006 47.195 438.026 47.603 438.706 48.419C439.522 49.405 439.896 50.969 439.896 53.145C439.896 55.321 439.556 56.885 438.74 57.871C438.06 58.687 437.006 59.095 435.578 59.095ZM453.435 62.053C457.175 62.053 460.745 60.795 460.745 56.681C460.745 52.669 457.107 51.955 453.911 51.241C451.735 50.765 450.171 50.357 450.171 49.031C450.171 47.705 451.565 47.127 453.061 47.127C455.203 47.127 456.495 48.147 456.597 50.255L460.303 49.643C459.929 45.597 456.767 44.237 453.061 44.237C449.661 44.237 446.363 45.699 446.363 49.337C446.363 52.771 449.253 53.723 452.279 54.505C454.829 55.151 456.937 55.423 456.937 56.919C456.937 58.347 455.747 59.163 453.469 59.163C451.225 59.163 449.695 58.007 449.661 55.797L445.887 56.239C446.023 60.319 449.457 62.053 453.435 62.053ZM471.955 62.835L481.985 36.655H477.973L467.977 62.835H471.955ZM500.716 52.397H507.72C507.448 56.477 505.068 58.619 501.26 58.619C498.506 58.619 496.602 57.871 495.446 56.205C494.392 54.743 493.916 52.669 493.916 49.745C493.916 46.855 494.494 44.713 495.514 43.285C496.704 41.619 498.642 40.871 501.124 40.871C504.626 40.871 506.462 43.081 507.176 45.835L511.596 44.985C510.304 40.055 506.36 37.437 501.124 37.437C493.61 37.437 489.394 42.503 489.394 49.745C489.394 57.667 493.576 62.053 500.648 62.053C503.878 62.053 506.564 60.761 508.026 58.483L508.298 61.645H511.868V48.759H500.716V52.397ZM524.278 44.271C521.524 44.475 519.824 45.937 519.28 47.705V44.645H515.268V61.645H519.314V53.859C519.314 49.167 521.32 47.875 524.516 47.875C524.822 47.875 525.128 47.875 525.366 47.909L525.468 44.237C525.196 44.237 524.55 44.237 524.278 44.271ZM540.787 47.059C539.359 45.257 537.081 44.237 534.395 44.237C531.811 44.237 529.771 45.053 528.275 46.617C526.745 48.249 525.997 50.493 525.997 53.111C525.997 55.865 526.711 58.109 528.275 59.707C529.737 61.203 531.777 62.053 534.429 62.053C538.781 62.053 541.569 60.115 542.453 56.205L538.543 55.899C538.169 57.973 536.877 59.027 534.395 59.027C531.573 59.027 530.145 57.429 530.077 54.267H542.725C542.827 51.343 542.147 48.759 540.787 47.059ZM534.395 47.263C535.891 47.263 536.911 47.671 537.659 48.589C538.237 49.303 538.543 50.289 538.611 51.241H530.111C530.179 50.425 530.417 49.507 530.961 48.759C531.641 47.807 532.797 47.263 534.395 47.263ZM559.373 47.059C557.945 45.257 555.667 44.237 552.981 44.237C550.397 44.237 548.357 45.053 546.861 46.617C545.331 48.249 544.583 50.493 544.583 53.111C544.583 55.865 545.297 58.109 546.861 59.707C548.323 61.203 550.363 62.053 553.015 62.053C557.367 62.053 560.155 60.115 561.039 56.205L557.129 55.899C556.755 57.973 555.463 59.027 552.981 59.027C550.159 59.027 548.731 57.429 548.663 54.267H561.311C561.413 51.343 560.733 48.759 559.373 47.059ZM552.981 47.263C554.477 47.263 555.497 47.671 556.245 48.589C556.823 49.303 557.129 50.289 557.197 51.241H548.697C548.765 50.425 549.003 49.507 549.547 48.759C550.227 47.807 551.383 47.263 552.981 47.263ZM577.992 45.971C576.836 44.781 575.442 44.237 573.232 44.237C570.784 44.237 568.948 45.155 568.098 47.229V44.645H564.086V61.645H568.132V52.329C568.132 48.215 570.342 47.399 571.838 47.399C572.824 47.399 573.64 47.467 574.388 48.215C575.272 49.031 575.34 50.119 575.34 51.683V61.645H579.42V51.377C579.42 49.337 579.318 47.331 577.992 45.971ZM596.977 46.039C595.787 44.747 594.325 44.237 592.115 44.237C589.837 44.237 587.967 45.189 587.049 47.161V37.845H583.037V61.645H587.083V52.193C587.083 48.147 589.327 47.399 590.789 47.399C591.775 47.399 592.591 47.467 593.373 48.249C594.223 49.065 594.291 50.017 594.291 51.581V61.645H598.371V51.377C598.371 49.269 598.269 47.433 596.977 46.039ZM609.74 62.053C614.976 62.053 618.376 58.483 618.376 53.145C618.376 48.011 615.078 44.237 609.74 44.237C604.334 44.237 601.036 47.977 601.036 53.145C601.036 58.687 604.3 62.053 609.74 62.053ZM609.74 59.095C608.312 59.095 607.292 58.721 606.612 57.939C605.728 56.987 605.354 55.389 605.354 53.145C605.354 50.901 605.728 49.303 606.612 48.351C607.292 47.569 608.346 47.195 609.74 47.195C611.168 47.195 612.188 47.603 612.868 48.419C613.684 49.405 614.058 50.969 614.058 53.145C614.058 55.321 613.718 56.885 612.902 57.871C612.222 58.687 611.168 59.095 609.74 59.095ZM632.358 54.029C632.358 58.075 630.284 58.891 628.686 58.891C627.7 58.891 626.816 58.823 626 58.007C625.184 57.157 625.15 55.967 625.15 54.403V44.645H621.036V54.607C621.036 56.681 621.172 58.789 622.498 60.183C623.722 61.475 625.218 62.053 627.394 62.053C629.74 62.053 631.474 61.033 632.392 59.163V61.645H636.336V44.645H632.358V54.029ZM646.516 62.053C650.256 62.053 653.826 60.795 653.826 56.681C653.826 52.669 650.188 51.955 646.992 51.241C644.816 50.765 643.252 50.357 643.252 49.031C643.252 47.705 644.646 47.127 646.142 47.127C648.284 47.127 649.576 48.147 649.678 50.255L653.384 49.643C653.01 45.597 649.848 44.237 646.142 44.237C642.742 44.237 639.444 45.699 639.444 49.337C639.444 52.771 642.334 53.723 645.36 54.505C647.91 55.151 650.018 55.423 650.018 56.919C650.018 58.347 648.828 59.163 646.55 59.163C644.306 59.163 642.776 58.007 642.742 55.797L638.968 56.239C639.104 60.319 642.538 62.053 646.516 62.053ZM670.489 47.059C669.061 45.257 666.783 44.237 664.097 44.237C661.513 44.237 659.473 45.053 657.977 46.617C656.447 48.249 655.699 50.493 655.699 53.111C655.699 55.865 656.413 58.109 657.977 59.707C659.439 61.203 661.479 62.053 664.131 62.053C668.483 62.053 671.271 60.115 672.155 56.205L668.245 55.899C667.871 57.973 666.579 59.027 664.097 59.027C661.275 59.027 659.847 57.429 659.779 54.267H672.427C672.529 51.343 671.849 48.759 670.489 47.059ZM664.097 47.263C665.593 47.263 666.613 47.671 667.361 48.589C667.939 49.303 668.245 50.289 668.313 51.241H659.813C659.881 50.425 660.119 49.507 660.663 48.759C661.343 47.807 662.499 47.263 664.097 47.263Z" fill="#282828"/>
<path d="M132.596 62V50.408C132.596 49.688 132.524 46.196 132.38 43.424H132.452C133.244 45.656 134.72 48.356 135.584 49.976L141.848 62H148.112V36.8H143V48.284C143 49.76 143.072 53.144 143.216 55.556H143.144C142.28 53.252 140.732 50.408 139.724 48.428L133.748 36.8H127.484V62H132.596ZM167.878 49.508C167.878 45.584 164.998 43.568 160.318 43.568C157.618 43.568 155.602 44.036 154.198 45.008C152.722 46.016 151.93 47.672 151.93 50.012L156.862 50.372C156.862 47.852 157.978 47.132 159.958 47.132C161.398 47.132 162.082 47.384 162.55 48.032C163.018 48.68 162.982 49.544 162.982 50.372L158.086 51.272C154.486 51.92 151.282 53.036 151.282 56.888C151.282 60.596 154.126 62.432 157.654 62.432C160.534 62.432 162.406 61.136 163.27 59.588C163.306 60.452 163.414 61.352 163.594 62H168.598V61.856C168.202 61.1 167.878 60.128 167.878 58.76V49.508ZM162.982 55.016C162.982 57.752 161.254 58.868 158.878 58.868C157.51 58.868 156.466 58.256 156.466 56.852C156.466 55.484 157.402 54.908 158.914 54.584L162.982 53.684V55.016ZM178.496 62.18C179.432 62.18 180.404 62.108 181.16 61.928L181.088 57.644C180.512 57.752 179.9 57.824 179.432 57.824C178.208 57.824 177.56 57.536 177.56 56.528V47.96H181.232V44H177.56V38.996H172.592V44H170V47.96H172.592V57.104C172.592 60.848 175.04 62.18 178.496 62.18ZM195.571 53.792C195.571 57.392 193.987 58.616 192.259 58.616C191.251 58.616 190.459 58.508 189.775 57.752C189.055 56.924 188.983 55.808 188.983 54.152V44H183.835V54.404C183.835 56.816 184.051 58.976 185.455 60.452C186.751 61.82 188.299 62.432 190.567 62.432C192.943 62.432 194.707 61.388 195.643 59.48V62H200.539V44H195.571V53.792ZM214.265 43.604C211.349 43.82 209.801 45.332 209.189 47.348V44H204.221V62H209.261V53.972C209.261 49.616 211.133 48.032 214.517 48.032C214.841 48.032 215.165 48.068 215.453 48.104L215.561 43.568C215.237 43.568 214.553 43.568 214.265 43.604ZM231.804 46.088C230.292 44.468 228.06 43.568 225.216 43.568C222.408 43.568 220.248 44.396 218.664 45.944C216.9 47.636 216.108 50.084 216.108 52.964C216.108 55.988 216.972 58.364 218.7 60.056C220.212 61.532 222.444 62.432 225.252 62.432C229.896 62.432 232.92 60.416 233.964 56.384L229.068 55.952C228.708 57.824 227.556 58.868 225.252 58.868C222.552 58.868 221.112 57.32 221.076 54.296H234.252C234.324 50.768 233.532 47.96 231.804 46.088ZM225.216 47.06C226.512 47.06 227.412 47.384 228.096 48.104C228.744 48.788 229.032 49.724 229.14 50.84H221.112C221.22 49.868 221.508 49.04 222.012 48.392C222.696 47.492 223.74 47.06 225.216 47.06ZM242.117 62V56.312H236.681V62H242.117ZM254.146 62V41.372H262.174V36.8H240.682V41.372H248.71V62H254.146ZM274.845 46.088C273.333 44.468 271.101 43.568 268.257 43.568C265.449 43.568 263.289 44.396 261.705 45.944C259.941 47.636 259.149 50.084 259.149 52.964C259.149 55.988 260.013 58.364 261.741 60.056C263.253 61.532 265.485 62.432 268.293 62.432C272.937 62.432 275.961 60.416 277.005 56.384L272.109 55.952C271.749 57.824 270.597 58.868 268.293 58.868C265.593 58.868 264.153 57.32 264.117 54.296H277.293C277.365 50.768 276.573 47.96 274.845 46.088ZM268.257 47.06C269.553 47.06 270.453 47.384 271.137 48.104C271.785 48.788 272.073 49.724 272.181 50.84H264.153C264.261 49.868 264.549 49.04 265.053 48.392C265.737 47.492 266.781 47.06 268.257 47.06ZM288.326 62.432C293.078 62.432 296.102 59.768 296.678 56.096L291.782 55.592C291.314 57.536 290.234 58.688 288.326 58.688C285.374 58.688 284.546 56.78 284.546 53C284.546 50.984 284.798 49.436 285.518 48.5C286.094 47.708 286.994 47.312 288.326 47.312C290.666 47.312 291.422 48.968 291.782 50.912L296.57 50.084C295.85 46.268 293.294 43.568 288.326 43.568C282.422 43.568 279.074 47.456 279.074 53C279.074 58.904 282.422 62.432 288.326 62.432ZM314.249 45.368C313.025 44.036 311.585 43.568 309.245 43.568C306.905 43.568 304.961 44.576 304.025 46.628V36.8H299.021V62H304.061V52.064C304.061 48.536 305.933 47.42 307.409 47.42C308.489 47.42 309.137 47.528 309.821 48.212C310.541 48.932 310.721 49.616 310.721 51.308V62H315.761V51.056C315.761 48.572 315.617 46.844 314.249 45.368Z" fill="#282828"/>
<rect x="1" y="1" width="98" height="98" stroke="#282828" stroke-width="2"/>
<path d="M50 0L50 100" stroke="#282828" stroke-width="2"/>
<path d="M1 1L99 99" stroke="#282828" stroke-width="2"/>
<path d="M9 1L50 42" stroke="#282828" stroke-width="2"/>
<path d="M91 99L50 58" stroke="#282828" stroke-width="2"/>
<path d="M17 1L50 34" stroke="#282828" stroke-width="2"/>
<path d="M83 99L50 66" stroke="#282828" stroke-width="2"/>
<path d="M25 1L50 26" stroke="#282828" stroke-width="2"/>
<path d="M75 99L50 74" stroke="#282828" stroke-width="2"/>
<path d="M33 1L50 18" stroke="#282828" stroke-width="2"/>
<path d="M67 99L50 82" stroke="#282828" stroke-width="2"/>
<path d="M41 1L50 10" stroke="#282828" stroke-width="2"/>
<path d="M59 99L50 90" stroke="#282828" stroke-width="2"/>
</svg>
