<svg width="100" height="151" viewBox="0 0 100 151" fill="none" xmlns="http://www.w3.org/2000/svg">
<rect x="1" y="1" width="98" height="98" stroke="white" stroke-width="2"/>
<path d="M50 0L50 100" stroke="white" stroke-width="2"/>
<path d="M1 1L99 99" stroke="white" stroke-width="2"/>
<path d="M9 1L50 42" stroke="white" stroke-width="2"/>
<path d="M91 99L50 58" stroke="white" stroke-width="2"/>
<path d="M17 1L50 34" stroke="white" stroke-width="2"/>
<path d="M83 99L50 66" stroke="white" stroke-width="2"/>
<path d="M25 1L50 26" stroke="white" stroke-width="2"/>
<path d="M75 99L50 74" stroke="white" stroke-width="2"/>
<path d="M33 1L50 18" stroke="white" stroke-width="2"/>
<path d="M67 99L50 82" stroke="white" stroke-width="2"/>
<path d="M41 1L50 10" stroke="white" stroke-width="2"/>
<path d="M59 99L50 90" stroke="white" stroke-width="2"/>
<path d="M6.13745 125V119.204C6.13745 118.844 6.10145 117.098 6.02945 115.712H6.06545C6.46145 116.828 7.19945 118.178 7.63145 118.988L10.7635 125H13.8955V112.4H11.3395V118.142C11.3395 118.88 11.3755 120.572 11.4475 121.778H11.4115C10.9795 120.626 10.2055 119.204 9.70145 118.214L6.71345 112.4H3.58145V125H6.13745ZM23.7784 118.754C23.7784 116.792 22.3384 115.784 19.9984 115.784C18.6484 115.784 17.6404 116.018 16.9384 116.504C16.2004 117.008 15.8044 117.836 15.8044 119.006L18.2704 119.186C18.2704 117.926 18.8284 117.566 19.8184 117.566C20.5384 117.566 20.8804 117.692 21.1144 118.016C21.3484 118.34 21.3304 118.772 21.3304 119.186L18.8824 119.636C17.0824 119.96 15.4804 120.518 15.4804 122.444C15.4804 124.298 16.9024 125.216 18.6664 125.216C20.1064 125.216 21.0424 124.568 21.4744 123.794C21.4924 124.226 21.5464 124.676 21.6364 125H24.1384V124.928C23.9404 124.55 23.7784 124.064 23.7784 123.38V118.754ZM21.3304 121.508C21.3304 122.876 20.4664 123.434 19.2784 123.434C18.5944 123.434 18.0724 123.128 18.0724 122.426C18.0724 121.742 18.5404 121.454 19.2964 121.292L21.3304 120.842V121.508ZM29.0875 125.09C29.5555 125.09 30.0415 125.054 30.4195 124.964L30.3835 122.822C30.0955 122.876 29.7895 122.912 29.5555 122.912C28.9435 122.912 28.6195 122.768 28.6195 122.264V117.98H30.4555V116H28.6195V113.498H26.1355V116H24.8395V117.98H26.1355V122.552C26.1355 124.424 27.3595 125.09 29.0875 125.09ZM37.6249 120.896C37.6249 122.696 36.8329 123.308 35.9689 123.308C35.4649 123.308 35.0689 123.254 34.7269 122.876C34.3669 122.462 34.3309 121.904 34.3309 121.076V116H31.7569V121.202C31.7569 122.408 31.8649 123.488 32.5669 124.226C33.2149 124.91 33.9889 125.216 35.1229 125.216C36.3109 125.216 37.1929 124.694 37.6609 123.74V125H40.1089V116H37.6249V120.896ZM46.9717 115.802C45.5137 115.91 44.7397 116.666 44.4337 117.674V116H41.9497V125H44.4697V120.986C44.4697 118.808 45.4057 118.016 47.0977 118.016C47.2597 118.016 47.4217 118.034 47.5657 118.052L47.6197 115.784C47.4577 115.784 47.1157 115.784 46.9717 115.802ZM55.7415 117.044C54.9855 116.234 53.8695 115.784 52.4475 115.784C51.0435 115.784 49.9635 116.198 49.1715 116.972C48.2895 117.818 47.8935 119.042 47.8935 120.482C47.8935 121.994 48.3255 123.182 49.1895 124.028C49.9455 124.766 51.0615 125.216 52.4655 125.216C54.7875 125.216 56.2995 124.208 56.8215 122.192L54.3735 121.976C54.1935 122.912 53.6175 123.434 52.4655 123.434C51.1155 123.434 50.3955 122.66 50.3775 121.148H56.9655C57.0015 119.384 56.6055 117.98 55.7415 117.044ZM52.4475 117.53C53.0955 117.53 53.5455 117.692 53.8875 118.052C54.2115 118.394 54.3555 118.862 54.4095 119.42H50.3955C50.4495 118.934 50.5935 118.52 50.8455 118.196C51.1875 117.746 51.7095 117.53 52.4475 117.53ZM60.8981 125V122.156H58.1801V125H60.8981ZM66.9125 125V114.686H70.9265V112.4H60.1805V114.686H64.1945V125H66.9125ZM77.2621 117.044C76.5061 116.234 75.3901 115.784 73.9681 115.784C72.5641 115.784 71.4841 116.198 70.6921 116.972C69.8101 117.818 69.4141 119.042 69.4141 120.482C69.4141 121.994 69.8461 123.182 70.7101 124.028C71.4661 124.766 72.5821 125.216 73.9861 125.216C76.3081 125.216 77.8201 124.208 78.3421 122.192L75.8941 121.976C75.7141 122.912 75.1381 123.434 73.9861 123.434C72.6361 123.434 71.9161 122.66 71.8981 121.148H78.4861C78.5221 119.384 78.1261 117.98 77.2621 117.044ZM73.9681 117.53C74.6161 117.53 75.0661 117.692 75.4081 118.052C75.7321 118.394 75.8761 118.862 75.9301 119.42H71.9161C71.9701 118.934 72.1141 118.52 72.3661 118.196C72.7081 117.746 73.2301 117.53 73.9681 117.53ZM84.0026 125.216C86.3786 125.216 87.8906 123.884 88.1786 122.048L85.7306 121.796C85.4966 122.768 84.9566 123.344 84.0026 123.344C82.5266 123.344 82.1126 122.39 82.1126 120.5C82.1126 119.492 82.2386 118.718 82.5986 118.25C82.8866 117.854 83.3366 117.656 84.0026 117.656C85.1726 117.656 85.5506 118.484 85.7306 119.456L88.1246 119.042C87.7646 117.134 86.4866 115.784 84.0026 115.784C81.0506 115.784 79.3766 117.728 79.3766 120.5C79.3766 123.452 81.0506 125.216 84.0026 125.216ZM96.9642 116.684C96.3522 116.018 95.6322 115.784 94.4622 115.784C93.2922 115.784 92.3202 116.288 91.8522 117.314V112.4H89.3502V125H91.8702V120.032C91.8702 118.268 92.8062 117.71 93.5442 117.71C94.0842 117.71 94.4082 117.764 94.7502 118.106C95.1102 118.466 95.2002 118.808 95.2002 119.654V125H97.7202V119.528C97.7202 118.286 97.6482 117.422 96.9642 116.684Z" fill="white"/>
<path d="M7.06197 142.56L11.782 130.24H9.89397L5.18997 142.56H7.06197ZM17.7645 142V136.288C17.7645 135.968 17.7325 134.448 17.6845 133.296H17.7005C18.0845 134.224 18.7565 135.456 19.0925 136.032L22.4685 142H24.7565V130.8H22.8525V136.48C22.8525 137.056 22.8845 138.544 22.9325 139.552H22.9165C22.5005 138.592 21.8925 137.472 21.4445 136.656L18.1165 130.8H15.8605V142H17.7645ZM33.1916 135.136C32.5196 134.288 31.4476 133.808 30.1836 133.808C28.9676 133.808 28.0076 134.192 27.3036 134.928C26.5836 135.696 26.2316 136.752 26.2316 137.984C26.2316 139.28 26.5676 140.336 27.3036 141.088C27.9916 141.792 28.9516 142.192 30.1996 142.192C32.2476 142.192 33.5596 141.28 33.9756 139.44L32.1356 139.296C31.9596 140.272 31.3516 140.768 30.1836 140.768C28.8556 140.768 28.1836 140.016 28.1516 138.528H34.1036C34.1516 137.152 33.8316 135.936 33.1916 135.136ZM30.1836 135.232C30.8876 135.232 31.3676 135.424 31.7196 135.856C31.9916 136.192 32.1356 136.656 32.1676 137.104H28.1676C28.1996 136.72 28.3116 136.288 28.5676 135.936C28.8876 135.488 29.4316 135.232 30.1836 135.232ZM41.7225 134H39.6745L38.6985 135.456L38.0265 136.528C37.8505 136.24 37.6105 135.824 37.3545 135.44L36.3625 134H34.2985L36.9705 137.808L34.0745 142H36.1385L37.1465 140.464C37.4505 140.016 37.7865 139.44 37.9945 139.104C38.2185 139.472 38.5385 140.032 38.8265 140.48L39.8665 142H41.9305L39.0505 137.808L41.7225 134ZM47.9826 138.416C47.9826 140.32 47.0066 140.704 46.2546 140.704C45.7906 140.704 45.3746 140.672 44.9906 140.288C44.6066 139.888 44.5906 139.328 44.5906 138.592V134H42.6546V138.688C42.6546 139.664 42.7186 140.656 43.3426 141.312C43.9186 141.92 44.6226 142.192 45.6466 142.192C46.7506 142.192 47.5666 141.712 47.9986 140.832V142H49.8546V134H47.9826V138.416ZM54.6451 142.192C56.4051 142.192 58.0851 141.6 58.0851 139.664C58.0851 137.776 56.3731 137.44 54.8691 137.104C53.8451 136.88 53.1091 136.688 53.1091 136.064C53.1091 135.44 53.7651 135.168 54.4691 135.168C55.4771 135.168 56.0851 135.648 56.1331 136.64L57.8771 136.352C57.7011 134.448 56.2131 133.808 54.4691 133.808C52.8691 133.808 51.3171 134.496 51.3171 136.208C51.3171 137.824 52.6771 138.272 54.1011 138.64C55.3011 138.944 56.2931 139.072 56.2931 139.776C56.2931 140.448 55.7331 140.832 54.6611 140.832C53.6051 140.832 52.8851 140.288 52.8691 139.248L51.0931 139.456C51.1571 141.376 52.7731 142.192 54.6451 142.192Z" fill="white"/>
</svg>
