<svg width="518" height="100" viewBox="0 0 518 100" fill="none" xmlns="http://www.w3.org/2000/svg">
<path d="M330.556 62.8349L340.586 36.6549H336.574L326.578 62.8349H330.556ZM353.299 61.6449V49.5069C353.299 48.8269 353.231 45.5969 353.129 43.1489H353.163C353.979 45.1209 355.407 47.7389 356.121 48.9629L363.295 61.6449H368.157V37.8449H364.111V49.9149C364.111 51.1389 364.179 54.3009 364.281 56.4429H364.247C363.363 54.4029 362.071 52.0229 361.119 50.2889L354.047 37.8449H349.253V61.6449H353.299ZM386.081 47.0589C384.653 45.2569 382.375 44.2369 379.689 44.2369C377.105 44.2369 375.065 45.0529 373.569 46.6169C372.039 48.2489 371.291 50.4929 371.291 53.1109C371.291 55.8649 372.005 58.1089 373.569 59.7069C375.031 61.2029 377.071 62.0529 379.723 62.0529C384.075 62.0529 386.863 60.1149 387.747 56.2049L383.837 55.8989C383.463 57.9729 382.171 59.0269 379.689 59.0269C376.867 59.0269 375.439 57.4289 375.371 54.2669H388.019C388.121 51.3429 387.441 48.7589 386.081 47.0589ZM379.689 47.2629C381.185 47.2629 382.205 47.6709 382.953 48.5889C383.531 49.3029 383.837 50.2889 383.905 51.2409H375.405C375.473 50.4249 375.711 49.5069 376.255 48.7589C376.935 47.8069 378.091 47.2629 379.689 47.2629ZM404.21 44.6449H399.858L397.784 47.7389L396.356 50.0169C395.982 49.4049 395.472 48.5209 394.928 47.7049L392.82 44.6449H388.434L394.112 52.7369L387.958 61.6449H392.344L394.486 58.3809C395.132 57.4289 395.846 56.2049 396.288 55.4909C396.764 56.2729 397.444 57.4629 398.056 58.4149L400.266 61.6449H404.652L398.532 52.7369L404.21 44.6449ZM417.512 54.0289C417.512 58.0749 415.438 58.8909 413.84 58.8909C412.854 58.8909 411.97 58.8229 411.154 58.0069C410.338 57.1569 410.304 55.9669 410.304 54.4029V44.6449H406.19V54.6069C406.19 56.6809 406.326 58.7889 407.652 60.1829C408.876 61.4749 410.372 62.0529 412.548 62.0529C414.894 62.0529 416.628 61.0329 417.546 59.1629V61.6449H421.49V44.6449H417.512V54.0289ZM431.67 62.0529C435.41 62.0529 438.98 60.7949 438.98 56.6809C438.98 52.6689 435.342 51.9549 432.146 51.2409C429.97 50.7649 428.406 50.3569 428.406 49.0309C428.406 47.7049 429.8 47.1269 431.296 47.1269C433.438 47.1269 434.73 48.1469 434.832 50.2549L438.538 49.6429C438.164 45.5969 435.002 44.2369 431.296 44.2369C427.896 44.2369 424.598 45.6989 424.598 49.3369C424.598 52.7709 427.488 53.7229 430.514 54.5049C433.064 55.1509 435.172 55.4229 435.172 56.9189C435.172 58.3469 433.982 59.1629 431.704 59.1629C429.46 59.1629 427.93 58.0069 427.896 55.7969L424.122 56.2389C424.258 60.3189 427.692 62.0529 431.67 62.0529Z" fill="white"/>
<path d="M132.596 62V50.408C132.596 49.688 132.524 46.196 132.38 43.424H132.452C133.244 45.656 134.72 48.356 135.584 49.976L141.848 62H148.112V36.8H143V48.284C143 49.76 143.072 53.144 143.216 55.556H143.144C142.28 53.252 140.732 50.408 139.724 48.428L133.748 36.8H127.484V62H132.596ZM167.878 49.508C167.878 45.584 164.998 43.568 160.318 43.568C157.618 43.568 155.602 44.036 154.198 45.008C152.722 46.016 151.93 47.672 151.93 50.012L156.862 50.372C156.862 47.852 157.978 47.132 159.958 47.132C161.398 47.132 162.082 47.384 162.55 48.032C163.018 48.68 162.982 49.544 162.982 50.372L158.086 51.272C154.486 51.92 151.282 53.036 151.282 56.888C151.282 60.596 154.126 62.432 157.654 62.432C160.534 62.432 162.406 61.136 163.27 59.588C163.306 60.452 163.414 61.352 163.594 62H168.598V61.856C168.202 61.1 167.878 60.128 167.878 58.76V49.508ZM162.982 55.016C162.982 57.752 161.254 58.868 158.878 58.868C157.51 58.868 156.466 58.256 156.466 56.852C156.466 55.484 157.402 54.908 158.914 54.584L162.982 53.684V55.016ZM178.496 62.18C179.432 62.18 180.404 62.108 181.16 61.928L181.088 57.644C180.512 57.752 179.9 57.824 179.432 57.824C178.208 57.824 177.56 57.536 177.56 56.528V47.96H181.232V44H177.56V38.996H172.592V44H170V47.96H172.592V57.104C172.592 60.848 175.04 62.18 178.496 62.18ZM195.571 53.792C195.571 57.392 193.987 58.616 192.259 58.616C191.251 58.616 190.459 58.508 189.775 57.752C189.055 56.924 188.983 55.808 188.983 54.152V44H183.835V54.404C183.835 56.816 184.051 58.976 185.455 60.452C186.751 61.82 188.299 62.432 190.567 62.432C192.943 62.432 194.707 61.388 195.643 59.48V62H200.539V44H195.571V53.792ZM214.265 43.604C211.349 43.82 209.801 45.332 209.189 47.348V44H204.221V62H209.261V53.972C209.261 49.616 211.133 48.032 214.517 48.032C214.841 48.032 215.165 48.068 215.453 48.104L215.561 43.568C215.237 43.568 214.553 43.568 214.265 43.604ZM231.804 46.088C230.292 44.468 228.06 43.568 225.216 43.568C222.408 43.568 220.248 44.396 218.664 45.944C216.9 47.636 216.108 50.084 216.108 52.964C216.108 55.988 216.972 58.364 218.7 60.056C220.212 61.532 222.444 62.432 225.252 62.432C229.896 62.432 232.92 60.416 233.964 56.384L229.068 55.952C228.708 57.824 227.556 58.868 225.252 58.868C222.552 58.868 221.112 57.32 221.076 54.296H234.252C234.324 50.768 233.532 47.96 231.804 46.088ZM225.216 47.06C226.512 47.06 227.412 47.384 228.096 48.104C228.744 48.788 229.032 49.724 229.14 50.84H221.112C221.22 49.868 221.508 49.04 222.012 48.392C222.696 47.492 223.74 47.06 225.216 47.06ZM242.117 62V56.312H236.681V62H242.117ZM254.146 62V41.372H262.174V36.8H240.682V41.372H248.71V62H254.146ZM274.845 46.088C273.333 44.468 271.101 43.568 268.257 43.568C265.449 43.568 263.289 44.396 261.705 45.944C259.941 47.636 259.149 50.084 259.149 52.964C259.149 55.988 260.013 58.364 261.741 60.056C263.253 61.532 265.485 62.432 268.293 62.432C272.937 62.432 275.961 60.416 277.005 56.384L272.109 55.952C271.749 57.824 270.597 58.868 268.293 58.868C265.593 58.868 264.153 57.32 264.117 54.296H277.293C277.365 50.768 276.573 47.96 274.845 46.088ZM268.257 47.06C269.553 47.06 270.453 47.384 271.137 48.104C271.785 48.788 272.073 49.724 272.181 50.84H264.153C264.261 49.868 264.549 49.04 265.053 48.392C265.737 47.492 266.781 47.06 268.257 47.06ZM288.326 62.432C293.078 62.432 296.102 59.768 296.678 56.096L291.782 55.592C291.314 57.536 290.234 58.688 288.326 58.688C285.374 58.688 284.546 56.78 284.546 53C284.546 50.984 284.798 49.436 285.518 48.5C286.094 47.708 286.994 47.312 288.326 47.312C290.666 47.312 291.422 48.968 291.782 50.912L296.57 50.084C295.85 46.268 293.294 43.568 288.326 43.568C282.422 43.568 279.074 47.456 279.074 53C279.074 58.904 282.422 62.432 288.326 62.432ZM314.249 45.368C313.025 44.036 311.585 43.568 309.245 43.568C306.905 43.568 304.961 44.576 304.025 46.628V36.8H299.021V62H304.061V52.064C304.061 48.536 305.933 47.42 307.409 47.42C308.489 47.42 309.137 47.528 309.821 48.212C310.541 48.932 310.721 49.616 310.721 51.308V62H315.761V51.056C315.761 48.572 315.617 46.844 314.249 45.368Z" fill="white"/>
<rect x="1" y="1" width="98" height="98" stroke="white" stroke-width="2"/>
<path d="M50 0L50 100" stroke="white" stroke-width="2"/>
<path d="M1 1L99 99" stroke="white" stroke-width="2"/>
<path d="M9 1L50 42" stroke="white" stroke-width="2"/>
<path d="M91 99L50 58" stroke="white" stroke-width="2"/>
<path d="M17 1L50 34" stroke="white" stroke-width="2"/>
<path d="M83 99L50 66" stroke="white" stroke-width="2"/>
<path d="M25 1L50 26" stroke="white" stroke-width="2"/>
<path d="M75 99L50 74" stroke="white" stroke-width="2"/>
<path d="M33 1L50 18" stroke="white" stroke-width="2"/>
<path d="M67 99L50 82" stroke="white" stroke-width="2"/>
<path d="M41 1L50 10" stroke="white" stroke-width="2"/>
<path d="M59 99L50 90" stroke="white" stroke-width="2"/>
</svg>
