<svg width="452" height="108" viewBox="0 0 452 108" fill="none" xmlns="http://www.w3.org/2000/svg">
<path d="M124.432 101.68L138.592 64.72H132.928L118.816 101.68H124.432ZM161.34 100V82.864C161.34 81.904 161.244 77.344 161.1 73.888H161.148C162.3 76.672 164.316 80.368 165.324 82.096L175.452 100H182.316V66.4H176.604V83.44C176.604 85.168 176.7 89.632 176.844 92.656H176.796C175.548 89.776 173.724 86.416 172.38 83.968L162.396 66.4H155.628V100H161.34ZM210.021 79.408C208.005 76.864 204.789 75.424 200.997 75.424C197.349 75.424 194.469 76.576 192.357 78.784C190.197 81.088 189.141 84.256 189.141 87.952C189.141 91.84 190.149 95.008 192.357 97.264C194.421 99.376 197.301 100.576 201.045 100.576C207.189 100.576 211.125 97.84 212.373 92.32L206.853 91.888C206.325 94.816 204.501 96.304 200.997 96.304C197.013 96.304 194.997 94.048 194.901 89.584H212.757C212.901 85.456 211.941 81.808 210.021 79.408ZM200.997 79.696C203.109 79.696 204.549 80.272 205.605 81.568C206.421 82.576 206.853 83.968 206.949 85.312H194.949C195.045 84.16 195.381 82.864 196.149 81.808C197.109 80.464 198.741 79.696 200.997 79.696ZM238.014 76H231.87L228.942 80.368L226.926 83.584C226.398 82.72 225.678 81.472 224.91 80.32L221.934 76H215.742L223.758 87.424L215.07 100H221.262L224.286 95.392C225.198 94.048 226.206 92.32 226.83 91.312C227.502 92.416 228.462 94.096 229.326 95.44L232.446 100H238.638L229.998 87.424L238.014 76ZM259.194 89.248C259.194 94.96 256.266 96.112 254.01 96.112C252.618 96.112 251.37 96.016 250.218 94.864C249.066 93.664 249.018 91.984 249.018 89.776V76H243.21V90.064C243.21 92.992 243.402 95.968 245.274 97.936C247.002 99.76 249.114 100.576 252.186 100.576C255.498 100.576 257.946 99.136 259.242 96.496V100H264.81V76H259.194V89.248ZM281.581 100.576C286.861 100.576 291.901 98.8 291.901 92.992C291.901 87.328 286.765 86.32 282.253 85.312C279.181 84.64 276.973 84.064 276.973 82.192C276.973 80.32 278.941 79.504 281.053 79.504C284.077 79.504 285.901 80.944 286.045 83.92L291.277 83.056C290.749 77.344 286.285 75.424 281.053 75.424C276.253 75.424 271.597 77.488 271.597 82.624C271.597 87.472 275.677 88.816 279.949 89.92C283.549 90.832 286.525 91.216 286.525 93.328C286.525 95.344 284.845 96.496 281.629 96.496C278.461 96.496 276.301 94.864 276.253 91.744L270.925 92.368C271.117 98.128 275.965 100.576 281.581 100.576Z" fill="white"/>
<rect x="1" y="4" width="98" height="98" stroke="white" stroke-width="2"/>
<path d="M50 3L50 103" stroke="white" stroke-width="2"/>
<path d="M1 4L99 102" stroke="white" stroke-width="2"/>
<path d="M9 4L50 45" stroke="white" stroke-width="2"/>
<path d="M91 102L50 61" stroke="white" stroke-width="2"/>
<path d="M17 4L50 37" stroke="white" stroke-width="2"/>
<path d="M83 102L50 69" stroke="white" stroke-width="2"/>
<path d="M25 4L50 29" stroke="white" stroke-width="2"/>
<path d="M75 102L50 77" stroke="white" stroke-width="2"/>
<path d="M33 4L50 21" stroke="white" stroke-width="2"/>
<path d="M67 102L50 85" stroke="white" stroke-width="2"/>
<path d="M41 4L50 13" stroke="white" stroke-width="2"/>
<path d="M59 102L50 93" stroke="white" stroke-width="2"/>
<path d="M128.394 44V26.612C128.394 25.532 128.286 20.294 128.07 16.136H128.178C129.366 19.484 131.58 23.534 132.876 25.964L142.272 44H151.668V6.2H144V23.426C144 25.64 144.108 30.716 144.324 34.334H144.216C142.92 30.878 140.598 26.612 139.086 23.642L130.122 6.2H120.726V44H128.394ZM186.177 25.262C186.177 19.376 181.857 16.352 174.837 16.352C170.787 16.352 167.763 17.054 165.657 18.512C163.443 20.024 162.255 22.508 162.255 26.018L169.653 26.558C169.653 22.778 171.327 21.698 174.297 21.698C176.457 21.698 177.483 22.076 178.185 23.048C178.887 24.02 178.833 25.316 178.833 26.558L171.489 27.908C166.089 28.88 161.283 30.554 161.283 36.332C161.283 41.894 165.549 44.648 170.841 44.648C175.161 44.648 177.969 42.704 179.265 40.382C179.319 41.678 179.481 43.028 179.751 44H187.257V43.784C186.663 42.65 186.177 41.192 186.177 39.14V25.262ZM178.833 33.524C178.833 37.628 176.241 39.302 172.677 39.302C170.625 39.302 169.059 38.384 169.059 36.278C169.059 34.226 170.463 33.362 172.731 32.876L178.833 31.526V33.524ZM206.964 44.27C208.368 44.27 209.826 44.162 210.96 43.892L210.852 37.466C209.988 37.628 209.07 37.736 208.368 37.736C206.532 37.736 205.56 37.304 205.56 35.792V22.94H211.068V17H205.56V9.494H198.108V17H194.22V22.94H198.108V36.656C198.108 42.272 201.78 44.27 206.964 44.27ZM237.436 31.688C237.436 37.088 235.06 38.924 232.468 38.924C230.956 38.924 229.768 38.762 228.742 37.628C227.662 36.386 227.554 34.712 227.554 32.228V17H219.832V32.606C219.832 36.224 220.156 39.464 222.262 41.678C224.206 43.73 226.528 44.648 229.93 44.648C233.494 44.648 236.14 43.082 237.544 40.22V44H244.888V17H237.436V31.688ZM270.337 16.406C265.963 16.73 263.641 18.998 262.723 22.022V17H255.271V44H262.831V31.958C262.831 25.424 265.639 23.048 270.715 23.048C271.201 23.048 271.687 23.102 272.119 23.156L272.281 16.352C271.795 16.352 270.769 16.352 270.337 16.406ZM301.506 20.132C299.238 17.702 295.89 16.352 291.624 16.352C287.412 16.352 284.172 17.594 281.796 19.916C279.15 22.454 277.962 26.126 277.962 30.446C277.962 34.982 279.258 38.546 281.85 41.084C284.118 43.298 287.466 44.648 291.678 44.648C298.644 44.648 303.18 41.624 304.746 35.576L297.402 34.928C296.862 37.736 295.134 39.302 291.678 39.302C287.628 39.302 285.468 36.98 285.414 32.444H305.178C305.286 27.152 304.098 22.94 301.506 20.132ZM291.624 21.59C293.568 21.59 294.918 22.076 295.944 23.156C296.916 24.182 297.348 25.586 297.51 27.26H285.468C285.63 25.802 286.062 24.56 286.818 23.588C287.844 22.238 289.41 21.59 291.624 21.59ZM321.836 44V35.468H313.682V44H321.836ZM344.739 44V13.058H356.781V6.2H324.543V13.058H336.585V44H344.739ZM380.648 20.132C378.38 17.702 375.032 16.352 370.766 16.352C366.554 16.352 363.314 17.594 360.938 19.916C358.292 22.454 357.104 26.126 357.104 30.446C357.104 34.982 358.4 38.546 360.992 41.084C363.26 43.298 366.608 44.648 370.82 44.648C377.786 44.648 382.322 41.624 383.888 35.576L376.544 34.928C376.004 37.736 374.276 39.302 370.82 39.302C366.77 39.302 364.61 36.98 364.556 32.444H384.32C384.428 27.152 383.24 22.94 380.648 20.132ZM370.766 21.59C372.71 21.59 374.06 22.076 375.086 23.156C376.058 24.182 376.49 25.586 376.652 27.26H364.61C364.772 25.802 365.204 24.56 365.96 23.588C366.986 22.238 368.552 21.59 370.766 21.59ZM405.73 44.648C412.858 44.648 417.394 40.652 418.258 35.144L410.914 34.388C410.212 37.304 408.592 39.032 405.73 39.032C401.302 39.032 400.06 36.17 400.06 30.5C400.06 27.476 400.438 25.154 401.518 23.75C402.382 22.562 403.732 21.968 405.73 21.968C409.24 21.968 410.374 24.452 410.914 27.368L418.096 26.126C417.016 20.402 413.182 16.352 405.73 16.352C396.874 16.352 391.852 22.184 391.852 30.5C391.852 39.356 396.874 44.648 405.73 44.648ZM449.474 19.052C447.638 17.054 445.478 16.352 441.968 16.352C438.458 16.352 435.542 17.864 434.138 20.942V6.2H426.632V44H434.192V29.096C434.192 23.804 437 22.13 439.214 22.13C440.834 22.13 441.806 22.292 442.832 23.318C443.912 24.398 444.182 25.424 444.182 27.962V44H451.742V27.584C451.742 23.858 451.526 21.266 449.474 19.052Z" fill="white"/>
</svg>
