<svg width="672" height="100" viewBox="0 0 672 100" fill="none" xmlns="http://www.w3.org/2000/svg">
<path d="M486.432 68.68L500.592 31.72H494.928L480.816 68.68H486.432ZM523.34 67V49.864C523.34 48.904 523.244 44.344 523.1 40.888H523.148C524.3 43.672 526.316 47.368 527.324 49.096L537.452 67H544.316V33.4H538.604V50.44C538.604 52.168 538.7 56.632 538.844 59.656H538.796C537.548 56.776 535.724 53.416 534.38 50.968L524.396 33.4H517.628V67H523.34ZM572.021 46.408C570.005 43.864 566.789 42.424 562.997 42.424C559.349 42.424 556.469 43.576 554.357 45.784C552.197 48.088 551.141 51.256 551.141 54.952C551.141 58.84 552.149 62.008 554.357 64.264C556.421 66.376 559.301 67.576 563.045 67.576C569.189 67.576 573.125 64.84 574.373 59.32L568.853 58.888C568.325 61.816 566.501 63.304 562.997 63.304C559.013 63.304 556.997 61.048 556.901 56.584H574.757C574.901 52.456 573.941 48.808 572.021 46.408ZM562.997 46.696C565.109 46.696 566.549 47.272 567.605 48.568C568.421 49.576 568.853 50.968 568.949 52.312H556.949C557.045 51.16 557.381 49.864 558.149 48.808C559.109 47.464 560.741 46.696 562.997 46.696ZM600.014 43H593.87L590.942 47.368L588.926 50.584C588.398 49.72 587.678 48.472 586.91 47.32L583.934 43H577.742L585.758 54.424L577.07 67H583.262L586.286 62.392C587.198 61.048 588.206 59.32 588.83 58.312C589.502 59.416 590.462 61.096 591.326 62.44L594.446 67H600.638L591.998 54.424L600.014 43ZM621.194 56.248C621.194 61.96 618.266 63.112 616.01 63.112C614.618 63.112 613.37 63.016 612.218 61.864C611.066 60.664 611.018 58.984 611.018 56.776V43H605.21V57.064C605.21 59.992 605.402 62.968 607.274 64.936C609.002 66.76 611.114 67.576 614.186 67.576C617.498 67.576 619.946 66.136 621.242 63.496V67H626.81V43H621.194V56.248ZM643.581 67.576C648.861 67.576 653.901 65.8 653.901 59.992C653.901 54.328 648.765 53.32 644.253 52.312C641.181 51.64 638.973 51.064 638.973 49.192C638.973 47.32 640.941 46.504 643.053 46.504C646.077 46.504 647.901 47.944 648.045 50.92L653.277 50.056C652.749 44.344 648.285 42.424 643.053 42.424C638.253 42.424 633.597 44.488 633.597 49.624C633.597 54.472 637.677 55.816 641.949 56.92C645.549 57.832 648.525 58.216 648.525 60.328C648.525 62.344 646.845 63.496 643.629 63.496C640.461 63.496 638.301 61.864 638.253 58.744L632.925 59.368C633.117 65.128 637.965 67.576 643.581 67.576Z" fill="white"/>
<path d="M136.394 68V50.612C136.394 49.532 136.286 44.294 136.07 40.136H136.178C137.366 43.484 139.58 47.534 140.876 49.964L150.272 68H159.668V30.2H152V47.426C152 49.64 152.108 54.716 152.324 58.334H152.216C150.92 54.878 148.598 50.612 147.086 47.642L138.122 30.2H128.726V68H136.394ZM194.177 49.262C194.177 43.376 189.857 40.352 182.837 40.352C178.787 40.352 175.763 41.054 173.657 42.512C171.443 44.024 170.255 46.508 170.255 50.018L177.653 50.558C177.653 46.778 179.327 45.698 182.297 45.698C184.457 45.698 185.483 46.076 186.185 47.048C186.887 48.02 186.833 49.316 186.833 50.558L179.489 51.908C174.089 52.88 169.283 54.554 169.283 60.332C169.283 65.894 173.549 68.648 178.841 68.648C183.161 68.648 185.969 66.704 187.265 64.382C187.319 65.678 187.481 67.028 187.751 68H195.257V67.784C194.663 66.65 194.177 65.192 194.177 63.14V49.262ZM186.833 57.524C186.833 61.628 184.241 63.302 180.677 63.302C178.625 63.302 177.059 62.384 177.059 60.278C177.059 58.226 178.463 57.362 180.731 56.876L186.833 55.526V57.524ZM214.964 68.27C216.368 68.27 217.826 68.162 218.96 67.892L218.852 61.466C217.988 61.628 217.07 61.736 216.368 61.736C214.532 61.736 213.56 61.304 213.56 59.792V46.94H219.068V41H213.56V33.494H206.108V41H202.22V46.94H206.108V60.656C206.108 66.272 209.78 68.27 214.964 68.27ZM245.436 55.688C245.436 61.088 243.06 62.924 240.468 62.924C238.956 62.924 237.768 62.762 236.742 61.628C235.662 60.386 235.554 58.712 235.554 56.228V41H227.832V56.606C227.832 60.224 228.156 63.464 230.262 65.678C232.206 67.73 234.528 68.648 237.93 68.648C241.494 68.648 244.14 67.082 245.544 64.22V68H252.888V41H245.436V55.688ZM278.337 40.406C273.963 40.73 271.641 42.998 270.723 46.022V41H263.271V68H270.831V55.958C270.831 49.424 273.639 47.048 278.715 47.048C279.201 47.048 279.687 47.102 280.119 47.156L280.281 40.352C279.795 40.352 278.769 40.352 278.337 40.406ZM309.506 44.132C307.238 41.702 303.89 40.352 299.624 40.352C295.412 40.352 292.172 41.594 289.796 43.916C287.15 46.454 285.962 50.126 285.962 54.446C285.962 58.982 287.258 62.546 289.85 65.084C292.118 67.298 295.466 68.648 299.678 68.648C306.644 68.648 311.18 65.624 312.746 59.576L305.402 58.928C304.862 61.736 303.134 63.302 299.678 63.302C295.628 63.302 293.468 60.98 293.414 56.444H313.178C313.286 51.152 312.098 46.94 309.506 44.132ZM299.624 45.59C301.568 45.59 302.918 46.076 303.944 47.156C304.916 48.182 305.348 49.586 305.51 51.26H293.468C293.63 49.802 294.062 48.56 294.818 47.588C295.844 46.238 297.41 45.59 299.624 45.59ZM329.836 68V59.468H321.682V68H329.836ZM352.739 68V37.058H364.781V30.2H332.543V37.058H344.585V68H352.739ZM388.648 44.132C386.38 41.702 383.032 40.352 378.766 40.352C374.554 40.352 371.314 41.594 368.938 43.916C366.292 46.454 365.104 50.126 365.104 54.446C365.104 58.982 366.4 62.546 368.992 65.084C371.26 67.298 374.608 68.648 378.82 68.648C385.786 68.648 390.322 65.624 391.888 59.576L384.544 58.928C384.004 61.736 382.276 63.302 378.82 63.302C374.77 63.302 372.61 60.98 372.556 56.444H392.32C392.428 51.152 391.24 46.94 388.648 44.132ZM378.766 45.59C380.71 45.59 382.06 46.076 383.086 47.156C384.058 48.182 384.49 49.586 384.652 51.26H372.61C372.772 49.802 373.204 48.56 373.96 47.588C374.986 46.238 376.552 45.59 378.766 45.59ZM413.73 68.648C420.858 68.648 425.394 64.652 426.258 59.144L418.914 58.388C418.212 61.304 416.592 63.032 413.73 63.032C409.302 63.032 408.06 60.17 408.06 54.5C408.06 51.476 408.438 49.154 409.518 47.75C410.382 46.562 411.732 45.968 413.73 45.968C417.24 45.968 418.374 48.452 418.914 51.368L426.096 50.126C425.016 44.402 421.182 40.352 413.73 40.352C404.874 40.352 399.852 46.184 399.852 54.5C399.852 63.356 404.874 68.648 413.73 68.648ZM457.474 43.052C455.638 41.054 453.478 40.352 449.968 40.352C446.458 40.352 443.542 41.864 442.138 44.942V30.2H434.632V68H442.192V53.096C442.192 47.804 445 46.13 447.214 46.13C448.834 46.13 449.806 46.292 450.832 47.318C451.912 48.398 452.182 49.424 452.182 51.962V68H459.742V51.584C459.742 47.858 459.526 45.266 457.474 43.052Z" fill="white"/>
<rect x="1" y="1" width="98" height="98" stroke="white" stroke-width="2"/>
<path d="M50 0L50 100" stroke="white" stroke-width="2"/>
<path d="M1 1L99 99" stroke="white" stroke-width="2"/>
<path d="M9 1L50 42" stroke="white" stroke-width="2"/>
<path d="M91 99L50 58" stroke="white" stroke-width="2"/>
<path d="M17 1L50 34" stroke="white" stroke-width="2"/>
<path d="M83 99L50 66" stroke="white" stroke-width="2"/>
<path d="M25 1L50 26" stroke="white" stroke-width="2"/>
<path d="M75 99L50 74" stroke="white" stroke-width="2"/>
<path d="M33 1L50 18" stroke="white" stroke-width="2"/>
<path d="M67 99L50 82" stroke="white" stroke-width="2"/>
<path d="M41 1L50 10" stroke="white" stroke-width="2"/>
<path d="M59 99L50 90" stroke="white" stroke-width="2"/>
</svg>
