<svg width="200" height="200" viewBox="0 0 200 200" fill="none" xmlns="http://www.w3.org/2000/svg">
<rect width="200" height="200" rx="100" fill="#FAF3EE"/>
<rect x="51" y="33" width="98" height="98" stroke="#282828" stroke-width="2"/>
<path d="M100 32L100 132" stroke="#282828" stroke-width="2"/>
<path d="M51 33L149 131" stroke="#282828" stroke-width="2"/>
<path d="M59 33L100 74" stroke="#282828" stroke-width="2"/>
<path d="M141 131L100 90" stroke="#282828" stroke-width="2"/>
<path d="M67 33L100 66" stroke="#282828" stroke-width="2"/>
<path d="M133 131L100 98" stroke="#282828" stroke-width="2"/>
<path d="M75 33L100 58" stroke="#282828" stroke-width="2"/>
<path d="M125 131L100 106" stroke="#282828" stroke-width="2"/>
<path d="M83 33L100 50" stroke="#282828" stroke-width="2"/>
<path d="M117 131L100 114" stroke="#282828" stroke-width="2"/>
<path d="M91 33L100 42" stroke="#282828" stroke-width="2"/>
<path d="M109 131L100 122" stroke="#282828" stroke-width="2"/>
<path d="M56.1375 157V151.204C56.1375 150.844 56.1015 149.098 56.0295 147.712H56.0655C56.4615 148.828 57.1995 150.178 57.6315 150.988L60.7635 157H63.8955V144.4H61.3395V150.142C61.3395 150.88 61.3755 152.572 61.4475 153.778H61.4115C60.9795 152.626 60.2055 151.204 59.7015 150.214L56.7135 144.4H53.5815V157H56.1375ZM73.7784 150.754C73.7784 148.792 72.3384 147.784 69.9984 147.784C68.6484 147.784 67.6404 148.018 66.9384 148.504C66.2004 149.008 65.8044 149.836 65.8044 151.006L68.2704 151.186C68.2704 149.926 68.8284 149.566 69.8184 149.566C70.5384 149.566 70.8804 149.692 71.1144 150.016C71.3484 150.34 71.3304 150.772 71.3304 151.186L68.8824 151.636C67.0824 151.96 65.4804 152.518 65.4804 154.444C65.4804 156.298 66.9024 157.216 68.6664 157.216C70.1064 157.216 71.0424 156.568 71.4744 155.794C71.4924 156.226 71.5464 156.676 71.6364 157H74.1384V156.928C73.9404 156.55 73.7784 156.064 73.7784 155.38V150.754ZM71.3304 153.508C71.3304 154.876 70.4664 155.434 69.2784 155.434C68.5944 155.434 68.0724 155.128 68.0724 154.426C68.0724 153.742 68.5404 153.454 69.2964 153.292L71.3304 152.842V153.508ZM79.0875 157.09C79.5555 157.09 80.0415 157.054 80.4195 156.964L80.3835 154.822C80.0955 154.876 79.7895 154.912 79.5555 154.912C78.9435 154.912 78.6195 154.768 78.6195 154.264V149.98H80.4555V148H78.6195V145.498H76.1355V148H74.8395V149.98H76.1355V154.552C76.1355 156.424 77.3595 157.09 79.0875 157.09ZM87.6249 152.896C87.6249 154.696 86.8329 155.308 85.9689 155.308C85.4649 155.308 85.0689 155.254 84.7269 154.876C84.3669 154.462 84.3309 153.904 84.3309 153.076V148H81.7569V153.202C81.7569 154.408 81.8649 155.488 82.5669 156.226C83.2149 156.91 83.9889 157.216 85.1229 157.216C86.3109 157.216 87.1929 156.694 87.6609 155.74V157H90.1089V148H87.6249V152.896ZM96.9717 147.802C95.5137 147.91 94.7397 148.666 94.4337 149.674V148H91.9497V157H94.4697V152.986C94.4697 150.808 95.4057 150.016 97.0977 150.016C97.2597 150.016 97.4217 150.034 97.5657 150.052L97.6197 147.784C97.4577 147.784 97.1157 147.784 96.9717 147.802ZM105.742 149.044C104.986 148.234 103.87 147.784 102.448 147.784C101.044 147.784 99.9635 148.198 99.1715 148.972C98.2895 149.818 97.8935 151.042 97.8935 152.482C97.8935 153.994 98.3255 155.182 99.1895 156.028C99.9455 156.766 101.062 157.216 102.466 157.216C104.788 157.216 106.3 156.208 106.822 154.192L104.374 153.976C104.194 154.912 103.618 155.434 102.466 155.434C101.116 155.434 100.396 154.66 100.378 153.148H106.966C107.002 151.384 106.606 149.98 105.742 149.044ZM102.448 149.53C103.096 149.53 103.546 149.692 103.888 150.052C104.212 150.394 104.356 150.862 104.41 151.42H100.396C100.45 150.934 100.594 150.52 100.846 150.196C101.188 149.746 101.71 149.53 102.448 149.53ZM110.898 157V154.156H108.18V157H110.898ZM116.912 157V146.686H120.926V144.4H110.18V146.686H114.194V157H116.912ZM127.262 149.044C126.506 148.234 125.39 147.784 123.968 147.784C122.564 147.784 121.484 148.198 120.692 148.972C119.81 149.818 119.414 151.042 119.414 152.482C119.414 153.994 119.846 155.182 120.71 156.028C121.466 156.766 122.582 157.216 123.986 157.216C126.308 157.216 127.82 156.208 128.342 154.192L125.894 153.976C125.714 154.912 125.138 155.434 123.986 155.434C122.636 155.434 121.916 154.66 121.898 153.148H128.486C128.522 151.384 128.126 149.98 127.262 149.044ZM123.968 149.53C124.616 149.53 125.066 149.692 125.408 150.052C125.732 150.394 125.876 150.862 125.93 151.42H121.916C121.97 150.934 122.114 150.52 122.366 150.196C122.708 149.746 123.23 149.53 123.968 149.53ZM134.003 157.216C136.379 157.216 137.891 155.884 138.179 154.048L135.731 153.796C135.497 154.768 134.957 155.344 134.003 155.344C132.527 155.344 132.113 154.39 132.113 152.5C132.113 151.492 132.239 150.718 132.599 150.25C132.887 149.854 133.337 149.656 134.003 149.656C135.173 149.656 135.551 150.484 135.731 151.456L138.125 151.042C137.765 149.134 136.487 147.784 134.003 147.784C131.051 147.784 129.377 149.728 129.377 152.5C129.377 155.452 131.051 157.216 134.003 157.216ZM146.964 148.684C146.352 148.018 145.632 147.784 144.462 147.784C143.292 147.784 142.32 148.288 141.852 149.314V144.4H139.35V157H141.87V152.032C141.87 150.268 142.806 149.71 143.544 149.71C144.084 149.71 144.408 149.764 144.75 150.106C145.11 150.466 145.2 150.808 145.2 151.654V157H147.72V151.528C147.72 150.286 147.648 149.422 146.964 148.684Z" fill="#282828"/>
</svg>
