<svg width="200" height="200" viewBox="0 0 200 200" fill="none" xmlns="http://www.w3.org/2000/svg">
<rect width="200" height="200" rx="100" fill="#282828"/>
<rect x="51" y="40" width="98" height="98" stroke="white" stroke-width="2"/>
<path d="M100 39L100 139" stroke="white" stroke-width="2"/>
<path d="M51 40L149 138" stroke="white" stroke-width="2"/>
<path d="M59 40L100 81" stroke="white" stroke-width="2"/>
<path d="M141 138L100 97" stroke="white" stroke-width="2"/>
<path d="M67 40L100 73" stroke="white" stroke-width="2"/>
<path d="M133 138L100 105" stroke="white" stroke-width="2"/>
<path d="M75 40L100 65" stroke="white" stroke-width="2"/>
<path d="M125 138L100 113" stroke="white" stroke-width="2"/>
<path d="M83 40L100 57" stroke="white" stroke-width="2"/>
<path d="M117 138L100 121" stroke="white" stroke-width="2"/>
<path d="M91 40L100 49" stroke="white" stroke-width="2"/>
<path d="M109 138L100 129" stroke="white" stroke-width="2"/>
<path d="M56.1375 164V158.204C56.1375 157.844 56.1015 156.098 56.0295 154.712H56.0655C56.4615 155.828 57.1995 157.178 57.6315 157.988L60.7635 164H63.8955V151.4H61.3395V157.142C61.3395 157.88 61.3755 159.572 61.4475 160.778H61.4115C60.9795 159.626 60.2055 158.204 59.7015 157.214L56.7135 151.4H53.5815V164H56.1375ZM73.7784 157.754C73.7784 155.792 72.3384 154.784 69.9984 154.784C68.6484 154.784 67.6404 155.018 66.9384 155.504C66.2004 156.008 65.8044 156.836 65.8044 158.006L68.2704 158.186C68.2704 156.926 68.8284 156.566 69.8184 156.566C70.5384 156.566 70.8804 156.692 71.1144 157.016C71.3484 157.34 71.3304 157.772 71.3304 158.186L68.8824 158.636C67.0824 158.96 65.4804 159.518 65.4804 161.444C65.4804 163.298 66.9024 164.216 68.6664 164.216C70.1064 164.216 71.0424 163.568 71.4744 162.794C71.4924 163.226 71.5464 163.676 71.6364 164H74.1384V163.928C73.9404 163.55 73.7784 163.064 73.7784 162.38V157.754ZM71.3304 160.508C71.3304 161.876 70.4664 162.434 69.2784 162.434C68.5944 162.434 68.0724 162.128 68.0724 161.426C68.0724 160.742 68.5404 160.454 69.2964 160.292L71.3304 159.842V160.508ZM79.0875 164.09C79.5555 164.09 80.0415 164.054 80.4195 163.964L80.3835 161.822C80.0955 161.876 79.7895 161.912 79.5555 161.912C78.9435 161.912 78.6195 161.768 78.6195 161.264V156.98H80.4555V155H78.6195V152.498H76.1355V155H74.8395V156.98H76.1355V161.552C76.1355 163.424 77.3595 164.09 79.0875 164.09ZM87.6249 159.896C87.6249 161.696 86.8329 162.308 85.9689 162.308C85.4649 162.308 85.0689 162.254 84.7269 161.876C84.3669 161.462 84.3309 160.904 84.3309 160.076V155H81.7569V160.202C81.7569 161.408 81.8649 162.488 82.5669 163.226C83.2149 163.91 83.9889 164.216 85.1229 164.216C86.3109 164.216 87.1929 163.694 87.6609 162.74V164H90.1089V155H87.6249V159.896ZM96.9717 154.802C95.5137 154.91 94.7397 155.666 94.4337 156.674V155H91.9497V164H94.4697V159.986C94.4697 157.808 95.4057 157.016 97.0977 157.016C97.2597 157.016 97.4217 157.034 97.5657 157.052L97.6197 154.784C97.4577 154.784 97.1157 154.784 96.9717 154.802ZM105.742 156.044C104.986 155.234 103.87 154.784 102.448 154.784C101.044 154.784 99.9635 155.198 99.1715 155.972C98.2895 156.818 97.8935 158.042 97.8935 159.482C97.8935 160.994 98.3255 162.182 99.1895 163.028C99.9455 163.766 101.062 164.216 102.466 164.216C104.788 164.216 106.3 163.208 106.822 161.192L104.374 160.976C104.194 161.912 103.618 162.434 102.466 162.434C101.116 162.434 100.396 161.66 100.378 160.148H106.966C107.002 158.384 106.606 156.98 105.742 156.044ZM102.448 156.53C103.096 156.53 103.546 156.692 103.888 157.052C104.212 157.394 104.356 157.862 104.41 158.42H100.396C100.45 157.934 100.594 157.52 100.846 157.196C101.188 156.746 101.71 156.53 102.448 156.53ZM110.898 164V161.156H108.18V164H110.898ZM116.912 164V153.686H120.926V151.4H110.18V153.686H114.194V164H116.912ZM127.262 156.044C126.506 155.234 125.39 154.784 123.968 154.784C122.564 154.784 121.484 155.198 120.692 155.972C119.81 156.818 119.414 158.042 119.414 159.482C119.414 160.994 119.846 162.182 120.71 163.028C121.466 163.766 122.582 164.216 123.986 164.216C126.308 164.216 127.82 163.208 128.342 161.192L125.894 160.976C125.714 161.912 125.138 162.434 123.986 162.434C122.636 162.434 121.916 161.66 121.898 160.148H128.486C128.522 158.384 128.126 156.98 127.262 156.044ZM123.968 156.53C124.616 156.53 125.066 156.692 125.408 157.052C125.732 157.394 125.876 157.862 125.93 158.42H121.916C121.97 157.934 122.114 157.52 122.366 157.196C122.708 156.746 123.23 156.53 123.968 156.53ZM134.003 164.216C136.379 164.216 137.891 162.884 138.179 161.048L135.731 160.796C135.497 161.768 134.957 162.344 134.003 162.344C132.527 162.344 132.113 161.39 132.113 159.5C132.113 158.492 132.239 157.718 132.599 157.25C132.887 156.854 133.337 156.656 134.003 156.656C135.173 156.656 135.551 157.484 135.731 158.456L138.125 158.042C137.765 156.134 136.487 154.784 134.003 154.784C131.051 154.784 129.377 156.728 129.377 159.5C129.377 162.452 131.051 164.216 134.003 164.216ZM146.964 155.684C146.352 155.018 145.632 154.784 144.462 154.784C143.292 154.784 142.32 155.288 141.852 156.314V151.4H139.35V164H141.87V159.032C141.87 157.268 142.806 156.71 143.544 156.71C144.084 156.71 144.408 156.764 144.75 157.106C145.11 157.466 145.2 157.808 145.2 158.654V164H147.72V158.528C147.72 157.286 147.648 156.422 146.964 155.684Z" fill="white"/>
</svg>
