<svg width="931" height="100" viewBox="0 0 931 100" fill="none" xmlns="http://www.w3.org/2000/svg">
<path d="M486.432 68.68L500.592 31.72H494.928L480.816 68.68H486.432ZM523.58 67V52.504H538.652V47.56H523.58V38.392H540.428V33.4H517.628V67H523.58ZM561.291 56.248C561.291 61.96 558.363 63.112 556.107 63.112C554.715 63.112 553.467 63.016 552.315 61.864C551.163 60.664 551.115 58.984 551.115 56.776V43H545.307V57.064C545.307 59.992 545.499 62.968 547.371 64.936C549.099 66.76 551.211 67.576 554.283 67.576C557.595 67.576 560.043 66.136 561.339 63.496V67H566.907V43H561.291V56.248ZM594.239 44.872C592.607 43.192 590.639 42.424 587.519 42.424C584.063 42.424 581.471 43.72 580.271 46.648V43H574.607V67H580.319V53.848C580.319 48.04 583.439 46.888 585.551 46.888C586.943 46.888 588.095 46.984 589.151 48.04C590.399 49.192 590.495 50.728 590.495 52.936V67H596.255V52.504C596.255 49.624 596.111 46.792 594.239 44.872ZM620.417 45.976C618.833 43.624 616.337 42.424 613.217 42.424C606.785 42.424 602.465 47.416 602.465 55C602.465 62.824 607.025 67.576 613.313 67.576C616.481 67.576 619.025 66.232 620.417 63.592V67H626.081V33.4H620.417V45.976ZM618.593 61.864C617.633 62.872 616.337 63.4 614.609 63.4C609.953 63.4 608.657 60.52 608.657 55C608.657 52.024 609.089 49.816 610.241 48.424C611.153 47.272 612.593 46.648 614.705 46.648C619.265 46.648 620.561 50.248 620.561 55.048C620.561 58.12 619.937 60.424 618.593 61.864ZM648.091 68.68L662.251 31.72H656.587L642.475 68.68H648.091ZM684.95 67V47.368C684.95 46.216 684.806 41.656 684.758 38.728H684.854C685.814 41.944 687.014 46.072 687.542 47.704L693.734 67H700.166L706.406 47.8C706.934 46.168 707.99 42.568 709.094 38.728H709.19C709.094 41.656 708.998 46.072 708.998 47.272V67H714.662V33.4H705.398L699.926 50.728C698.918 54.04 697.718 58.36 697.046 60.904H696.998C696.374 58.36 695.366 54.856 694.07 50.68L688.598 33.4H679.286V67H684.95ZM743.022 50.344C743.022 45.112 739.518 42.424 733.326 42.424C729.966 42.424 727.326 43.048 725.55 44.296C723.726 45.544 722.67 47.56 722.526 50.392L728.094 51.112C728.142 47.752 729.678 46.6 732.99 46.6C734.958 46.6 736.158 47.032 736.83 47.944C737.502 48.904 737.502 50.056 737.502 51.64L730.35 52.984C725.982 53.8 721.71 55.24 721.71 60.376C721.71 65.224 725.598 67.576 730.014 67.576C733.95 67.576 736.542 65.944 737.79 63.592C737.79 65.08 737.934 66.088 738.126 67H743.838V66.808C743.358 65.656 743.022 64.264 743.022 62.68V50.344ZM737.502 57.784C737.502 61.336 735.294 63.4 731.214 63.4C729.15 63.4 727.518 62.392 727.518 60.328C727.518 58.12 729.054 57.4 731.262 56.872L737.502 55.528V57.784ZM770.054 44.872C768.422 43.192 766.454 42.424 763.334 42.424C759.878 42.424 757.286 43.72 756.086 46.648V43H750.422V67H756.134V53.848C756.134 48.04 759.254 46.888 761.366 46.888C762.758 46.888 763.91 46.984 764.966 48.04C766.214 49.192 766.31 50.728 766.31 52.936V67H772.07V52.504C772.07 49.624 771.926 46.792 770.054 44.872ZM796.184 46.168C794.648 43.816 792.296 42.424 788.936 42.424C782.696 42.424 778.28 47.272 778.28 54.376C778.28 61.864 782.6 66.808 789.08 66.808C792.344 66.808 794.696 65.464 796.184 62.872V66.616C796.184 70.552 794.216 72.664 790.52 72.664C787.256 72.664 785.24 71.608 785.048 68.392L779.528 68.776C779.816 74.68 784.76 76.84 790.28 76.84C797.384 76.84 801.848 73.144 801.848 66.568V43H796.184V46.168ZM794.504 60.952C793.544 62.008 792.2 62.584 790.376 62.584C785.912 62.584 784.472 59.896 784.472 54.376C784.472 51.64 784.904 49.624 786.056 48.328C787.016 47.224 788.456 46.648 790.472 46.648C794.456 46.648 796.376 49.432 796.376 54.376C796.376 57.112 795.8 59.464 794.504 60.952ZM822.294 42.472C818.406 42.76 816.006 44.824 815.238 47.32V43H809.574V67H815.286V56.008C815.286 49.384 818.118 47.56 822.63 47.56C823.062 47.56 823.494 47.56 823.83 47.608L823.974 42.424C823.59 42.424 822.678 42.424 822.294 42.472ZM839.36 67.576C846.752 67.576 851.552 62.536 851.552 55C851.552 47.752 846.896 42.424 839.36 42.424C831.728 42.424 827.072 47.704 827.072 55C827.072 62.824 831.68 67.576 839.36 67.576ZM839.36 63.4C837.344 63.4 835.904 62.872 834.944 61.768C833.696 60.424 833.168 58.168 833.168 55C833.168 51.832 833.696 49.576 834.944 48.232C835.904 47.128 837.392 46.6 839.36 46.6C841.376 46.6 842.816 47.176 843.776 48.328C844.928 49.72 845.456 51.928 845.456 55C845.456 58.072 844.976 60.28 843.824 61.672C842.864 62.824 841.376 63.4 839.36 63.4ZM869.672 67L878.216 43H872.216L868.616 54.376C867.992 56.536 867.224 59.128 866.504 61.72C865.496 58.264 864.728 55.624 864.344 54.376L860.84 43H854.744L863.288 67H869.672ZM902.325 46.408C900.309 43.864 897.093 42.424 893.301 42.424C889.653 42.424 886.773 43.576 884.661 45.784C882.501 48.088 881.445 51.256 881.445 54.952C881.445 58.84 882.453 62.008 884.661 64.264C886.725 66.376 889.605 67.576 893.349 67.576C899.493 67.576 903.429 64.84 904.677 59.32L899.157 58.888C898.629 61.816 896.805 63.304 893.301 63.304C889.317 63.304 887.301 61.048 887.205 56.584H905.061C905.205 52.456 904.245 48.808 902.325 46.408ZM893.301 46.696C895.413 46.696 896.853 47.272 897.909 48.568C898.725 49.576 899.157 50.968 899.253 52.312H887.253C887.349 51.16 887.685 49.864 888.453 48.808C889.413 47.464 891.045 46.696 893.301 46.696ZM920.451 67.576C925.731 67.576 930.771 65.8 930.771 59.992C930.771 54.328 925.635 53.32 921.123 52.312C918.051 51.64 915.843 51.064 915.843 49.192C915.843 47.32 917.811 46.504 919.923 46.504C922.947 46.504 924.771 47.944 924.915 50.92L930.147 50.056C929.619 44.344 925.155 42.424 919.923 42.424C915.123 42.424 910.467 44.488 910.467 49.624C910.467 54.472 914.547 55.816 918.819 56.92C922.419 57.832 925.395 58.216 925.395 60.328C925.395 62.344 923.715 63.496 920.499 63.496C917.331 63.496 915.171 61.864 915.123 58.744L909.795 59.368C909.987 65.128 914.835 67.576 920.451 67.576Z" fill="#282828"/>
<path d="M136.394 68V50.612C136.394 49.532 136.286 44.294 136.07 40.136H136.178C137.366 43.484 139.58 47.534 140.876 49.964L150.272 68H159.668V30.2H152V47.426C152 49.64 152.108 54.716 152.324 58.334H152.216C150.92 54.878 148.598 50.612 147.086 47.642L138.122 30.2H128.726V68H136.394ZM194.177 49.262C194.177 43.376 189.857 40.352 182.837 40.352C178.787 40.352 175.763 41.054 173.657 42.512C171.443 44.024 170.255 46.508 170.255 50.018L177.653 50.558C177.653 46.778 179.327 45.698 182.297 45.698C184.457 45.698 185.483 46.076 186.185 47.048C186.887 48.02 186.833 49.316 186.833 50.558L179.489 51.908C174.089 52.88 169.283 54.554 169.283 60.332C169.283 65.894 173.549 68.648 178.841 68.648C183.161 68.648 185.969 66.704 187.265 64.382C187.319 65.678 187.481 67.028 187.751 68H195.257V67.784C194.663 66.65 194.177 65.192 194.177 63.14V49.262ZM186.833 57.524C186.833 61.628 184.241 63.302 180.677 63.302C178.625 63.302 177.059 62.384 177.059 60.278C177.059 58.226 178.463 57.362 180.731 56.876L186.833 55.526V57.524ZM214.964 68.27C216.368 68.27 217.826 68.162 218.96 67.892L218.852 61.466C217.988 61.628 217.07 61.736 216.368 61.736C214.532 61.736 213.56 61.304 213.56 59.792V46.94H219.068V41H213.56V33.494H206.108V41H202.22V46.94H206.108V60.656C206.108 66.272 209.78 68.27 214.964 68.27ZM245.436 55.688C245.436 61.088 243.06 62.924 240.468 62.924C238.956 62.924 237.768 62.762 236.742 61.628C235.662 60.386 235.554 58.712 235.554 56.228V41H227.832V56.606C227.832 60.224 228.156 63.464 230.262 65.678C232.206 67.73 234.528 68.648 237.93 68.648C241.494 68.648 244.14 67.082 245.544 64.22V68H252.888V41H245.436V55.688ZM278.337 40.406C273.963 40.73 271.641 42.998 270.723 46.022V41H263.271V68H270.831V55.958C270.831 49.424 273.639 47.048 278.715 47.048C279.201 47.048 279.687 47.102 280.119 47.156L280.281 40.352C279.795 40.352 278.769 40.352 278.337 40.406ZM309.506 44.132C307.238 41.702 303.89 40.352 299.624 40.352C295.412 40.352 292.172 41.594 289.796 43.916C287.15 46.454 285.962 50.126 285.962 54.446C285.962 58.982 287.258 62.546 289.85 65.084C292.118 67.298 295.466 68.648 299.678 68.648C306.644 68.648 311.18 65.624 312.746 59.576L305.402 58.928C304.862 61.736 303.134 63.302 299.678 63.302C295.628 63.302 293.468 60.98 293.414 56.444H313.178C313.286 51.152 312.098 46.94 309.506 44.132ZM299.624 45.59C301.568 45.59 302.918 46.076 303.944 47.156C304.916 48.182 305.348 49.586 305.51 51.26H293.468C293.63 49.802 294.062 48.56 294.818 47.588C295.844 46.238 297.41 45.59 299.624 45.59ZM329.836 68V59.468H321.682V68H329.836ZM352.739 68V37.058H364.781V30.2H332.543V37.058H344.585V68H352.739ZM388.648 44.132C386.38 41.702 383.032 40.352 378.766 40.352C374.554 40.352 371.314 41.594 368.938 43.916C366.292 46.454 365.104 50.126 365.104 54.446C365.104 58.982 366.4 62.546 368.992 65.084C371.26 67.298 374.608 68.648 378.82 68.648C385.786 68.648 390.322 65.624 391.888 59.576L384.544 58.928C384.004 61.736 382.276 63.302 378.82 63.302C374.77 63.302 372.61 60.98 372.556 56.444H392.32C392.428 51.152 391.24 46.94 388.648 44.132ZM378.766 45.59C380.71 45.59 382.06 46.076 383.086 47.156C384.058 48.182 384.49 49.586 384.652 51.26H372.61C372.772 49.802 373.204 48.56 373.96 47.588C374.986 46.238 376.552 45.59 378.766 45.59ZM413.73 68.648C420.858 68.648 425.394 64.652 426.258 59.144L418.914 58.388C418.212 61.304 416.592 63.032 413.73 63.032C409.302 63.032 408.06 60.17 408.06 54.5C408.06 51.476 408.438 49.154 409.518 47.75C410.382 46.562 411.732 45.968 413.73 45.968C417.24 45.968 418.374 48.452 418.914 51.368L426.096 50.126C425.016 44.402 421.182 40.352 413.73 40.352C404.874 40.352 399.852 46.184 399.852 54.5C399.852 63.356 404.874 68.648 413.73 68.648ZM457.474 43.052C455.638 41.054 453.478 40.352 449.968 40.352C446.458 40.352 443.542 41.864 442.138 44.942V30.2H434.632V68H442.192V53.096C442.192 47.804 445 46.13 447.214 46.13C448.834 46.13 449.806 46.292 450.832 47.318C451.912 48.398 452.182 49.424 452.182 51.962V68H459.742V51.584C459.742 47.858 459.526 45.266 457.474 43.052Z" fill="#282828"/>
<rect x="1" y="1" width="98" height="98" stroke="#282828" stroke-width="2"/>
<path d="M50 0L50 100" stroke="#282828" stroke-width="2"/>
<path d="M1 1L99 99" stroke="#282828" stroke-width="2"/>
<path d="M9 1L50 42" stroke="#282828" stroke-width="2"/>
<path d="M91 99L50 58" stroke="#282828" stroke-width="2"/>
<path d="M17 1L50 34" stroke="#282828" stroke-width="2"/>
<path d="M83 99L50 66" stroke="#282828" stroke-width="2"/>
<path d="M25 1L50 26" stroke="#282828" stroke-width="2"/>
<path d="M75 99L50 74" stroke="#282828" stroke-width="2"/>
<path d="M33 1L50 18" stroke="#282828" stroke-width="2"/>
<path d="M67 99L50 82" stroke="#282828" stroke-width="2"/>
<path d="M41 1L50 10" stroke="#282828" stroke-width="2"/>
<path d="M59 99L50 90" stroke="#282828" stroke-width="2"/>
</svg>
