<svg width="95" height="18" viewBox="0 0 95 18" fill="none" xmlns="http://www.w3.org/2000/svg">
<path d="M3.13745 15V9.204C3.13745 8.844 3.10145 7.098 3.02945 5.712H3.06545C3.46145 6.828 4.19945 8.178 4.63145 8.988L7.76346 15H10.8955V2.4H8.33945V8.142C8.33945 8.88 8.37546 10.572 8.44746 11.778H8.41145C7.97945 10.626 7.20545 9.204 6.70145 8.214L3.71345 2.4H0.581455V15H3.13745ZM20.7784 8.754C20.7784 6.792 19.3384 5.784 16.9984 5.784C15.6484 5.784 14.6404 6.018 13.9384 6.504C13.2004 7.008 12.8044 7.836 12.8044 9.006L15.2704 9.186C15.2704 7.926 15.8284 7.566 16.8184 7.566C17.5384 7.566 17.8804 7.692 18.1144 8.016C18.3484 8.34 18.3304 8.772 18.3304 9.186L15.8824 9.636C14.0824 9.96 12.4804 10.518 12.4804 12.444C12.4804 14.298 13.9024 15.216 15.6664 15.216C17.1064 15.216 18.0424 14.568 18.4744 13.794C18.4924 14.226 18.5464 14.676 18.6364 15H21.1384V14.928C20.9404 14.55 20.7784 14.064 20.7784 13.38V8.754ZM18.3304 11.508C18.3304 12.876 17.4664 13.434 16.2784 13.434C15.5944 13.434 15.0724 13.128 15.0724 12.426C15.0724 11.742 15.5404 11.454 16.2964 11.292L18.3304 10.842V11.508ZM26.0875 15.09C26.5555 15.09 27.0415 15.054 27.4195 14.964L27.3835 12.822C27.0955 12.876 26.7895 12.912 26.5555 12.912C25.9435 12.912 25.6195 12.768 25.6195 12.264V7.98H27.4555V6H25.6195V3.498H23.1355V6H21.8395V7.98H23.1355V12.552C23.1355 14.424 24.3595 15.09 26.0875 15.09ZM34.6249 10.896C34.6249 12.696 33.8329 13.308 32.9689 13.308C32.4649 13.308 32.0689 13.254 31.7269 12.876C31.3669 12.462 31.3309 11.904 31.3309 11.076V6H28.7569V11.202C28.7569 12.408 28.8649 13.488 29.5669 14.226C30.2149 14.91 30.9889 15.216 32.1229 15.216C33.3109 15.216 34.1929 14.694 34.6609 13.74V15H37.1089V6H34.6249V10.896ZM43.9717 5.802C42.5137 5.91 41.7397 6.666 41.4337 7.674V6H38.9497V15H41.4697V10.986C41.4697 8.808 42.4057 8.016 44.0977 8.016C44.2597 8.016 44.4217 8.034 44.5657 8.052L44.6197 5.784C44.4577 5.784 44.1157 5.784 43.9717 5.802ZM52.7415 7.044C51.9855 6.234 50.8695 5.784 49.4475 5.784C48.0435 5.784 46.9635 6.198 46.1715 6.972C45.2895 7.818 44.8935 9.042 44.8935 10.482C44.8935 11.994 45.3255 13.182 46.1895 14.028C46.9455 14.766 48.0615 15.216 49.4655 15.216C51.7875 15.216 53.2995 14.208 53.8215 12.192L51.3735 11.976C51.1935 12.912 50.6175 13.434 49.4655 13.434C48.1155 13.434 47.3955 12.66 47.3775 11.148H53.9655C54.0015 9.384 53.6055 7.98 52.7415 7.044ZM49.4475 7.53C50.0955 7.53 50.5455 7.692 50.8875 8.052C51.2115 8.394 51.3555 8.862 51.4095 9.42H47.3955C47.4495 8.934 47.5935 8.52 47.8455 8.196C48.1875 7.746 48.7095 7.53 49.4475 7.53ZM57.8981 15V12.156H55.1801V15H57.8981ZM63.9125 15V4.686H67.9265V2.4H57.1805V4.686H61.1945V15H63.9125ZM74.2621 7.044C73.5061 6.234 72.3901 5.784 70.9681 5.784C69.5641 5.784 68.4841 6.198 67.6921 6.972C66.8101 7.818 66.4141 9.042 66.4141 10.482C66.4141 11.994 66.8461 13.182 67.7101 14.028C68.4661 14.766 69.5821 15.216 70.9861 15.216C73.3081 15.216 74.8201 14.208 75.3421 12.192L72.8941 11.976C72.7141 12.912 72.1381 13.434 70.9861 13.434C69.6361 13.434 68.9161 12.66 68.8981 11.148H75.4861C75.5221 9.384 75.1261 7.98 74.2621 7.044ZM70.9681 7.53C71.6161 7.53 72.0661 7.692 72.4081 8.052C72.7321 8.394 72.8761 8.862 72.9301 9.42H68.9161C68.9701 8.934 69.1141 8.52 69.3661 8.196C69.7081 7.746 70.2301 7.53 70.9681 7.53ZM81.0026 15.216C83.3786 15.216 84.8906 13.884 85.1786 12.048L82.7306 11.796C82.4966 12.768 81.9566 13.344 81.0026 13.344C79.5266 13.344 79.1126 12.39 79.1126 10.5C79.1126 9.492 79.2386 8.718 79.5986 8.25C79.8866 7.854 80.3366 7.656 81.0026 7.656C82.1726 7.656 82.5506 8.484 82.7306 9.456L85.1246 9.042C84.7646 7.134 83.4866 5.784 81.0026 5.784C78.0506 5.784 76.3766 7.728 76.3766 10.5C76.3766 13.452 78.0506 15.216 81.0026 15.216ZM93.9642 6.684C93.3522 6.018 92.6322 5.784 91.4622 5.784C90.2922 5.784 89.3202 6.288 88.8522 7.314V2.4H86.3502V15H88.8702V10.032C88.8702 8.268 89.8062 7.71 90.5442 7.71C91.0842 7.71 91.4082 7.764 91.7502 8.106C92.1102 8.466 92.2002 8.808 92.2002 9.654V15H94.7202V9.528C94.7202 8.286 94.6482 7.422 93.9642 6.684Z" fill="white"/>
</svg>
