<svg width="192" height="40" viewBox="0 0 192 40" fill="none" xmlns="http://www.w3.org/2000/svg">
<path d="M7.596 29V17.408C7.596 16.688 7.524 13.196 7.38 10.424H7.452C8.244 12.656 9.72 15.356 10.584 16.976L16.848 29H23.112V3.8H18V15.284C18 16.76 18.072 20.144 18.216 22.556H18.144C17.28 20.252 15.732 17.408 14.724 15.428L8.748 3.8H2.484V29H7.596ZM42.878 16.508C42.878 12.584 39.998 10.568 35.318 10.568C32.618 10.568 30.602 11.036 29.198 12.008C27.722 13.016 26.93 14.672 26.93 17.012L31.862 17.372C31.862 14.852 32.978 14.132 34.958 14.132C36.398 14.132 37.082 14.384 37.55 15.032C38.018 15.68 37.982 16.544 37.982 17.372L33.086 18.272C29.486 18.92 26.282 20.036 26.282 23.888C26.282 27.596 29.126 29.432 32.654 29.432C35.534 29.432 37.406 28.136 38.27 26.588C38.306 27.452 38.414 28.352 38.594 29H43.598V28.856C43.202 28.1 42.878 27.128 42.878 25.76V16.508ZM37.982 22.016C37.982 24.752 36.254 25.868 33.878 25.868C32.51 25.868 31.466 25.256 31.466 23.852C31.466 22.484 32.402 21.908 33.914 21.584L37.982 20.684V22.016ZM53.496 29.18C54.432 29.18 55.404 29.108 56.16 28.928L56.088 24.644C55.512 24.752 54.9 24.824 54.432 24.824C53.208 24.824 52.56 24.536 52.56 23.528V14.96H56.232V11H52.56V5.996H47.592V11H45V14.96H47.592V24.104C47.592 27.848 50.04 29.18 53.496 29.18ZM70.571 20.792C70.571 24.392 68.987 25.616 67.259 25.616C66.251 25.616 65.459 25.508 64.775 24.752C64.055 23.924 63.983 22.808 63.983 21.152V11H58.835V21.404C58.835 23.816 59.051 25.976 60.455 27.452C61.751 28.82 63.299 29.432 65.567 29.432C67.943 29.432 69.707 28.388 70.643 26.48V29H75.539V11H70.571V20.792ZM89.2645 10.604C86.3485 10.82 84.8005 12.332 84.1885 14.348V11H79.2205V29H84.2605V20.972C84.2605 16.616 86.1325 15.032 89.5165 15.032C89.8405 15.032 90.1645 15.068 90.4525 15.104L90.5605 10.568C90.2365 10.568 89.5525 10.568 89.2645 10.604ZM106.804 13.088C105.292 11.468 103.06 10.568 100.216 10.568C97.4081 10.568 95.2481 11.396 93.6641 12.944C91.9001 14.636 91.1081 17.084 91.1081 19.964C91.1081 22.988 91.9721 25.364 93.7001 27.056C95.2121 28.532 97.4441 29.432 100.252 29.432C104.896 29.432 107.92 27.416 108.964 23.384L104.068 22.952C103.708 24.824 102.556 25.868 100.252 25.868C97.5521 25.868 96.1121 24.32 96.0761 21.296H109.252C109.324 17.768 108.532 14.96 106.804 13.088ZM100.216 14.06C101.512 14.06 102.412 14.384 103.096 15.104C103.744 15.788 104.032 16.724 104.14 17.84H96.1121C96.2201 16.868 96.5081 16.04 97.0121 15.392C97.6961 14.492 98.7401 14.06 100.216 14.06ZM117.117 29V23.312H111.681V29H117.117ZM129.146 29V8.372H137.174V3.8H115.682V8.372H123.71V29H129.146ZM149.845 13.088C148.333 11.468 146.101 10.568 143.257 10.568C140.449 10.568 138.289 11.396 136.705 12.944C134.941 14.636 134.149 17.084 134.149 19.964C134.149 22.988 135.013 25.364 136.741 27.056C138.253 28.532 140.485 29.432 143.293 29.432C147.937 29.432 150.961 27.416 152.005 23.384L147.109 22.952C146.749 24.824 145.597 25.868 143.293 25.868C140.593 25.868 139.153 24.32 139.117 21.296H152.293C152.365 17.768 151.573 14.96 149.845 13.088ZM143.257 14.06C144.553 14.06 145.453 14.384 146.137 15.104C146.785 15.788 147.073 16.724 147.181 17.84H139.153C139.261 16.868 139.549 16.04 140.053 15.392C140.737 14.492 141.781 14.06 143.257 14.06ZM163.326 29.432C168.078 29.432 171.102 26.768 171.678 23.096L166.782 22.592C166.314 24.536 165.234 25.688 163.326 25.688C160.374 25.688 159.546 23.78 159.546 20C159.546 17.984 159.798 16.436 160.518 15.5C161.094 14.708 161.994 14.312 163.326 14.312C165.666 14.312 166.422 15.968 166.782 17.912L171.57 17.084C170.85 13.268 168.294 10.568 163.326 10.568C157.422 10.568 154.074 14.456 154.074 20C154.074 25.904 157.422 29.432 163.326 29.432ZM189.249 12.368C188.025 11.036 186.585 10.568 184.245 10.568C181.905 10.568 179.961 11.576 179.025 13.628V3.8H174.021V29H179.061V19.064C179.061 15.536 180.933 14.42 182.409 14.42C183.489 14.42 184.137 14.528 184.821 15.212C185.541 15.932 185.721 16.616 185.721 18.308V29H190.761V18.056C190.761 15.572 190.617 13.844 189.249 12.368Z" fill="#282828"/>
</svg>
