<svg width="200" height="200" viewBox="0 0 200 200" fill="none" xmlns="http://www.w3.org/2000/svg">
<rect width="200" height="200" fill="#E9B351"/>
<rect x="51" y="38" width="98" height="98" stroke="white" stroke-width="2"/>
<path d="M100 37L100 137" stroke="white" stroke-width="2"/>
<path d="M51 38L149 136" stroke="white" stroke-width="2"/>
<path d="M59 38L100 79" stroke="white" stroke-width="2"/>
<path d="M141 136L100 95" stroke="white" stroke-width="2"/>
<path d="M67 38L100 71" stroke="white" stroke-width="2"/>
<path d="M133 136L100 103" stroke="white" stroke-width="2"/>
<path d="M75 38L100 63" stroke="white" stroke-width="2"/>
<path d="M125 136L100 111" stroke="white" stroke-width="2"/>
<path d="M83 38L100 55" stroke="white" stroke-width="2"/>
<path d="M117 136L100 119" stroke="white" stroke-width="2"/>
<path d="M91 38L100 47" stroke="white" stroke-width="2"/>
<path d="M109 136L100 127" stroke="white" stroke-width="2"/>
<path d="M56.1375 162V156.204C56.1375 155.844 56.1015 154.098 56.0295 152.712H56.0655C56.4615 153.828 57.1995 155.178 57.6315 155.988L60.7635 162H63.8955V149.4H61.3395V155.142C61.3395 155.88 61.3755 157.572 61.4475 158.778H61.4115C60.9795 157.626 60.2055 156.204 59.7015 155.214L56.7135 149.4H53.5815V162H56.1375ZM73.7784 155.754C73.7784 153.792 72.3384 152.784 69.9984 152.784C68.6484 152.784 67.6404 153.018 66.9384 153.504C66.2004 154.008 65.8044 154.836 65.8044 156.006L68.2704 156.186C68.2704 154.926 68.8284 154.566 69.8184 154.566C70.5384 154.566 70.8804 154.692 71.1144 155.016C71.3484 155.34 71.3304 155.772 71.3304 156.186L68.8824 156.636C67.0824 156.96 65.4804 157.518 65.4804 159.444C65.4804 161.298 66.9024 162.216 68.6664 162.216C70.1064 162.216 71.0424 161.568 71.4744 160.794C71.4924 161.226 71.5464 161.676 71.6364 162H74.1384V161.928C73.9404 161.55 73.7784 161.064 73.7784 160.38V155.754ZM71.3304 158.508C71.3304 159.876 70.4664 160.434 69.2784 160.434C68.5944 160.434 68.0724 160.128 68.0724 159.426C68.0724 158.742 68.5404 158.454 69.2964 158.292L71.3304 157.842V158.508ZM79.0875 162.09C79.5555 162.09 80.0415 162.054 80.4195 161.964L80.3835 159.822C80.0955 159.876 79.7895 159.912 79.5555 159.912C78.9435 159.912 78.6195 159.768 78.6195 159.264V154.98H80.4555V153H78.6195V150.498H76.1355V153H74.8395V154.98H76.1355V159.552C76.1355 161.424 77.3595 162.09 79.0875 162.09ZM87.6249 157.896C87.6249 159.696 86.8329 160.308 85.9689 160.308C85.4649 160.308 85.0689 160.254 84.7269 159.876C84.3669 159.462 84.3309 158.904 84.3309 158.076V153H81.7569V158.202C81.7569 159.408 81.8649 160.488 82.5669 161.226C83.2149 161.91 83.9889 162.216 85.1229 162.216C86.3109 162.216 87.1929 161.694 87.6609 160.74V162H90.1089V153H87.6249V157.896ZM96.9717 152.802C95.5137 152.91 94.7397 153.666 94.4337 154.674V153H91.9497V162H94.4697V157.986C94.4697 155.808 95.4057 155.016 97.0977 155.016C97.2597 155.016 97.4217 155.034 97.5657 155.052L97.6197 152.784C97.4577 152.784 97.1157 152.784 96.9717 152.802ZM105.742 154.044C104.986 153.234 103.87 152.784 102.448 152.784C101.044 152.784 99.9635 153.198 99.1715 153.972C98.2895 154.818 97.8935 156.042 97.8935 157.482C97.8935 158.994 98.3255 160.182 99.1895 161.028C99.9455 161.766 101.062 162.216 102.466 162.216C104.788 162.216 106.3 161.208 106.822 159.192L104.374 158.976C104.194 159.912 103.618 160.434 102.466 160.434C101.116 160.434 100.396 159.66 100.378 158.148H106.966C107.002 156.384 106.606 154.98 105.742 154.044ZM102.448 154.53C103.096 154.53 103.546 154.692 103.888 155.052C104.212 155.394 104.356 155.862 104.41 156.42H100.396C100.45 155.934 100.594 155.52 100.846 155.196C101.188 154.746 101.71 154.53 102.448 154.53ZM110.898 162V159.156H108.18V162H110.898ZM116.912 162V151.686H120.926V149.4H110.18V151.686H114.194V162H116.912ZM127.262 154.044C126.506 153.234 125.39 152.784 123.968 152.784C122.564 152.784 121.484 153.198 120.692 153.972C119.81 154.818 119.414 156.042 119.414 157.482C119.414 158.994 119.846 160.182 120.71 161.028C121.466 161.766 122.582 162.216 123.986 162.216C126.308 162.216 127.82 161.208 128.342 159.192L125.894 158.976C125.714 159.912 125.138 160.434 123.986 160.434C122.636 160.434 121.916 159.66 121.898 158.148H128.486C128.522 156.384 128.126 154.98 127.262 154.044ZM123.968 154.53C124.616 154.53 125.066 154.692 125.408 155.052C125.732 155.394 125.876 155.862 125.93 156.42H121.916C121.97 155.934 122.114 155.52 122.366 155.196C122.708 154.746 123.23 154.53 123.968 154.53ZM134.003 162.216C136.379 162.216 137.891 160.884 138.179 159.048L135.731 158.796C135.497 159.768 134.957 160.344 134.003 160.344C132.527 160.344 132.113 159.39 132.113 157.5C132.113 156.492 132.239 155.718 132.599 155.25C132.887 154.854 133.337 154.656 134.003 154.656C135.173 154.656 135.551 155.484 135.731 156.456L138.125 156.042C137.765 154.134 136.487 152.784 134.003 152.784C131.051 152.784 129.377 154.728 129.377 157.5C129.377 160.452 131.051 162.216 134.003 162.216ZM146.964 153.684C146.352 153.018 145.632 152.784 144.462 152.784C143.292 152.784 142.32 153.288 141.852 154.314V149.4H139.35V162H141.87V157.032C141.87 155.268 142.806 154.71 143.544 154.71C144.084 154.71 144.408 154.764 144.75 155.106C145.11 155.466 145.2 155.808 145.2 156.654V162H147.72V156.528C147.72 155.286 147.648 154.422 146.964 153.684Z" fill="white"/>
</svg>
