<svg width="142" height="151" viewBox="0 0 142 151" fill="none" xmlns="http://www.w3.org/2000/svg">
<rect x="1" y="1" width="98" height="98" stroke="white" stroke-width="2"/>
<path d="M50 0L50 100" stroke="white" stroke-width="2"/>
<path d="M1 1L99 99" stroke="white" stroke-width="2"/>
<path d="M9 1L50 42" stroke="white" stroke-width="2"/>
<path d="M91 99L50 58" stroke="white" stroke-width="2"/>
<path d="M17 1L50 34" stroke="white" stroke-width="2"/>
<path d="M83 99L50 66" stroke="white" stroke-width="2"/>
<path d="M25 1L50 26" stroke="white" stroke-width="2"/>
<path d="M75 99L50 74" stroke="white" stroke-width="2"/>
<path d="M33 1L50 18" stroke="white" stroke-width="2"/>
<path d="M67 99L50 82" stroke="white" stroke-width="2"/>
<path d="M41 1L50 10" stroke="white" stroke-width="2"/>
<path d="M59 99L50 90" stroke="white" stroke-width="2"/>
<path d="M6.13745 125V119.204C6.13745 118.844 6.10145 117.098 6.02945 115.712H6.06545C6.46145 116.828 7.19945 118.178 7.63145 118.988L10.7635 125H13.8955V112.4H11.3395V118.142C11.3395 118.88 11.3755 120.572 11.4475 121.778H11.4115C10.9795 120.626 10.2055 119.204 9.70145 118.214L6.71345 112.4H3.58145V125H6.13745ZM23.7784 118.754C23.7784 116.792 22.3384 115.784 19.9984 115.784C18.6484 115.784 17.6404 116.018 16.9384 116.504C16.2004 117.008 15.8044 117.836 15.8044 119.006L18.2704 119.186C18.2704 117.926 18.8284 117.566 19.8184 117.566C20.5384 117.566 20.8804 117.692 21.1144 118.016C21.3484 118.34 21.3304 118.772 21.3304 119.186L18.8824 119.636C17.0824 119.96 15.4804 120.518 15.4804 122.444C15.4804 124.298 16.9024 125.216 18.6664 125.216C20.1064 125.216 21.0424 124.568 21.4744 123.794C21.4924 124.226 21.5464 124.676 21.6364 125H24.1384V124.928C23.9404 124.55 23.7784 124.064 23.7784 123.38V118.754ZM21.3304 121.508C21.3304 122.876 20.4664 123.434 19.2784 123.434C18.5944 123.434 18.0724 123.128 18.0724 122.426C18.0724 121.742 18.5404 121.454 19.2964 121.292L21.3304 120.842V121.508ZM29.0875 125.09C29.5555 125.09 30.0415 125.054 30.4195 124.964L30.3835 122.822C30.0955 122.876 29.7895 122.912 29.5555 122.912C28.9435 122.912 28.6195 122.768 28.6195 122.264V117.98H30.4555V116H28.6195V113.498H26.1355V116H24.8395V117.98H26.1355V122.552C26.1355 124.424 27.3595 125.09 29.0875 125.09ZM37.6249 120.896C37.6249 122.696 36.8329 123.308 35.9689 123.308C35.4649 123.308 35.0689 123.254 34.7269 122.876C34.3669 122.462 34.3309 121.904 34.3309 121.076V116H31.7569V121.202C31.7569 122.408 31.8649 123.488 32.5669 124.226C33.2149 124.91 33.9889 125.216 35.1229 125.216C36.3109 125.216 37.1929 124.694 37.6609 123.74V125H40.1089V116H37.6249V120.896ZM46.9717 115.802C45.5137 115.91 44.7397 116.666 44.4337 117.674V116H41.9497V125H44.4697V120.986C44.4697 118.808 45.4057 118.016 47.0977 118.016C47.2597 118.016 47.4217 118.034 47.5657 118.052L47.6197 115.784C47.4577 115.784 47.1157 115.784 46.9717 115.802ZM55.7415 117.044C54.9855 116.234 53.8695 115.784 52.4475 115.784C51.0435 115.784 49.9635 116.198 49.1715 116.972C48.2895 117.818 47.8935 119.042 47.8935 120.482C47.8935 121.994 48.3255 123.182 49.1895 124.028C49.9455 124.766 51.0615 125.216 52.4655 125.216C54.7875 125.216 56.2995 124.208 56.8215 122.192L54.3735 121.976C54.1935 122.912 53.6175 123.434 52.4655 123.434C51.1155 123.434 50.3955 122.66 50.3775 121.148H56.9655C57.0015 119.384 56.6055 117.98 55.7415 117.044ZM52.4475 117.53C53.0955 117.53 53.5455 117.692 53.8875 118.052C54.2115 118.394 54.3555 118.862 54.4095 119.42H50.3955C50.4495 118.934 50.5935 118.52 50.8455 118.196C51.1875 117.746 51.7095 117.53 52.4475 117.53ZM60.8981 125V122.156H58.1801V125H60.8981ZM66.9125 125V114.686H70.9265V112.4H60.1805V114.686H64.1945V125H66.9125ZM77.2621 117.044C76.5061 116.234 75.3901 115.784 73.9681 115.784C72.5641 115.784 71.4841 116.198 70.6921 116.972C69.8101 117.818 69.4141 119.042 69.4141 120.482C69.4141 121.994 69.8461 123.182 70.7101 124.028C71.4661 124.766 72.5821 125.216 73.9861 125.216C76.3081 125.216 77.8201 124.208 78.3421 122.192L75.8941 121.976C75.7141 122.912 75.1381 123.434 73.9861 123.434C72.6361 123.434 71.9161 122.66 71.8981 121.148H78.4861C78.5221 119.384 78.1261 117.98 77.2621 117.044ZM73.9681 117.53C74.6161 117.53 75.0661 117.692 75.4081 118.052C75.7321 118.394 75.8761 118.862 75.9301 119.42H71.9161C71.9701 118.934 72.1141 118.52 72.3661 118.196C72.7081 117.746 73.2301 117.53 73.9681 117.53ZM84.0026 125.216C86.3786 125.216 87.8906 123.884 88.1786 122.048L85.7306 121.796C85.4966 122.768 84.9566 123.344 84.0026 123.344C82.5266 123.344 82.1126 122.39 82.1126 120.5C82.1126 119.492 82.2386 118.718 82.5986 118.25C82.8866 117.854 83.3366 117.656 84.0026 117.656C85.1726 117.656 85.5506 118.484 85.7306 119.456L88.1246 119.042C87.7646 117.134 86.4866 115.784 84.0026 115.784C81.0506 115.784 79.3766 117.728 79.3766 120.5C79.3766 123.452 81.0506 125.216 84.0026 125.216ZM96.9642 116.684C96.3522 116.018 95.6322 115.784 94.4622 115.784C93.2922 115.784 92.3202 116.288 91.8522 117.314V112.4H89.3502V125H91.8702V120.032C91.8702 118.268 92.8062 117.71 93.5442 117.71C94.0842 117.71 94.4082 117.764 94.7502 118.106C95.1102 118.466 95.2002 118.808 95.2002 119.654V125H97.7202V119.528C97.7202 118.286 97.6482 117.422 96.9642 116.684Z" fill="white"/>
<path d="M7.06197 142.56L11.782 130.24H9.89397L5.18997 142.56H7.06197ZM17.8445 142V137.168H22.8685V135.52H17.8445V132.464H23.4605V130.8H15.8605V142H17.8445ZM29.6151 138.416C29.6151 140.32 28.6391 140.704 27.8871 140.704C27.4231 140.704 27.0071 140.672 26.6231 140.288C26.2391 139.888 26.2231 139.328 26.2231 138.592V134H24.2871V138.688C24.2871 139.664 24.3511 140.656 24.9751 141.312C25.5511 141.92 26.2551 142.192 27.2791 142.192C28.3831 142.192 29.1991 141.712 29.6311 140.832V142H31.4871V134H29.6151V138.416ZM39.7976 134.624C39.2536 134.064 38.5976 133.808 37.5576 133.808C36.4056 133.808 35.5416 134.24 35.1416 135.216V134H33.2536V142H35.1576V137.616C35.1576 135.68 36.1976 135.296 36.9016 135.296C37.3656 135.296 37.7496 135.328 38.1016 135.68C38.5176 136.064 38.5496 136.576 38.5496 137.312V142H40.4696V137.168C40.4696 136.208 40.4216 135.264 39.7976 134.624ZM47.7237 134.992C47.1957 134.208 46.3637 133.808 45.3237 133.808C43.1797 133.808 41.7397 135.472 41.7397 138C41.7397 140.608 43.2597 142.192 45.3557 142.192C46.4117 142.192 47.2597 141.744 47.7237 140.864V142H49.6117V130.8H47.7237V134.992ZM47.1157 140.288C46.7957 140.624 46.3637 140.8 45.7877 140.8C44.2357 140.8 43.8037 139.84 43.8037 138C43.8037 137.008 43.9477 136.272 44.3317 135.808C44.6357 135.424 45.1157 135.216 45.8197 135.216C47.3397 135.216 47.7717 136.416 47.7717 138.016C47.7717 139.04 47.5637 139.808 47.1157 140.288ZM55.3482 142.56L60.0682 130.24H58.1802L53.4762 142.56H55.3482ZM66.0347 142V135.456C66.0347 135.072 65.9867 133.552 65.9707 132.576H66.0027C66.3227 133.648 66.7227 135.024 66.8987 135.568L68.9627 142H71.1067L73.1867 135.6C73.3627 135.056 73.7147 133.856 74.0827 132.576H74.1147C74.0827 133.552 74.0507 135.024 74.0507 135.424V142H75.9387V130.8H72.8507L71.0267 136.576C70.6907 137.68 70.2907 139.12 70.0667 139.968H70.0507C69.8427 139.12 69.5067 137.952 69.0747 136.56L67.2507 130.8H64.1467V142H66.0347ZM84.5921 136.448C84.5921 134.704 83.4241 133.808 81.3601 133.808C80.2401 133.808 79.3601 134.016 78.7681 134.432C78.1601 134.848 77.8081 135.52 77.7601 136.464L79.6161 136.704C79.6321 135.584 80.1441 135.2 81.2481 135.2C81.9041 135.2 82.3041 135.344 82.5281 135.648C82.7521 135.968 82.7521 136.352 82.7521 136.88L80.3681 137.328C78.9121 137.6 77.4881 138.08 77.4881 139.792C77.4881 141.408 78.7841 142.192 80.2561 142.192C81.5681 142.192 82.4321 141.648 82.8481 140.864C82.8481 141.36 82.8961 141.696 82.9601 142H84.8641V141.936C84.7041 141.552 84.5921 141.088 84.5921 140.56V136.448ZM82.7521 138.928C82.7521 140.112 82.0161 140.8 80.6561 140.8C79.9681 140.8 79.4241 140.464 79.4241 139.776C79.4241 139.04 79.9361 138.8 80.6721 138.624L82.7521 138.176V138.928ZM92.8026 134.624C92.2586 134.064 91.6026 133.808 90.5626 133.808C89.4106 133.808 88.5466 134.24 88.1466 135.216V134H86.2586V142H88.1626V137.616C88.1626 135.68 89.2026 135.296 89.9066 135.296C90.3706 135.296 90.7546 135.328 91.1066 135.68C91.5226 136.064 91.5546 136.576 91.5546 137.312V142H93.4746V137.168C93.4746 136.208 93.4266 135.264 92.8026 134.624ZM100.713 135.056C100.201 134.272 99.4167 133.808 98.2967 133.808C96.2167 133.808 94.7447 135.424 94.7447 137.792C94.7447 140.288 96.1847 141.936 98.3447 141.936C99.4327 141.936 100.217 141.488 100.713 140.624V141.872C100.713 143.184 100.057 143.888 98.8247 143.888C97.7367 143.888 97.0647 143.536 97.0007 142.464L95.1607 142.592C95.2567 144.56 96.9047 145.28 98.7447 145.28C101.113 145.28 102.601 144.048 102.601 141.856V134H100.713V135.056ZM100.153 139.984C99.8327 140.336 99.3847 140.528 98.7767 140.528C97.2887 140.528 96.8087 139.632 96.8087 137.792C96.8087 136.88 96.9527 136.208 97.3367 135.776C97.6567 135.408 98.1367 135.216 98.8087 135.216C100.137 135.216 100.777 136.144 100.777 137.792C100.777 138.704 100.585 139.488 100.153 139.984ZM108.616 133.824C107.32 133.92 106.52 134.608 106.264 135.44V134H104.376V142H106.28V138.336C106.28 136.128 107.224 135.52 108.728 135.52C108.872 135.52 109.016 135.52 109.128 135.536L109.176 133.808C109.048 133.808 108.744 133.808 108.616 133.824ZM113.505 142.192C115.969 142.192 117.569 140.512 117.569 138C117.569 135.584 116.017 133.808 113.505 133.808C110.961 133.808 109.409 135.568 109.409 138C109.409 140.608 110.945 142.192 113.505 142.192ZM113.505 140.8C112.833 140.8 112.353 140.624 112.033 140.256C111.617 139.808 111.441 139.056 111.441 138C111.441 136.944 111.617 136.192 112.033 135.744C112.353 135.376 112.849 135.2 113.505 135.2C114.177 135.2 114.657 135.392 114.977 135.776C115.361 136.24 115.537 136.976 115.537 138C115.537 139.024 115.377 139.76 114.993 140.224C114.673 140.608 114.177 140.8 113.505 140.8ZM122.809 142L125.657 134H123.657L122.457 137.792C122.249 138.512 121.993 139.376 121.753 140.24C121.417 139.088 121.161 138.208 121.033 137.792L119.865 134H117.833L120.681 142H122.809ZM132.893 135.136C132.221 134.288 131.149 133.808 129.885 133.808C128.669 133.808 127.709 134.192 127.005 134.928C126.285 135.696 125.933 136.752 125.933 137.984C125.933 139.28 126.269 140.336 127.005 141.088C127.693 141.792 128.653 142.192 129.901 142.192C131.949 142.192 133.261 141.28 133.677 139.44L131.837 139.296C131.661 140.272 131.053 140.768 129.885 140.768C128.557 140.768 127.885 140.016 127.853 138.528H133.805C133.853 137.152 133.533 135.936 132.893 135.136ZM129.885 135.232C130.589 135.232 131.069 135.424 131.421 135.856C131.693 136.192 131.837 136.656 131.869 137.104H127.869C127.901 136.72 128.013 136.288 128.269 135.936C128.589 135.488 129.133 135.232 129.885 135.232ZM138.135 142.192C139.895 142.192 141.575 141.6 141.575 139.664C141.575 137.776 139.863 137.44 138.359 137.104C137.335 136.88 136.599 136.688 136.599 136.064C136.599 135.44 137.255 135.168 137.959 135.168C138.967 135.168 139.575 135.648 139.623 136.64L141.367 136.352C141.191 134.448 139.703 133.808 137.959 133.808C136.359 133.808 134.807 134.496 134.807 136.208C134.807 137.824 136.167 138.272 137.591 138.64C138.791 138.944 139.783 139.072 139.783 139.776C139.783 140.448 139.223 140.832 138.151 140.832C137.095 140.832 136.375 140.288 136.359 139.248L134.583 139.456C134.647 141.376 136.263 142.192 138.135 142.192Z" fill="white"/>
</svg>
