<svg width="569" height="110" viewBox="0 0 569 110" fill="none" xmlns="http://www.w3.org/2000/svg">
<path d="M124.432 101.68L138.592 64.72H132.928L118.816 101.68H124.432ZM161.58 100V85.504H176.652V80.56H161.58V71.392H178.428V66.4H155.628V100H161.58ZM199.291 89.248C199.291 94.96 196.363 96.112 194.107 96.112C192.715 96.112 191.467 96.016 190.315 94.864C189.163 93.664 189.115 91.984 189.115 89.776V76H183.307V90.064C183.307 92.992 183.499 95.968 185.371 97.936C187.099 99.76 189.211 100.576 192.283 100.576C195.595 100.576 198.043 99.136 199.339 96.496V100H204.907V76H199.291V89.248ZM232.239 77.872C230.607 76.192 228.639 75.424 225.519 75.424C222.063 75.424 219.471 76.72 218.271 79.648V76H212.607V100H218.319V86.848C218.319 81.04 221.439 79.888 223.551 79.888C224.943 79.888 226.095 79.984 227.151 81.04C228.399 82.192 228.495 83.728 228.495 85.936V100H234.255V85.504C234.255 82.624 234.111 79.792 232.239 77.872ZM258.417 78.976C256.833 76.624 254.337 75.424 251.217 75.424C244.785 75.424 240.465 80.416 240.465 88C240.465 95.824 245.025 100.576 251.313 100.576C254.481 100.576 257.025 99.232 258.417 96.592V100H264.081V66.4H258.417V78.976ZM256.593 94.864C255.633 95.872 254.337 96.4 252.609 96.4C247.953 96.4 246.657 93.52 246.657 88C246.657 85.024 247.089 82.816 248.241 81.424C249.153 80.272 250.593 79.648 252.705 79.648C257.265 79.648 258.561 83.248 258.561 88.048C258.561 91.12 257.937 93.424 256.593 94.864ZM286.091 101.68L300.251 64.72H294.587L280.475 101.68H286.091ZM322.95 100V80.368C322.95 79.216 322.806 74.656 322.758 71.728H322.854C323.814 74.944 325.014 79.072 325.542 80.704L331.734 100H338.166L344.406 80.8C344.934 79.168 345.99 75.568 347.094 71.728H347.19C347.094 74.656 346.998 79.072 346.998 80.272V100H352.662V66.4H343.398L337.926 83.728C336.918 87.04 335.718 91.36 335.046 93.904H334.998C334.374 91.36 333.366 87.856 332.07 83.68L326.598 66.4H317.286V100H322.95ZM381.022 83.344C381.022 78.112 377.518 75.424 371.326 75.424C367.966 75.424 365.326 76.048 363.55 77.296C361.726 78.544 360.67 80.56 360.526 83.392L366.094 84.112C366.142 80.752 367.678 79.6 370.99 79.6C372.958 79.6 374.158 80.032 374.83 80.944C375.502 81.904 375.502 83.056 375.502 84.64L368.35 85.984C363.982 86.8 359.71 88.24 359.71 93.376C359.71 98.224 363.598 100.576 368.014 100.576C371.95 100.576 374.542 98.944 375.79 96.592C375.79 98.08 375.934 99.088 376.126 100H381.838V99.808C381.358 98.656 381.022 97.264 381.022 95.68V83.344ZM375.502 90.784C375.502 94.336 373.294 96.4 369.214 96.4C367.15 96.4 365.518 95.392 365.518 93.328C365.518 91.12 367.054 90.4 369.262 89.872L375.502 88.528V90.784ZM408.054 77.872C406.422 76.192 404.454 75.424 401.334 75.424C397.878 75.424 395.286 76.72 394.086 79.648V76H388.422V100H394.134V86.848C394.134 81.04 397.254 79.888 399.366 79.888C400.758 79.888 401.91 79.984 402.966 81.04C404.214 82.192 404.31 83.728 404.31 85.936V100H410.07V85.504C410.07 82.624 409.926 79.792 408.054 77.872ZM434.184 79.168C432.648 76.816 430.296 75.424 426.936 75.424C420.696 75.424 416.28 80.272 416.28 87.376C416.28 94.864 420.6 99.808 427.08 99.808C430.344 99.808 432.696 98.464 434.184 95.872V99.616C434.184 103.552 432.216 105.664 428.52 105.664C425.256 105.664 423.24 104.608 423.048 101.392L417.528 101.776C417.816 107.68 422.76 109.84 428.28 109.84C435.384 109.84 439.848 106.144 439.848 99.568V76H434.184V79.168ZM432.504 93.952C431.544 95.008 430.2 95.584 428.376 95.584C423.912 95.584 422.472 92.896 422.472 87.376C422.472 84.64 422.904 82.624 424.056 81.328C425.016 80.224 426.456 79.648 428.472 79.648C432.456 79.648 434.376 82.432 434.376 87.376C434.376 90.112 433.8 92.464 432.504 93.952ZM460.294 75.472C456.406 75.76 454.006 77.824 453.238 80.32V76H447.574V100H453.286V89.008C453.286 82.384 456.118 80.56 460.63 80.56C461.062 80.56 461.494 80.56 461.83 80.608L461.974 75.424C461.59 75.424 460.678 75.424 460.294 75.472ZM477.36 100.576C484.752 100.576 489.552 95.536 489.552 88C489.552 80.752 484.896 75.424 477.36 75.424C469.728 75.424 465.072 80.704 465.072 88C465.072 95.824 469.68 100.576 477.36 100.576ZM477.36 96.4C475.344 96.4 473.904 95.872 472.944 94.768C471.696 93.424 471.168 91.168 471.168 88C471.168 84.832 471.696 82.576 472.944 81.232C473.904 80.128 475.392 79.6 477.36 79.6C479.376 79.6 480.816 80.176 481.776 81.328C482.928 82.72 483.456 84.928 483.456 88C483.456 91.072 482.976 93.28 481.824 94.672C480.864 95.824 479.376 96.4 477.36 96.4ZM507.672 100L516.216 76H510.216L506.616 87.376C505.992 89.536 505.224 92.128 504.504 94.72C503.496 91.264 502.728 88.624 502.344 87.376L498.84 76H492.744L501.288 100H507.672ZM540.325 79.408C538.309 76.864 535.093 75.424 531.301 75.424C527.653 75.424 524.773 76.576 522.661 78.784C520.501 81.088 519.445 84.256 519.445 87.952C519.445 91.84 520.453 95.008 522.661 97.264C524.725 99.376 527.605 100.576 531.349 100.576C537.493 100.576 541.429 97.84 542.677 92.32L537.157 91.888C536.629 94.816 534.805 96.304 531.301 96.304C527.317 96.304 525.301 94.048 525.205 89.584H543.061C543.205 85.456 542.245 81.808 540.325 79.408ZM531.301 79.696C533.413 79.696 534.853 80.272 535.909 81.568C536.725 82.576 537.157 83.968 537.253 85.312H525.253C525.349 84.16 525.685 82.864 526.453 81.808C527.413 80.464 529.045 79.696 531.301 79.696ZM558.451 100.576C563.731 100.576 568.771 98.8 568.771 92.992C568.771 87.328 563.635 86.32 559.123 85.312C556.051 84.64 553.843 84.064 553.843 82.192C553.843 80.32 555.811 79.504 557.923 79.504C560.947 79.504 562.771 80.944 562.915 83.92L568.147 83.056C567.619 77.344 563.155 75.424 557.923 75.424C553.123 75.424 548.467 77.488 548.467 82.624C548.467 87.472 552.547 88.816 556.819 89.92C560.419 90.832 563.395 91.216 563.395 93.328C563.395 95.344 561.715 96.496 558.499 96.496C555.331 96.496 553.171 94.864 553.123 91.744L547.795 92.368C547.987 98.128 552.835 100.576 558.451 100.576Z" fill="white"/>
<rect x="1" y="4" width="98" height="98" stroke="white" stroke-width="2"/>
<path d="M50 3L50 103" stroke="white" stroke-width="2"/>
<path d="M1 4L99 102" stroke="white" stroke-width="2"/>
<path d="M9 4L50 45" stroke="white" stroke-width="2"/>
<path d="M91 102L50 61" stroke="white" stroke-width="2"/>
<path d="M17 4L50 37" stroke="white" stroke-width="2"/>
<path d="M83 102L50 69" stroke="white" stroke-width="2"/>
<path d="M25 4L50 29" stroke="white" stroke-width="2"/>
<path d="M75 102L50 77" stroke="white" stroke-width="2"/>
<path d="M33 4L50 21" stroke="white" stroke-width="2"/>
<path d="M67 102L50 85" stroke="white" stroke-width="2"/>
<path d="M41 4L50 13" stroke="white" stroke-width="2"/>
<path d="M59 102L50 93" stroke="white" stroke-width="2"/>
<path d="M128.394 44V26.612C128.394 25.532 128.286 20.294 128.07 16.136H128.178C129.366 19.484 131.58 23.534 132.876 25.964L142.272 44H151.668V6.2H144V23.426C144 25.64 144.108 30.716 144.324 34.334H144.216C142.92 30.878 140.598 26.612 139.086 23.642L130.122 6.2H120.726V44H128.394ZM186.177 25.262C186.177 19.376 181.857 16.352 174.837 16.352C170.787 16.352 167.763 17.054 165.657 18.512C163.443 20.024 162.255 22.508 162.255 26.018L169.653 26.558C169.653 22.778 171.327 21.698 174.297 21.698C176.457 21.698 177.483 22.076 178.185 23.048C178.887 24.02 178.833 25.316 178.833 26.558L171.489 27.908C166.089 28.88 161.283 30.554 161.283 36.332C161.283 41.894 165.549 44.648 170.841 44.648C175.161 44.648 177.969 42.704 179.265 40.382C179.319 41.678 179.481 43.028 179.751 44H187.257V43.784C186.663 42.65 186.177 41.192 186.177 39.14V25.262ZM178.833 33.524C178.833 37.628 176.241 39.302 172.677 39.302C170.625 39.302 169.059 38.384 169.059 36.278C169.059 34.226 170.463 33.362 172.731 32.876L178.833 31.526V33.524ZM206.964 44.27C208.368 44.27 209.826 44.162 210.96 43.892L210.852 37.466C209.988 37.628 209.07 37.736 208.368 37.736C206.532 37.736 205.56 37.304 205.56 35.792V22.94H211.068V17H205.56V9.494H198.108V17H194.22V22.94H198.108V36.656C198.108 42.272 201.78 44.27 206.964 44.27ZM237.436 31.688C237.436 37.088 235.06 38.924 232.468 38.924C230.956 38.924 229.768 38.762 228.742 37.628C227.662 36.386 227.554 34.712 227.554 32.228V17H219.832V32.606C219.832 36.224 220.156 39.464 222.262 41.678C224.206 43.73 226.528 44.648 229.93 44.648C233.494 44.648 236.14 43.082 237.544 40.22V44H244.888V17H237.436V31.688ZM270.337 16.406C265.963 16.73 263.641 18.998 262.723 22.022V17H255.271V44H262.831V31.958C262.831 25.424 265.639 23.048 270.715 23.048C271.201 23.048 271.687 23.102 272.119 23.156L272.281 16.352C271.795 16.352 270.769 16.352 270.337 16.406ZM301.506 20.132C299.238 17.702 295.89 16.352 291.624 16.352C287.412 16.352 284.172 17.594 281.796 19.916C279.15 22.454 277.962 26.126 277.962 30.446C277.962 34.982 279.258 38.546 281.85 41.084C284.118 43.298 287.466 44.648 291.678 44.648C298.644 44.648 303.18 41.624 304.746 35.576L297.402 34.928C296.862 37.736 295.134 39.302 291.678 39.302C287.628 39.302 285.468 36.98 285.414 32.444H305.178C305.286 27.152 304.098 22.94 301.506 20.132ZM291.624 21.59C293.568 21.59 294.918 22.076 295.944 23.156C296.916 24.182 297.348 25.586 297.51 27.26H285.468C285.63 25.802 286.062 24.56 286.818 23.588C287.844 22.238 289.41 21.59 291.624 21.59ZM321.836 44V35.468H313.682V44H321.836ZM344.739 44V13.058H356.781V6.2H324.543V13.058H336.585V44H344.739ZM380.648 20.132C378.38 17.702 375.032 16.352 370.766 16.352C366.554 16.352 363.314 17.594 360.938 19.916C358.292 22.454 357.104 26.126 357.104 30.446C357.104 34.982 358.4 38.546 360.992 41.084C363.26 43.298 366.608 44.648 370.82 44.648C377.786 44.648 382.322 41.624 383.888 35.576L376.544 34.928C376.004 37.736 374.276 39.302 370.82 39.302C366.77 39.302 364.61 36.98 364.556 32.444H384.32C384.428 27.152 383.24 22.94 380.648 20.132ZM370.766 21.59C372.71 21.59 374.06 22.076 375.086 23.156C376.058 24.182 376.49 25.586 376.652 27.26H364.61C364.772 25.802 365.204 24.56 365.96 23.588C366.986 22.238 368.552 21.59 370.766 21.59ZM405.73 44.648C412.858 44.648 417.394 40.652 418.258 35.144L410.914 34.388C410.212 37.304 408.592 39.032 405.73 39.032C401.302 39.032 400.06 36.17 400.06 30.5C400.06 27.476 400.438 25.154 401.518 23.75C402.382 22.562 403.732 21.968 405.73 21.968C409.24 21.968 410.374 24.452 410.914 27.368L418.096 26.126C417.016 20.402 413.182 16.352 405.73 16.352C396.874 16.352 391.852 22.184 391.852 30.5C391.852 39.356 396.874 44.648 405.73 44.648ZM449.474 19.052C447.638 17.054 445.478 16.352 441.968 16.352C438.458 16.352 435.542 17.864 434.138 20.942V6.2H426.632V44H434.192V29.096C434.192 23.804 437 22.13 439.214 22.13C440.834 22.13 441.806 22.292 442.832 23.318C443.912 24.398 444.182 25.424 444.182 27.962V44H451.742V27.584C451.742 23.858 451.526 21.266 449.474 19.052Z" fill="white"/>
</svg>
