<svg width="416" height="105" viewBox="0 0 416 105" fill="none" xmlns="http://www.w3.org/2000/svg">
<path d="M129.556 98.19L139.586 72.01H135.574L125.578 98.19H129.556ZM152.469 97V86.732H163.145V83.23H152.469V76.736H164.403V73.2H148.253V97H152.469ZM177.481 89.384C177.481 93.43 175.407 94.246 173.809 94.246C172.823 94.246 171.939 94.178 171.123 93.362C170.307 92.512 170.273 91.322 170.273 89.758V80H166.159V89.962C166.159 92.036 166.295 94.144 167.621 95.538C168.845 96.83 170.341 97.408 172.517 97.408C174.863 97.408 176.597 96.388 177.515 94.518V97H181.459V80H177.481V89.384ZM199.119 81.326C197.963 80.136 196.569 79.592 194.359 79.592C191.911 79.592 190.075 80.51 189.225 82.584V80H185.213V97H189.259V87.684C189.259 83.57 191.469 82.754 192.965 82.754C193.951 82.754 194.767 82.822 195.515 83.57C196.399 84.386 196.467 85.474 196.467 87.038V97H200.547V86.732C200.547 84.692 200.445 82.686 199.119 81.326ZM215.962 82.108C214.84 80.442 213.072 79.592 210.862 79.592C206.306 79.592 203.246 83.128 203.246 88.5C203.246 94.042 206.476 97.408 210.93 97.408C213.174 97.408 214.976 96.456 215.962 94.586V97H219.974V73.2H215.962V82.108ZM214.67 93.362C213.99 94.076 213.072 94.45 211.848 94.45C208.55 94.45 207.632 92.41 207.632 88.5C207.632 86.392 207.938 84.828 208.754 83.842C209.4 83.026 210.42 82.584 211.916 82.584C215.146 82.584 216.064 85.134 216.064 88.534C216.064 90.71 215.622 92.342 214.67 93.362ZM232.164 98.19L242.194 72.01H238.182L228.186 98.19H232.164ZM254.873 97V83.094C254.873 82.278 254.771 79.048 254.737 76.974H254.805C255.485 79.252 256.335 82.176 256.709 83.332L261.095 97H265.651L270.071 83.4C270.445 82.244 271.193 79.694 271.975 76.974H272.043C271.975 79.048 271.907 82.176 271.907 83.026V97H275.919V73.2H269.357L265.481 85.474C264.767 87.82 263.917 90.88 263.441 92.682H263.407C262.965 90.88 262.251 88.398 261.333 85.44L257.457 73.2H250.861V97H254.873ZM294.308 85.202C294.308 81.496 291.826 79.592 287.44 79.592C285.06 79.592 283.19 80.034 281.932 80.918C280.64 81.802 279.892 83.23 279.79 85.236L283.734 85.746C283.768 83.366 284.856 82.55 287.202 82.55C288.596 82.55 289.446 82.856 289.922 83.502C290.398 84.182 290.398 84.998 290.398 86.12L285.332 87.072C282.238 87.65 279.212 88.67 279.212 92.308C279.212 95.742 281.966 97.408 285.094 97.408C287.882 97.408 289.718 96.252 290.602 94.586C290.602 95.64 290.704 96.354 290.84 97H294.886V96.864C294.546 96.048 294.308 95.062 294.308 93.94V85.202ZM290.398 90.472C290.398 92.988 288.834 94.45 285.944 94.45C284.482 94.45 283.326 93.736 283.326 92.274C283.326 90.71 284.414 90.2 285.978 89.826L290.398 88.874V90.472ZM311.755 81.326C310.599 80.136 309.205 79.592 306.995 79.592C304.547 79.592 302.711 80.51 301.861 82.584V80H297.849V97H301.895V87.684C301.895 83.57 304.105 82.754 305.601 82.754C306.587 82.754 307.403 82.822 308.151 83.57C309.035 84.386 309.103 85.474 309.103 87.038V97H313.183V86.732C313.183 84.692 313.081 82.686 311.755 81.326ZM328.564 82.244C327.476 80.578 325.81 79.592 323.43 79.592C319.01 79.592 315.882 83.026 315.882 88.058C315.882 93.362 318.942 96.864 323.532 96.864C325.844 96.864 327.51 95.912 328.564 94.076V96.728C328.564 99.516 327.17 101.012 324.552 101.012C322.24 101.012 320.812 100.264 320.676 97.986L316.766 98.258C316.97 102.44 320.472 103.97 324.382 103.97C329.414 103.97 332.576 101.352 332.576 96.694V80H328.564V82.244ZM327.374 92.716C326.694 93.464 325.742 93.872 324.45 93.872C321.288 93.872 320.268 91.968 320.268 88.058C320.268 86.12 320.574 84.692 321.39 83.774C322.07 82.992 323.09 82.584 324.518 82.584C327.34 82.584 328.7 84.556 328.7 88.058C328.7 89.996 328.292 91.662 327.374 92.716ZM345.359 79.626C342.605 79.83 340.905 81.292 340.361 83.06V80H336.349V97H340.395V89.214C340.395 84.522 342.401 83.23 345.597 83.23C345.903 83.23 346.209 83.23 346.447 83.264L346.549 79.592C346.277 79.592 345.631 79.592 345.359 79.626ZM355.747 97.408C360.983 97.408 364.383 93.838 364.383 88.5C364.383 83.366 361.085 79.592 355.747 79.592C350.341 79.592 347.043 83.332 347.043 88.5C347.043 94.042 350.307 97.408 355.747 97.408ZM355.747 94.45C354.319 94.45 353.299 94.076 352.619 93.294C351.735 92.342 351.361 90.744 351.361 88.5C351.361 86.256 351.735 84.658 352.619 83.706C353.299 82.924 354.353 82.55 355.747 82.55C357.175 82.55 358.195 82.958 358.875 83.774C359.691 84.76 360.065 86.324 360.065 88.5C360.065 90.676 359.725 92.24 358.909 93.226C358.229 94.042 357.175 94.45 355.747 94.45ZM375.518 97L381.57 80H377.32L374.77 88.058C374.328 89.588 373.784 91.424 373.274 93.26C372.56 90.812 372.016 88.942 371.744 88.058L369.262 80H364.944L370.996 97H375.518ZM396.947 82.414C395.519 80.612 393.241 79.592 390.555 79.592C387.971 79.592 385.931 80.408 384.435 81.972C382.905 83.604 382.157 85.848 382.157 88.466C382.157 91.22 382.871 93.464 384.435 95.062C385.897 96.558 387.937 97.408 390.589 97.408C394.941 97.408 397.729 95.47 398.613 91.56L394.703 91.254C394.329 93.328 393.037 94.382 390.555 94.382C387.733 94.382 386.305 92.784 386.237 89.622H398.885C398.987 86.698 398.307 84.114 396.947 82.414ZM390.555 82.618C392.051 82.618 393.071 83.026 393.819 83.944C394.397 84.658 394.703 85.644 394.771 86.596H386.271C386.339 85.78 386.577 84.862 387.121 84.114C387.801 83.162 388.957 82.618 390.555 82.618ZM408.086 97.408C411.826 97.408 415.396 96.15 415.396 92.036C415.396 88.024 411.758 87.31 408.562 86.596C406.386 86.12 404.822 85.712 404.822 84.386C404.822 83.06 406.216 82.482 407.712 82.482C409.854 82.482 411.146 83.502 411.248 85.61L414.954 84.998C414.58 80.952 411.418 79.592 407.712 79.592C404.312 79.592 401.014 81.054 401.014 84.692C401.014 88.126 403.904 89.078 406.93 89.86C409.48 90.506 411.588 90.778 411.588 92.274C411.588 93.702 410.398 94.518 408.12 94.518C405.876 94.518 404.346 93.362 404.312 91.152L400.538 91.594C400.674 95.674 404.108 97.408 408.086 97.408Z" fill="white"/>
<path d="M132.596 62V50.408C132.596 49.688 132.524 46.196 132.38 43.424H132.452C133.244 45.656 134.72 48.356 135.584 49.976L141.848 62H148.112V36.8H143V48.284C143 49.76 143.072 53.144 143.216 55.556H143.144C142.28 53.252 140.732 50.408 139.724 48.428L133.748 36.8H127.484V62H132.596ZM167.878 49.508C167.878 45.584 164.998 43.568 160.318 43.568C157.618 43.568 155.602 44.036 154.198 45.008C152.722 46.016 151.93 47.672 151.93 50.012L156.862 50.372C156.862 47.852 157.978 47.132 159.958 47.132C161.398 47.132 162.082 47.384 162.55 48.032C163.018 48.68 162.982 49.544 162.982 50.372L158.086 51.272C154.486 51.92 151.282 53.036 151.282 56.888C151.282 60.596 154.126 62.432 157.654 62.432C160.534 62.432 162.406 61.136 163.27 59.588C163.306 60.452 163.414 61.352 163.594 62H168.598V61.856C168.202 61.1 167.878 60.128 167.878 58.76V49.508ZM162.982 55.016C162.982 57.752 161.254 58.868 158.878 58.868C157.51 58.868 156.466 58.256 156.466 56.852C156.466 55.484 157.402 54.908 158.914 54.584L162.982 53.684V55.016ZM178.496 62.18C179.432 62.18 180.404 62.108 181.16 61.928L181.088 57.644C180.512 57.752 179.9 57.824 179.432 57.824C178.208 57.824 177.56 57.536 177.56 56.528V47.96H181.232V44H177.56V38.996H172.592V44H170V47.96H172.592V57.104C172.592 60.848 175.04 62.18 178.496 62.18ZM195.571 53.792C195.571 57.392 193.987 58.616 192.259 58.616C191.251 58.616 190.459 58.508 189.775 57.752C189.055 56.924 188.983 55.808 188.983 54.152V44H183.835V54.404C183.835 56.816 184.051 58.976 185.455 60.452C186.751 61.82 188.299 62.432 190.567 62.432C192.943 62.432 194.707 61.388 195.643 59.48V62H200.539V44H195.571V53.792ZM214.265 43.604C211.349 43.82 209.801 45.332 209.189 47.348V44H204.221V62H209.261V53.972C209.261 49.616 211.133 48.032 214.517 48.032C214.841 48.032 215.165 48.068 215.453 48.104L215.561 43.568C215.237 43.568 214.553 43.568 214.265 43.604ZM231.804 46.088C230.292 44.468 228.06 43.568 225.216 43.568C222.408 43.568 220.248 44.396 218.664 45.944C216.9 47.636 216.108 50.084 216.108 52.964C216.108 55.988 216.972 58.364 218.7 60.056C220.212 61.532 222.444 62.432 225.252 62.432C229.896 62.432 232.92 60.416 233.964 56.384L229.068 55.952C228.708 57.824 227.556 58.868 225.252 58.868C222.552 58.868 221.112 57.32 221.076 54.296H234.252C234.324 50.768 233.532 47.96 231.804 46.088ZM225.216 47.06C226.512 47.06 227.412 47.384 228.096 48.104C228.744 48.788 229.032 49.724 229.14 50.84H221.112C221.22 49.868 221.508 49.04 222.012 48.392C222.696 47.492 223.74 47.06 225.216 47.06ZM242.117 62V56.312H236.681V62H242.117ZM254.146 62V41.372H262.174V36.8H240.682V41.372H248.71V62H254.146ZM274.845 46.088C273.333 44.468 271.101 43.568 268.257 43.568C265.449 43.568 263.289 44.396 261.705 45.944C259.941 47.636 259.149 50.084 259.149 52.964C259.149 55.988 260.013 58.364 261.741 60.056C263.253 61.532 265.485 62.432 268.293 62.432C272.937 62.432 275.961 60.416 277.005 56.384L272.109 55.952C271.749 57.824 270.597 58.868 268.293 58.868C265.593 58.868 264.153 57.32 264.117 54.296H277.293C277.365 50.768 276.573 47.96 274.845 46.088ZM268.257 47.06C269.553 47.06 270.453 47.384 271.137 48.104C271.785 48.788 272.073 49.724 272.181 50.84H264.153C264.261 49.868 264.549 49.04 265.053 48.392C265.737 47.492 266.781 47.06 268.257 47.06ZM288.326 62.432C293.078 62.432 296.102 59.768 296.678 56.096L291.782 55.592C291.314 57.536 290.234 58.688 288.326 58.688C285.374 58.688 284.546 56.78 284.546 53C284.546 50.984 284.798 49.436 285.518 48.5C286.094 47.708 286.994 47.312 288.326 47.312C290.666 47.312 291.422 48.968 291.782 50.912L296.57 50.084C295.85 46.268 293.294 43.568 288.326 43.568C282.422 43.568 279.074 47.456 279.074 53C279.074 58.904 282.422 62.432 288.326 62.432ZM314.249 45.368C313.025 44.036 311.585 43.568 309.245 43.568C306.905 43.568 304.961 44.576 304.025 46.628V36.8H299.021V62H304.061V52.064C304.061 48.536 305.933 47.42 307.409 47.42C308.489 47.42 309.137 47.528 309.821 48.212C310.541 48.932 310.721 49.616 310.721 51.308V62H315.761V51.056C315.761 48.572 315.617 46.844 314.249 45.368Z" fill="white"/>
<rect x="1" y="1" width="98" height="98" stroke="white" stroke-width="2"/>
<path d="M50 0L50 100" stroke="white" stroke-width="2"/>
<path d="M1 1L99 99" stroke="white" stroke-width="2"/>
<path d="M9 1L50 42" stroke="white" stroke-width="2"/>
<path d="M91 99L50 58" stroke="white" stroke-width="2"/>
<path d="M17 1L50 34" stroke="white" stroke-width="2"/>
<path d="M83 99L50 66" stroke="white" stroke-width="2"/>
<path d="M25 1L50 26" stroke="white" stroke-width="2"/>
<path d="M75 99L50 74" stroke="white" stroke-width="2"/>
<path d="M33 1L50 18" stroke="white" stroke-width="2"/>
<path d="M67 99L50 82" stroke="white" stroke-width="2"/>
<path d="M41 1L50 10" stroke="white" stroke-width="2"/>
<path d="M59 99L50 90" stroke="white" stroke-width="2"/>
</svg>
