<svg width="617" height="100" viewBox="0 0 617 100" fill="none" xmlns="http://www.w3.org/2000/svg">
<path d="M330.556 62.835L340.586 36.655H336.574L326.578 62.835H330.556ZM353.469 61.645V51.377H364.145V47.875H353.469V41.381H365.403V37.845H349.253V61.645H353.469ZM378.481 54.029C378.481 58.075 376.407 58.891 374.809 58.891C373.823 58.891 372.939 58.823 372.123 58.007C371.307 57.157 371.273 55.967 371.273 54.403V44.645H367.159V54.607C367.159 56.681 367.295 58.789 368.621 60.183C369.845 61.475 371.341 62.053 373.517 62.053C375.863 62.053 377.597 61.033 378.515 59.163V61.645H382.459V44.645H378.481V54.029ZM400.119 45.971C398.963 44.781 397.569 44.237 395.359 44.237C392.911 44.237 391.075 45.155 390.225 47.229V44.645H386.213V61.645H390.259V52.329C390.259 48.215 392.469 47.399 393.965 47.399C394.951 47.399 395.767 47.467 396.515 48.215C397.399 49.031 397.467 50.119 397.467 51.683V61.645H401.547V51.377C401.547 49.337 401.445 47.331 400.119 45.971ZM416.962 46.753C415.84 45.087 414.072 44.237 411.862 44.237C407.306 44.237 404.246 47.773 404.246 53.145C404.246 58.687 407.476 62.053 411.93 62.053C414.174 62.053 415.976 61.101 416.962 59.231V61.645H420.974V37.845H416.962V46.753ZM415.67 58.007C414.99 58.721 414.072 59.095 412.848 59.095C409.55 59.095 408.632 57.055 408.632 53.145C408.632 51.037 408.938 49.473 409.754 48.487C410.4 47.671 411.42 47.229 412.916 47.229C416.146 47.229 417.064 49.779 417.064 53.179C417.064 55.355 416.622 56.987 415.67 58.007ZM433.164 62.835L443.194 36.655H439.182L429.186 62.835H433.164ZM455.873 61.645V47.739C455.873 46.923 455.771 43.693 455.737 41.619H455.805C456.485 43.897 457.335 46.821 457.709 47.977L462.095 61.645H466.651L471.071 48.045C471.445 46.889 472.193 44.339 472.975 41.619H473.043C472.975 43.693 472.907 46.821 472.907 47.671V61.645H476.919V37.845H470.357L466.481 50.119C465.767 52.465 464.917 55.525 464.441 57.327H464.407C463.965 55.525 463.251 53.043 462.333 50.085L458.457 37.845H451.861V61.645H455.873ZM495.308 49.847C495.308 46.141 492.826 44.237 488.44 44.237C486.06 44.237 484.19 44.679 482.932 45.563C481.64 46.447 480.892 47.875 480.79 49.881L484.734 50.391C484.768 48.011 485.856 47.195 488.202 47.195C489.596 47.195 490.446 47.501 490.922 48.147C491.398 48.827 491.398 49.643 491.398 50.765L486.332 51.717C483.238 52.295 480.212 53.315 480.212 56.953C480.212 60.387 482.966 62.053 486.094 62.053C488.882 62.053 490.718 60.897 491.602 59.231C491.602 60.285 491.704 60.999 491.84 61.645H495.886V61.509C495.546 60.693 495.308 59.707 495.308 58.585V49.847ZM491.398 55.117C491.398 57.633 489.834 59.095 486.944 59.095C485.482 59.095 484.326 58.381 484.326 56.919C484.326 55.355 485.414 54.845 486.978 54.471L491.398 53.519V55.117ZM512.755 45.971C511.599 44.781 510.205 44.237 507.995 44.237C505.547 44.237 503.711 45.155 502.861 47.229V44.645H498.849V61.645H502.895V52.329C502.895 48.215 505.105 47.399 506.601 47.399C507.587 47.399 508.403 47.467 509.151 48.215C510.035 49.031 510.103 50.119 510.103 51.683V61.645H514.183V51.377C514.183 49.337 514.081 47.331 512.755 45.971ZM529.564 46.889C528.476 45.223 526.81 44.237 524.43 44.237C520.01 44.237 516.882 47.671 516.882 52.703C516.882 58.007 519.942 61.509 524.532 61.509C526.844 61.509 528.51 60.557 529.564 58.721V61.373C529.564 64.161 528.17 65.657 525.552 65.657C523.24 65.657 521.812 64.909 521.676 62.631L517.766 62.903C517.97 67.085 521.472 68.615 525.382 68.615C530.414 68.615 533.576 65.997 533.576 61.339V44.645H529.564V46.889ZM528.374 57.361C527.694 58.109 526.742 58.517 525.45 58.517C522.288 58.517 521.268 56.613 521.268 52.703C521.268 50.765 521.574 49.337 522.39 48.419C523.07 47.637 524.09 47.229 525.518 47.229C528.34 47.229 529.7 49.201 529.7 52.703C529.7 54.641 529.292 56.307 528.374 57.361ZM546.359 44.271C543.605 44.475 541.905 45.937 541.361 47.705V44.645H537.349V61.645H541.395V53.859C541.395 49.167 543.401 47.875 546.597 47.875C546.903 47.875 547.209 47.875 547.447 47.909L547.549 44.237C547.277 44.237 546.631 44.237 546.359 44.271ZM556.747 62.053C561.983 62.053 565.383 58.483 565.383 53.145C565.383 48.011 562.085 44.237 556.747 44.237C551.341 44.237 548.043 47.977 548.043 53.145C548.043 58.687 551.307 62.053 556.747 62.053ZM556.747 59.095C555.319 59.095 554.299 58.721 553.619 57.939C552.735 56.987 552.361 55.389 552.361 53.145C552.361 50.901 552.735 49.303 553.619 48.351C554.299 47.569 555.353 47.195 556.747 47.195C558.175 47.195 559.195 47.603 559.875 48.419C560.691 49.405 561.065 50.969 561.065 53.145C561.065 55.321 560.725 56.885 559.909 57.871C559.229 58.687 558.175 59.095 556.747 59.095ZM576.518 61.645L582.57 44.645H578.32L575.77 52.703C575.328 54.233 574.784 56.069 574.274 57.905C573.56 55.457 573.016 53.587 572.744 52.703L570.262 44.645H565.944L571.996 61.645H576.518ZM597.947 47.059C596.519 45.257 594.241 44.237 591.555 44.237C588.971 44.237 586.931 45.053 585.435 46.617C583.905 48.249 583.157 50.493 583.157 53.111C583.157 55.865 583.871 58.109 585.435 59.707C586.897 61.203 588.937 62.053 591.589 62.053C595.941 62.053 598.729 60.115 599.613 56.205L595.703 55.899C595.329 57.973 594.037 59.027 591.555 59.027C588.733 59.027 587.305 57.429 587.237 54.267H599.885C599.987 51.343 599.307 48.759 597.947 47.059ZM591.555 47.263C593.051 47.263 594.071 47.671 594.819 48.589C595.397 49.303 595.703 50.289 595.771 51.241H587.271C587.339 50.425 587.577 49.507 588.121 48.759C588.801 47.807 589.957 47.263 591.555 47.263ZM609.086 62.053C612.826 62.053 616.396 60.795 616.396 56.681C616.396 52.669 612.758 51.955 609.562 51.241C607.386 50.765 605.822 50.357 605.822 49.031C605.822 47.705 607.216 47.127 608.712 47.127C610.854 47.127 612.146 48.147 612.248 50.255L615.954 49.643C615.58 45.597 612.418 44.237 608.712 44.237C605.312 44.237 602.014 45.699 602.014 49.337C602.014 52.771 604.904 53.723 607.93 54.505C610.48 55.151 612.588 55.423 612.588 56.919C612.588 58.347 611.398 59.163 609.12 59.163C606.876 59.163 605.346 58.007 605.312 55.797L601.538 56.239C601.674 60.319 605.108 62.053 609.086 62.053Z" fill="white"/>
<path d="M132.596 62V50.408C132.596 49.688 132.524 46.196 132.38 43.424H132.452C133.244 45.656 134.72 48.356 135.584 49.976L141.848 62H148.112V36.8H143V48.284C143 49.76 143.072 53.144 143.216 55.556H143.144C142.28 53.252 140.732 50.408 139.724 48.428L133.748 36.8H127.484V62H132.596ZM167.878 49.508C167.878 45.584 164.998 43.568 160.318 43.568C157.618 43.568 155.602 44.036 154.198 45.008C152.722 46.016 151.93 47.672 151.93 50.012L156.862 50.372C156.862 47.852 157.978 47.132 159.958 47.132C161.398 47.132 162.082 47.384 162.55 48.032C163.018 48.68 162.982 49.544 162.982 50.372L158.086 51.272C154.486 51.92 151.282 53.036 151.282 56.888C151.282 60.596 154.126 62.432 157.654 62.432C160.534 62.432 162.406 61.136 163.27 59.588C163.306 60.452 163.414 61.352 163.594 62H168.598V61.856C168.202 61.1 167.878 60.128 167.878 58.76V49.508ZM162.982 55.016C162.982 57.752 161.254 58.868 158.878 58.868C157.51 58.868 156.466 58.256 156.466 56.852C156.466 55.484 157.402 54.908 158.914 54.584L162.982 53.684V55.016ZM178.496 62.18C179.432 62.18 180.404 62.108 181.16 61.928L181.088 57.644C180.512 57.752 179.9 57.824 179.432 57.824C178.208 57.824 177.56 57.536 177.56 56.528V47.96H181.232V44H177.56V38.996H172.592V44H170V47.96H172.592V57.104C172.592 60.848 175.04 62.18 178.496 62.18ZM195.571 53.792C195.571 57.392 193.987 58.616 192.259 58.616C191.251 58.616 190.459 58.508 189.775 57.752C189.055 56.924 188.983 55.808 188.983 54.152V44H183.835V54.404C183.835 56.816 184.051 58.976 185.455 60.452C186.751 61.82 188.299 62.432 190.567 62.432C192.943 62.432 194.707 61.388 195.643 59.48V62H200.539V44H195.571V53.792ZM214.265 43.604C211.349 43.82 209.801 45.332 209.189 47.348V44H204.221V62H209.261V53.972C209.261 49.616 211.133 48.032 214.517 48.032C214.841 48.032 215.165 48.068 215.453 48.104L215.561 43.568C215.237 43.568 214.553 43.568 214.265 43.604ZM231.804 46.088C230.292 44.468 228.06 43.568 225.216 43.568C222.408 43.568 220.248 44.396 218.664 45.944C216.9 47.636 216.108 50.084 216.108 52.964C216.108 55.988 216.972 58.364 218.7 60.056C220.212 61.532 222.444 62.432 225.252 62.432C229.896 62.432 232.92 60.416 233.964 56.384L229.068 55.952C228.708 57.824 227.556 58.868 225.252 58.868C222.552 58.868 221.112 57.32 221.076 54.296H234.252C234.324 50.768 233.532 47.96 231.804 46.088ZM225.216 47.06C226.512 47.06 227.412 47.384 228.096 48.104C228.744 48.788 229.032 49.724 229.14 50.84H221.112C221.22 49.868 221.508 49.04 222.012 48.392C222.696 47.492 223.74 47.06 225.216 47.06ZM242.117 62V56.312H236.681V62H242.117ZM254.146 62V41.372H262.174V36.8H240.682V41.372H248.71V62H254.146ZM274.845 46.088C273.333 44.468 271.101 43.568 268.257 43.568C265.449 43.568 263.289 44.396 261.705 45.944C259.941 47.636 259.149 50.084 259.149 52.964C259.149 55.988 260.013 58.364 261.741 60.056C263.253 61.532 265.485 62.432 268.293 62.432C272.937 62.432 275.961 60.416 277.005 56.384L272.109 55.952C271.749 57.824 270.597 58.868 268.293 58.868C265.593 58.868 264.153 57.32 264.117 54.296H277.293C277.365 50.768 276.573 47.96 274.845 46.088ZM268.257 47.06C269.553 47.06 270.453 47.384 271.137 48.104C271.785 48.788 272.073 49.724 272.181 50.84H264.153C264.261 49.868 264.549 49.04 265.053 48.392C265.737 47.492 266.781 47.06 268.257 47.06ZM288.326 62.432C293.078 62.432 296.102 59.768 296.678 56.096L291.782 55.592C291.314 57.536 290.234 58.688 288.326 58.688C285.374 58.688 284.546 56.78 284.546 53C284.546 50.984 284.798 49.436 285.518 48.5C286.094 47.708 286.994 47.312 288.326 47.312C290.666 47.312 291.422 48.968 291.782 50.912L296.57 50.084C295.85 46.268 293.294 43.568 288.326 43.568C282.422 43.568 279.074 47.456 279.074 53C279.074 58.904 282.422 62.432 288.326 62.432ZM314.249 45.368C313.025 44.036 311.585 43.568 309.245 43.568C306.905 43.568 304.961 44.576 304.025 46.628V36.8H299.021V62H304.061V52.064C304.061 48.536 305.933 47.42 307.409 47.42C308.489 47.42 309.137 47.528 309.821 48.212C310.541 48.932 310.721 49.616 310.721 51.308V62H315.761V51.056C315.761 48.572 315.617 46.844 314.249 45.368Z" fill="white"/>
<rect x="1" y="1" width="98" height="98" stroke="white" stroke-width="2"/>
<path d="M50 0L50 100" stroke="white" stroke-width="2"/>
<path d="M1 1L99 99" stroke="white" stroke-width="2"/>
<path d="M9 1L50 42" stroke="white" stroke-width="2"/>
<path d="M91 99L50 58" stroke="white" stroke-width="2"/>
<path d="M17 1L50 34" stroke="white" stroke-width="2"/>
<path d="M83 99L50 66" stroke="white" stroke-width="2"/>
<path d="M25 1L50 26" stroke="white" stroke-width="2"/>
<path d="M75 99L50 74" stroke="white" stroke-width="2"/>
<path d="M33 1L50 18" stroke="white" stroke-width="2"/>
<path d="M67 99L50 82" stroke="white" stroke-width="2"/>
<path d="M41 1L50 10" stroke="white" stroke-width="2"/>
<path d="M59 99L50 90" stroke="white" stroke-width="2"/>
</svg>
