<svg width="452" height="108" viewBox="0 0 452 108" fill="none" xmlns="http://www.w3.org/2000/svg">
<path d="M124.432 101.68L138.592 64.72H132.928L118.816 101.68H124.432ZM161.58 100V85.504H176.652V80.56H161.58V71.392H178.428V66.4H155.628V100H161.58ZM199.291 89.248C199.291 94.96 196.363 96.112 194.107 96.112C192.715 96.112 191.467 96.016 190.315 94.864C189.163 93.664 189.115 91.984 189.115 89.776V76H183.307V90.064C183.307 92.992 183.499 95.968 185.371 97.936C187.099 99.76 189.211 100.576 192.283 100.576C195.595 100.576 198.043 99.136 199.339 96.496V100H204.907V76H199.291V89.248ZM232.239 77.872C230.607 76.192 228.639 75.424 225.519 75.424C222.063 75.424 219.471 76.72 218.271 79.648V76H212.607V100H218.319V86.848C218.319 81.04 221.439 79.888 223.551 79.888C224.943 79.888 226.095 79.984 227.151 81.04C228.399 82.192 228.495 83.728 228.495 85.936V100H234.255V85.504C234.255 82.624 234.111 79.792 232.239 77.872ZM258.417 78.976C256.833 76.624 254.337 75.424 251.217 75.424C244.785 75.424 240.465 80.416 240.465 88C240.465 95.824 245.025 100.576 251.313 100.576C254.481 100.576 257.025 99.232 258.417 96.592V100H264.081V66.4H258.417V78.976ZM256.593 94.864C255.633 95.872 254.337 96.4 252.609 96.4C247.953 96.4 246.657 93.52 246.657 88C246.657 85.024 247.089 82.816 248.241 81.424C249.153 80.272 250.593 79.648 252.705 79.648C257.265 79.648 258.561 83.248 258.561 88.048C258.561 91.12 257.937 93.424 256.593 94.864Z" fill="white"/>
<rect x="1" y="4" width="98" height="98" stroke="white" stroke-width="2"/>
<path d="M50 3L50 103" stroke="white" stroke-width="2"/>
<path d="M1 4L99 102" stroke="white" stroke-width="2"/>
<path d="M9 4L50 45" stroke="white" stroke-width="2"/>
<path d="M91 102L50 61" stroke="white" stroke-width="2"/>
<path d="M17 4L50 37" stroke="white" stroke-width="2"/>
<path d="M83 102L50 69" stroke="white" stroke-width="2"/>
<path d="M25 4L50 29" stroke="white" stroke-width="2"/>
<path d="M75 102L50 77" stroke="white" stroke-width="2"/>
<path d="M33 4L50 21" stroke="white" stroke-width="2"/>
<path d="M67 102L50 85" stroke="white" stroke-width="2"/>
<path d="M41 4L50 13" stroke="white" stroke-width="2"/>
<path d="M59 102L50 93" stroke="white" stroke-width="2"/>
<path d="M128.394 44V26.612C128.394 25.532 128.286 20.294 128.07 16.136H128.178C129.366 19.484 131.58 23.534 132.876 25.964L142.272 44H151.668V6.2H144V23.426C144 25.64 144.108 30.716 144.324 34.334H144.216C142.92 30.878 140.598 26.612 139.086 23.642L130.122 6.2H120.726V44H128.394ZM186.177 25.262C186.177 19.376 181.857 16.352 174.837 16.352C170.787 16.352 167.763 17.054 165.657 18.512C163.443 20.024 162.255 22.508 162.255 26.018L169.653 26.558C169.653 22.778 171.327 21.698 174.297 21.698C176.457 21.698 177.483 22.076 178.185 23.048C178.887 24.02 178.833 25.316 178.833 26.558L171.489 27.908C166.089 28.88 161.283 30.554 161.283 36.332C161.283 41.894 165.549 44.648 170.841 44.648C175.161 44.648 177.969 42.704 179.265 40.382C179.319 41.678 179.481 43.028 179.751 44H187.257V43.784C186.663 42.65 186.177 41.192 186.177 39.14V25.262ZM178.833 33.524C178.833 37.628 176.241 39.302 172.677 39.302C170.625 39.302 169.059 38.384 169.059 36.278C169.059 34.226 170.463 33.362 172.731 32.876L178.833 31.526V33.524ZM206.964 44.27C208.368 44.27 209.826 44.162 210.96 43.892L210.852 37.466C209.988 37.628 209.07 37.736 208.368 37.736C206.532 37.736 205.56 37.304 205.56 35.792V22.94H211.068V17H205.56V9.494H198.108V17H194.22V22.94H198.108V36.656C198.108 42.272 201.78 44.27 206.964 44.27ZM237.436 31.688C237.436 37.088 235.06 38.924 232.468 38.924C230.956 38.924 229.768 38.762 228.742 37.628C227.662 36.386 227.554 34.712 227.554 32.228V17H219.832V32.606C219.832 36.224 220.156 39.464 222.262 41.678C224.206 43.73 226.528 44.648 229.93 44.648C233.494 44.648 236.14 43.082 237.544 40.22V44H244.888V17H237.436V31.688ZM270.337 16.406C265.963 16.73 263.641 18.998 262.723 22.022V17H255.271V44H262.831V31.958C262.831 25.424 265.639 23.048 270.715 23.048C271.201 23.048 271.687 23.102 272.119 23.156L272.281 16.352C271.795 16.352 270.769 16.352 270.337 16.406ZM301.506 20.132C299.238 17.702 295.89 16.352 291.624 16.352C287.412 16.352 284.172 17.594 281.796 19.916C279.15 22.454 277.962 26.126 277.962 30.446C277.962 34.982 279.258 38.546 281.85 41.084C284.118 43.298 287.466 44.648 291.678 44.648C298.644 44.648 303.18 41.624 304.746 35.576L297.402 34.928C296.862 37.736 295.134 39.302 291.678 39.302C287.628 39.302 285.468 36.98 285.414 32.444H305.178C305.286 27.152 304.098 22.94 301.506 20.132ZM291.624 21.59C293.568 21.59 294.918 22.076 295.944 23.156C296.916 24.182 297.348 25.586 297.51 27.26H285.468C285.63 25.802 286.062 24.56 286.818 23.588C287.844 22.238 289.41 21.59 291.624 21.59ZM321.836 44V35.468H313.682V44H321.836ZM344.739 44V13.058H356.781V6.2H324.543V13.058H336.585V44H344.739ZM380.648 20.132C378.38 17.702 375.032 16.352 370.766 16.352C366.554 16.352 363.314 17.594 360.938 19.916C358.292 22.454 357.104 26.126 357.104 30.446C357.104 34.982 358.4 38.546 360.992 41.084C363.26 43.298 366.608 44.648 370.82 44.648C377.786 44.648 382.322 41.624 383.888 35.576L376.544 34.928C376.004 37.736 374.276 39.302 370.82 39.302C366.77 39.302 364.61 36.98 364.556 32.444H384.32C384.428 27.152 383.24 22.94 380.648 20.132ZM370.766 21.59C372.71 21.59 374.06 22.076 375.086 23.156C376.058 24.182 376.49 25.586 376.652 27.26H364.61C364.772 25.802 365.204 24.56 365.96 23.588C366.986 22.238 368.552 21.59 370.766 21.59ZM405.73 44.648C412.858 44.648 417.394 40.652 418.258 35.144L410.914 34.388C410.212 37.304 408.592 39.032 405.73 39.032C401.302 39.032 400.06 36.17 400.06 30.5C400.06 27.476 400.438 25.154 401.518 23.75C402.382 22.562 403.732 21.968 405.73 21.968C409.24 21.968 410.374 24.452 410.914 27.368L418.096 26.126C417.016 20.402 413.182 16.352 405.73 16.352C396.874 16.352 391.852 22.184 391.852 30.5C391.852 39.356 396.874 44.648 405.73 44.648ZM449.474 19.052C447.638 17.054 445.478 16.352 441.968 16.352C438.458 16.352 435.542 17.864 434.138 20.942V6.2H426.632V44H434.192V29.096C434.192 23.804 437 22.13 439.214 22.13C440.834 22.13 441.806 22.292 442.832 23.318C443.912 24.398 444.182 25.424 444.182 27.962V44H451.742V27.584C451.742 23.858 451.526 21.266 449.474 19.052Z" fill="white"/>
</svg>
