<svg width="100" height="151" viewBox="0 0 100 151" fill="none" xmlns="http://www.w3.org/2000/svg">
<rect x="1" y="1" width="98" height="98" stroke="white" stroke-width="2"/>
<path d="M50 0L50 100" stroke="white" stroke-width="2"/>
<path d="M1 1L99 99" stroke="white" stroke-width="2"/>
<path d="M9 1L50 42" stroke="white" stroke-width="2"/>
<path d="M91 99L50 58" stroke="white" stroke-width="2"/>
<path d="M17 1L50 34" stroke="white" stroke-width="2"/>
<path d="M83 99L50 66" stroke="white" stroke-width="2"/>
<path d="M25 1L50 26" stroke="white" stroke-width="2"/>
<path d="M75 99L50 74" stroke="white" stroke-width="2"/>
<path d="M33 1L50 18" stroke="white" stroke-width="2"/>
<path d="M67 99L50 82" stroke="white" stroke-width="2"/>
<path d="M41 1L50 10" stroke="white" stroke-width="2"/>
<path d="M59 99L50 90" stroke="white" stroke-width="2"/>
<path d="M6.13745 125V119.204C6.13745 118.844 6.10145 117.098 6.02945 115.712H6.06545C6.46145 116.828 7.19945 118.178 7.63145 118.988L10.7635 125H13.8955V112.4H11.3395V118.142C11.3395 118.88 11.3755 120.572 11.4475 121.778H11.4115C10.9795 120.626 10.2055 119.204 9.70145 118.214L6.71345 112.4H3.58145V125H6.13745ZM23.7784 118.754C23.7784 116.792 22.3384 115.784 19.9984 115.784C18.6484 115.784 17.6404 116.018 16.9384 116.504C16.2004 117.008 15.8044 117.836 15.8044 119.006L18.2704 119.186C18.2704 117.926 18.8284 117.566 19.8184 117.566C20.5384 117.566 20.8804 117.692 21.1144 118.016C21.3484 118.34 21.3304 118.772 21.3304 119.186L18.8824 119.636C17.0824 119.96 15.4804 120.518 15.4804 122.444C15.4804 124.298 16.9024 125.216 18.6664 125.216C20.1064 125.216 21.0424 124.568 21.4744 123.794C21.4924 124.226 21.5464 124.676 21.6364 125H24.1384V124.928C23.9404 124.55 23.7784 124.064 23.7784 123.38V118.754ZM21.3304 121.508C21.3304 122.876 20.4664 123.434 19.2784 123.434C18.5944 123.434 18.0724 123.128 18.0724 122.426C18.0724 121.742 18.5404 121.454 19.2964 121.292L21.3304 120.842V121.508ZM29.0875 125.09C29.5555 125.09 30.0415 125.054 30.4195 124.964L30.3835 122.822C30.0955 122.876 29.7895 122.912 29.5555 122.912C28.9435 122.912 28.6195 122.768 28.6195 122.264V117.98H30.4555V116H28.6195V113.498H26.1355V116H24.8395V117.98H26.1355V122.552C26.1355 124.424 27.3595 125.09 29.0875 125.09ZM37.6249 120.896C37.6249 122.696 36.8329 123.308 35.9689 123.308C35.4649 123.308 35.0689 123.254 34.7269 122.876C34.3669 122.462 34.3309 121.904 34.3309 121.076V116H31.7569V121.202C31.7569 122.408 31.8649 123.488 32.5669 124.226C33.2149 124.91 33.9889 125.216 35.1229 125.216C36.3109 125.216 37.1929 124.694 37.6609 123.74V125H40.1089V116H37.6249V120.896ZM46.9717 115.802C45.5137 115.91 44.7397 116.666 44.4337 117.674V116H41.9497V125H44.4697V120.986C44.4697 118.808 45.4057 118.016 47.0977 118.016C47.2597 118.016 47.4217 118.034 47.5657 118.052L47.6197 115.784C47.4577 115.784 47.1157 115.784 46.9717 115.802ZM55.7415 117.044C54.9855 116.234 53.8695 115.784 52.4475 115.784C51.0435 115.784 49.9635 116.198 49.1715 116.972C48.2895 117.818 47.8935 119.042 47.8935 120.482C47.8935 121.994 48.3255 123.182 49.1895 124.028C49.9455 124.766 51.0615 125.216 52.4655 125.216C54.7875 125.216 56.2995 124.208 56.8215 122.192L54.3735 121.976C54.1935 122.912 53.6175 123.434 52.4655 123.434C51.1155 123.434 50.3955 122.66 50.3775 121.148H56.9655C57.0015 119.384 56.6055 117.98 55.7415 117.044ZM52.4475 117.53C53.0955 117.53 53.5455 117.692 53.8875 118.052C54.2115 118.394 54.3555 118.862 54.4095 119.42H50.3955C50.4495 118.934 50.5935 118.52 50.8455 118.196C51.1875 117.746 51.7095 117.53 52.4475 117.53ZM60.8981 125V122.156H58.1801V125H60.8981ZM66.9125 125V114.686H70.9265V112.4H60.1805V114.686H64.1945V125H66.9125ZM77.2621 117.044C76.5061 116.234 75.3901 115.784 73.9681 115.784C72.5641 115.784 71.4841 116.198 70.6921 116.972C69.8101 117.818 69.4141 119.042 69.4141 120.482C69.4141 121.994 69.8461 123.182 70.7101 124.028C71.4661 124.766 72.5821 125.216 73.9861 125.216C76.3081 125.216 77.8201 124.208 78.3421 122.192L75.8941 121.976C75.7141 122.912 75.1381 123.434 73.9861 123.434C72.6361 123.434 71.9161 122.66 71.8981 121.148H78.4861C78.5221 119.384 78.1261 117.98 77.2621 117.044ZM73.9681 117.53C74.6161 117.53 75.0661 117.692 75.4081 118.052C75.7321 118.394 75.8761 118.862 75.9301 119.42H71.9161C71.9701 118.934 72.1141 118.52 72.3661 118.196C72.7081 117.746 73.2301 117.53 73.9681 117.53ZM84.0026 125.216C86.3786 125.216 87.8906 123.884 88.1786 122.048L85.7306 121.796C85.4966 122.768 84.9566 123.344 84.0026 123.344C82.5266 123.344 82.1126 122.39 82.1126 120.5C82.1126 119.492 82.2386 118.718 82.5986 118.25C82.8866 117.854 83.3366 117.656 84.0026 117.656C85.1726 117.656 85.5506 118.484 85.7306 119.456L88.1246 119.042C87.7646 117.134 86.4866 115.784 84.0026 115.784C81.0506 115.784 79.3766 117.728 79.3766 120.5C79.3766 123.452 81.0506 125.216 84.0026 125.216ZM96.9642 116.684C96.3522 116.018 95.6322 115.784 94.4622 115.784C93.2922 115.784 92.3202 116.288 91.8522 117.314V112.4H89.3502V125H91.8702V120.032C91.8702 118.268 92.8062 117.71 93.5442 117.71C94.0842 117.71 94.4082 117.764 94.7502 118.106C95.1102 118.466 95.2002 118.808 95.2002 119.654V125H97.7202V119.528C97.7202 118.286 97.6482 117.422 96.9642 116.684Z" fill="white"/>
<path d="M7.06209 142.56L11.7821 130.24H9.89409L5.19009 142.56H7.06209ZM19.8766 142.192C22.1966 142.192 24.5166 141.44 24.5166 138.736C24.5166 136.336 22.6286 135.728 20.2766 135.344C18.7246 135.088 17.4766 134.768 17.4766 133.744C17.4766 132.688 18.4846 132.208 19.6206 132.208C21.1406 132.208 22.0526 132.976 22.1166 134.528L24.1486 134.176C23.8926 131.536 22.0206 130.608 19.6366 130.608C17.6206 130.608 15.4446 131.456 15.4446 133.84C15.4446 135.984 17.2526 136.72 19.2846 137.168C20.9646 137.536 22.4686 137.488 22.4686 138.816C22.4686 140.128 21.3166 140.576 19.8926 140.576C18.3406 140.576 17.2046 139.744 17.2046 138.096L15.1406 138.32C15.1726 140.976 17.3646 142.192 19.8766 142.192ZM28.7483 142.08C29.1003 142.08 29.5003 142.048 29.8043 141.984L29.7723 140.336C29.5003 140.384 29.2283 140.416 29.0363 140.416C28.4603 140.416 28.2043 140.304 28.2043 139.824V135.52H29.8363V134H28.2043V131.776H26.3323V134H25.1803V135.52H26.3323V139.984C26.3323 141.488 27.2283 142.08 28.7483 142.08ZM36.3146 138.416C36.3146 140.32 35.3386 140.704 34.5866 140.704C34.1226 140.704 33.7066 140.672 33.3226 140.288C32.9386 139.888 32.9226 139.328 32.9226 138.592V134H30.9866V138.688C30.9866 139.664 31.0506 140.656 31.6746 141.312C32.2506 141.92 32.9546 142.192 33.9786 142.192C35.0826 142.192 35.8986 141.712 36.3306 140.832V142H38.1866V134H36.3146V138.416ZM45.5051 134.992C44.9771 134.208 44.1451 133.808 43.1051 133.808C40.9611 133.808 39.5211 135.472 39.5211 138C39.5211 140.608 41.0411 142.192 43.1371 142.192C44.1931 142.192 45.0411 141.744 45.5051 140.864V142H47.3931V130.8H45.5051V134.992ZM44.8971 140.288C44.5771 140.624 44.1451 140.8 43.5691 140.8C42.0171 140.8 41.5851 139.84 41.5851 138C41.5851 137.008 41.7291 136.272 42.1131 135.808C42.4171 135.424 42.8971 135.216 43.6011 135.216C45.1211 135.216 45.5531 136.416 45.5531 138.016C45.5531 139.04 45.3451 139.808 44.8971 140.288ZM51.0721 132.752V130.704H49.1681V132.752H51.0721ZM51.0721 142V134H49.1681V142H51.0721ZM56.4842 142.192C58.9482 142.192 60.5482 140.512 60.5482 138C60.5482 135.584 58.9962 133.808 56.4842 133.808C53.9402 133.808 52.3882 135.568 52.3882 138C52.3882 140.608 53.9242 142.192 56.4842 142.192ZM56.4842 140.8C55.8122 140.8 55.3322 140.624 55.0122 140.256C54.5962 139.808 54.4202 139.056 54.4202 138C54.4202 136.944 54.5962 136.192 55.0122 135.744C55.3322 135.376 55.8282 135.2 56.4842 135.2C57.1562 135.2 57.6362 135.392 57.9562 135.776C58.3402 136.24 58.5162 136.976 58.5162 138C58.5162 139.024 58.3562 139.76 57.9722 140.224C57.6522 140.608 57.1562 140.8 56.4842 140.8ZM64.8877 142.192C66.6477 142.192 68.3277 141.6 68.3277 139.664C68.3277 137.776 66.6157 137.44 65.1117 137.104C64.0877 136.88 63.3517 136.688 63.3517 136.064C63.3517 135.44 64.0077 135.168 64.7117 135.168C65.7197 135.168 66.3277 135.648 66.3757 136.64L68.1197 136.352C67.9437 134.448 66.4557 133.808 64.7117 133.808C63.1117 133.808 61.5597 134.496 61.5597 136.208C61.5597 137.824 62.9197 138.272 64.3437 138.64C65.5437 138.944 66.5357 139.072 66.5357 139.776C66.5357 140.448 65.9757 140.832 64.9037 140.832C63.8477 140.832 63.1277 140.288 63.1117 139.248L61.3357 139.456C61.3997 141.376 63.0157 142.192 64.8877 142.192Z" fill="white"/>
</svg>
