<svg width="317" height="105" viewBox="0 0 317 105" fill="none" xmlns="http://www.w3.org/2000/svg">
<path d="M129.556 98.19L139.586 72.01H135.574L125.578 98.19H129.556ZM156.787 97.408C161.717 97.408 166.647 95.81 166.647 90.064C166.647 84.964 162.635 83.672 157.637 82.856C154.339 82.312 151.687 81.632 151.687 79.456C151.687 77.212 153.829 76.192 156.243 76.192C159.473 76.192 161.411 77.824 161.547 81.122L165.865 80.374C165.321 74.764 161.343 72.792 156.277 72.792C151.993 72.792 147.369 74.594 147.369 79.66C147.369 84.216 151.211 85.78 155.529 86.732C159.099 87.514 162.295 87.412 162.295 90.234C162.295 93.022 159.847 93.974 156.821 93.974C153.523 93.974 151.109 92.206 151.109 88.704L146.723 89.18C146.791 94.824 151.449 97.408 156.787 97.408ZM175.639 97.17C176.387 97.17 177.237 97.102 177.883 96.966L177.815 93.464C177.237 93.566 176.659 93.634 176.251 93.634C175.027 93.634 174.483 93.396 174.483 92.376V83.23H177.951V80H174.483V75.274H170.505V80H168.057V83.23H170.505V92.716C170.505 95.912 172.409 97.17 175.639 97.17ZM191.718 89.384C191.718 93.43 189.644 94.246 188.046 94.246C187.06 94.246 186.176 94.178 185.36 93.362C184.544 92.512 184.51 91.322 184.51 89.758V80H180.396V89.962C180.396 92.036 180.532 94.144 181.858 95.538C183.082 96.83 184.578 97.408 186.754 97.408C189.1 97.408 190.834 96.388 191.752 94.518V97H195.696V80H191.718V89.384ZM211.247 82.108C210.125 80.442 208.357 79.592 206.147 79.592C201.591 79.592 198.531 83.128 198.531 88.5C198.531 94.042 201.761 97.408 206.215 97.408C208.459 97.408 210.261 96.456 211.247 94.586V97H215.259V73.2H211.247V82.108ZM209.955 93.362C209.275 94.076 208.357 94.45 207.133 94.45C203.835 94.45 202.917 92.41 202.917 88.5C202.917 86.392 203.223 84.828 204.039 83.842C204.685 83.026 205.705 82.584 207.201 82.584C210.431 82.584 211.349 85.134 211.349 88.534C211.349 90.71 210.907 92.342 209.955 93.362ZM223.077 77.348V72.996H219.031V77.348H223.077ZM223.077 97V80H219.031V97H223.077ZM234.578 97.408C239.814 97.408 243.214 93.838 243.214 88.5C243.214 83.366 239.916 79.592 234.578 79.592C229.172 79.592 225.874 83.332 225.874 88.5C225.874 94.042 229.138 97.408 234.578 97.408ZM234.578 94.45C233.15 94.45 232.13 94.076 231.45 93.294C230.566 92.342 230.192 90.744 230.192 88.5C230.192 86.256 230.566 84.658 231.45 83.706C232.13 82.924 233.184 82.55 234.578 82.55C236.006 82.55 237.026 82.958 237.706 83.774C238.522 84.76 238.896 86.324 238.896 88.5C238.896 90.676 238.556 92.24 237.74 93.226C237.06 94.042 236.006 94.45 234.578 94.45Z" fill="white"/>
<path d="M132.596 62V50.408C132.596 49.688 132.524 46.196 132.38 43.424H132.452C133.244 45.656 134.72 48.356 135.584 49.976L141.848 62H148.112V36.8H143V48.284C143 49.76 143.072 53.144 143.216 55.556H143.144C142.28 53.252 140.732 50.408 139.724 48.428L133.748 36.8H127.484V62H132.596ZM167.878 49.508C167.878 45.584 164.998 43.568 160.318 43.568C157.618 43.568 155.602 44.036 154.198 45.008C152.722 46.016 151.93 47.672 151.93 50.012L156.862 50.372C156.862 47.852 157.978 47.132 159.958 47.132C161.398 47.132 162.082 47.384 162.55 48.032C163.018 48.68 162.982 49.544 162.982 50.372L158.086 51.272C154.486 51.92 151.282 53.036 151.282 56.888C151.282 60.596 154.126 62.432 157.654 62.432C160.534 62.432 162.406 61.136 163.27 59.588C163.306 60.452 163.414 61.352 163.594 62H168.598V61.856C168.202 61.1 167.878 60.128 167.878 58.76V49.508ZM162.982 55.016C162.982 57.752 161.254 58.868 158.878 58.868C157.51 58.868 156.466 58.256 156.466 56.852C156.466 55.484 157.402 54.908 158.914 54.584L162.982 53.684V55.016ZM178.496 62.18C179.432 62.18 180.404 62.108 181.16 61.928L181.088 57.644C180.512 57.752 179.9 57.824 179.432 57.824C178.208 57.824 177.56 57.536 177.56 56.528V47.96H181.232V44H177.56V38.996H172.592V44H170V47.96H172.592V57.104C172.592 60.848 175.04 62.18 178.496 62.18ZM195.571 53.792C195.571 57.392 193.987 58.616 192.259 58.616C191.251 58.616 190.459 58.508 189.775 57.752C189.055 56.924 188.983 55.808 188.983 54.152V44H183.835V54.404C183.835 56.816 184.051 58.976 185.455 60.452C186.751 61.82 188.299 62.432 190.567 62.432C192.943 62.432 194.707 61.388 195.643 59.48V62H200.539V44H195.571V53.792ZM214.265 43.604C211.349 43.82 209.801 45.332 209.189 47.348V44H204.221V62H209.261V53.972C209.261 49.616 211.133 48.032 214.517 48.032C214.841 48.032 215.165 48.068 215.453 48.104L215.561 43.568C215.237 43.568 214.553 43.568 214.265 43.604ZM231.804 46.088C230.292 44.468 228.06 43.568 225.216 43.568C222.408 43.568 220.248 44.396 218.664 45.944C216.9 47.636 216.108 50.084 216.108 52.964C216.108 55.988 216.972 58.364 218.7 60.056C220.212 61.532 222.444 62.432 225.252 62.432C229.896 62.432 232.92 60.416 233.964 56.384L229.068 55.952C228.708 57.824 227.556 58.868 225.252 58.868C222.552 58.868 221.112 57.32 221.076 54.296H234.252C234.324 50.768 233.532 47.96 231.804 46.088ZM225.216 47.06C226.512 47.06 227.412 47.384 228.096 48.104C228.744 48.788 229.032 49.724 229.14 50.84H221.112C221.22 49.868 221.508 49.04 222.012 48.392C222.696 47.492 223.74 47.06 225.216 47.06ZM242.117 62V56.312H236.681V62H242.117ZM254.146 62V41.372H262.174V36.8H240.682V41.372H248.71V62H254.146ZM274.845 46.088C273.333 44.468 271.101 43.568 268.257 43.568C265.449 43.568 263.289 44.396 261.705 45.944C259.941 47.636 259.149 50.084 259.149 52.964C259.149 55.988 260.013 58.364 261.741 60.056C263.253 61.532 265.485 62.432 268.293 62.432C272.937 62.432 275.961 60.416 277.005 56.384L272.109 55.952C271.749 57.824 270.597 58.868 268.293 58.868C265.593 58.868 264.153 57.32 264.117 54.296H277.293C277.365 50.768 276.573 47.96 274.845 46.088ZM268.257 47.06C269.553 47.06 270.453 47.384 271.137 48.104C271.785 48.788 272.073 49.724 272.181 50.84H264.153C264.261 49.868 264.549 49.04 265.053 48.392C265.737 47.492 266.781 47.06 268.257 47.06ZM288.326 62.432C293.078 62.432 296.102 59.768 296.678 56.096L291.782 55.592C291.314 57.536 290.234 58.688 288.326 58.688C285.374 58.688 284.546 56.78 284.546 53C284.546 50.984 284.798 49.436 285.518 48.5C286.094 47.708 286.994 47.312 288.326 47.312C290.666 47.312 291.422 48.968 291.782 50.912L296.57 50.084C295.85 46.268 293.294 43.568 288.326 43.568C282.422 43.568 279.074 47.456 279.074 53C279.074 58.904 282.422 62.432 288.326 62.432ZM314.249 45.368C313.025 44.036 311.585 43.568 309.245 43.568C306.905 43.568 304.961 44.576 304.025 46.628V36.8H299.021V62H304.061V52.064C304.061 48.536 305.933 47.42 307.409 47.42C308.489 47.42 309.137 47.528 309.821 48.212C310.541 48.932 310.721 49.616 310.721 51.308V62H315.761V51.056C315.761 48.572 315.617 46.844 314.249 45.368Z" fill="white"/>
<rect x="1" y="1" width="98" height="98" stroke="white" stroke-width="2"/>
<path d="M50 0L50 100" stroke="white" stroke-width="2"/>
<path d="M1 1L99 99" stroke="white" stroke-width="2"/>
<path d="M9 1L50 42" stroke="white" stroke-width="2"/>
<path d="M91 99L50 58" stroke="white" stroke-width="2"/>
<path d="M17 1L50 34" stroke="white" stroke-width="2"/>
<path d="M83 99L50 66" stroke="white" stroke-width="2"/>
<path d="M25 1L50 26" stroke="white" stroke-width="2"/>
<path d="M75 99L50 74" stroke="white" stroke-width="2"/>
<path d="M33 1L50 18" stroke="white" stroke-width="2"/>
<path d="M67 99L50 82" stroke="white" stroke-width="2"/>
<path d="M41 1L50 10" stroke="white" stroke-width="2"/>
<path d="M59 99L50 90" stroke="white" stroke-width="2"/>
</svg>
