<svg width="452" height="108" viewBox="0 0 452 108" fill="none" xmlns="http://www.w3.org/2000/svg">
<path d="M124.432 101.68L138.592 64.72H132.928L118.816 101.68H124.432ZM167.676 100.576C174.636 100.576 181.596 98.32 181.596 90.208C181.596 83.008 175.932 81.184 168.876 80.032C164.22 79.264 160.476 78.304 160.476 75.232C160.476 72.064 163.5 70.624 166.908 70.624C171.468 70.624 174.204 72.928 174.396 77.584L180.492 76.528C179.724 68.608 174.108 65.824 166.956 65.824C160.908 65.824 154.38 68.368 154.38 75.52C154.38 81.952 159.804 84.16 165.9 85.504C170.94 86.608 175.452 86.464 175.452 90.448C175.452 94.384 171.996 95.728 167.724 95.728C163.068 95.728 159.66 93.232 159.66 88.288L153.468 88.96C153.564 96.928 160.14 100.576 167.676 100.576ZM196.691 100.24C197.747 100.24 198.947 100.144 199.859 99.952L199.763 95.008C198.947 95.152 198.131 95.248 197.555 95.248C195.827 95.248 195.059 94.912 195.059 93.472V80.56H199.955V76H195.059V69.328H189.443V76H185.987V80.56H189.443V93.952C189.443 98.464 192.131 100.24 196.691 100.24ZM221.79 89.248C221.79 94.96 218.862 96.112 216.606 96.112C215.214 96.112 213.966 96.016 212.814 94.864C211.662 93.664 211.614 91.984 211.614 89.776V76H205.806V90.064C205.806 92.992 205.998 95.968 207.87 97.936C209.598 99.76 211.71 100.576 214.782 100.576C218.094 100.576 220.542 99.136 221.838 96.496V100H227.406V76H221.79V89.248ZM251.761 78.976C250.177 76.624 247.681 75.424 244.561 75.424C238.129 75.424 233.809 80.416 233.809 88C233.809 95.824 238.369 100.576 244.657 100.576C247.825 100.576 250.369 99.232 251.761 96.592V100H257.425V66.4H251.761V78.976ZM249.937 94.864C248.977 95.872 247.681 96.4 245.953 96.4C241.297 96.4 240.001 93.52 240.001 88C240.001 85.024 240.433 82.816 241.585 81.424C242.497 80.272 243.937 79.648 246.049 79.648C250.609 79.648 251.905 83.248 251.905 88.048C251.905 91.12 251.281 93.424 249.937 94.864ZM270.862 72.256V66.112H265.15V72.256H270.862ZM270.862 100V76H265.15V100H270.862ZM289.498 100.576C296.89 100.576 301.69 95.536 301.69 88C301.69 80.752 297.034 75.424 289.498 75.424C281.866 75.424 277.21 80.704 277.21 88C277.21 95.824 281.818 100.576 289.498 100.576ZM289.498 96.4C287.482 96.4 286.042 95.872 285.082 94.768C283.834 93.424 283.306 91.168 283.306 88C283.306 84.832 283.834 82.576 285.082 81.232C286.042 80.128 287.53 79.6 289.498 79.6C291.514 79.6 292.954 80.176 293.914 81.328C295.066 82.72 295.594 84.928 295.594 88C295.594 91.072 295.114 93.28 293.962 94.672C293.002 95.824 291.514 96.4 289.498 96.4ZM317.109 100.576C322.389 100.576 327.429 98.8 327.429 92.992C327.429 87.328 322.293 86.32 317.781 85.312C314.709 84.64 312.501 84.064 312.501 82.192C312.501 80.32 314.469 79.504 316.581 79.504C319.605 79.504 321.429 80.944 321.573 83.92L326.805 83.056C326.277 77.344 321.813 75.424 316.581 75.424C311.781 75.424 307.125 77.488 307.125 82.624C307.125 87.472 311.205 88.816 315.477 89.92C319.077 90.832 322.053 91.216 322.053 93.328C322.053 95.344 320.373 96.496 317.157 96.496C313.989 96.496 311.829 94.864 311.781 91.744L306.453 92.368C306.645 98.128 311.493 100.576 317.109 100.576Z" fill="white"/>
<rect x="1" y="4" width="98" height="98" stroke="white" stroke-width="2"/>
<path d="M50 3L50 103" stroke="white" stroke-width="2"/>
<path d="M1 4L99 102" stroke="white" stroke-width="2"/>
<path d="M9 4L50 45" stroke="white" stroke-width="2"/>
<path d="M91 102L50 61" stroke="white" stroke-width="2"/>
<path d="M17 4L50 37" stroke="white" stroke-width="2"/>
<path d="M83 102L50 69" stroke="white" stroke-width="2"/>
<path d="M25 4L50 29" stroke="white" stroke-width="2"/>
<path d="M75 102L50 77" stroke="white" stroke-width="2"/>
<path d="M33 4L50 21" stroke="white" stroke-width="2"/>
<path d="M67 102L50 85" stroke="white" stroke-width="2"/>
<path d="M41 4L50 13" stroke="white" stroke-width="2"/>
<path d="M59 102L50 93" stroke="white" stroke-width="2"/>
<path d="M128.394 44V26.612C128.394 25.532 128.286 20.294 128.07 16.136H128.178C129.366 19.484 131.58 23.534 132.876 25.964L142.272 44H151.668V6.2H144V23.426C144 25.64 144.108 30.716 144.324 34.334H144.216C142.92 30.878 140.598 26.612 139.086 23.642L130.122 6.2H120.726V44H128.394ZM186.177 25.262C186.177 19.376 181.857 16.352 174.837 16.352C170.787 16.352 167.763 17.054 165.657 18.512C163.443 20.024 162.255 22.508 162.255 26.018L169.653 26.558C169.653 22.778 171.327 21.698 174.297 21.698C176.457 21.698 177.483 22.076 178.185 23.048C178.887 24.02 178.833 25.316 178.833 26.558L171.489 27.908C166.089 28.88 161.283 30.554 161.283 36.332C161.283 41.894 165.549 44.648 170.841 44.648C175.161 44.648 177.969 42.704 179.265 40.382C179.319 41.678 179.481 43.028 179.751 44H187.257V43.784C186.663 42.65 186.177 41.192 186.177 39.14V25.262ZM178.833 33.524C178.833 37.628 176.241 39.302 172.677 39.302C170.625 39.302 169.059 38.384 169.059 36.278C169.059 34.226 170.463 33.362 172.731 32.876L178.833 31.526V33.524ZM206.964 44.27C208.368 44.27 209.826 44.162 210.96 43.892L210.852 37.466C209.988 37.628 209.07 37.736 208.368 37.736C206.532 37.736 205.56 37.304 205.56 35.792V22.94H211.068V17H205.56V9.494H198.108V17H194.22V22.94H198.108V36.656C198.108 42.272 201.78 44.27 206.964 44.27ZM237.436 31.688C237.436 37.088 235.06 38.924 232.468 38.924C230.956 38.924 229.768 38.762 228.742 37.628C227.662 36.386 227.554 34.712 227.554 32.228V17H219.832V32.606C219.832 36.224 220.156 39.464 222.262 41.678C224.206 43.73 226.528 44.648 229.93 44.648C233.494 44.648 236.14 43.082 237.544 40.22V44H244.888V17H237.436V31.688ZM270.337 16.406C265.963 16.73 263.641 18.998 262.723 22.022V17H255.271V44H262.831V31.958C262.831 25.424 265.639 23.048 270.715 23.048C271.201 23.048 271.687 23.102 272.119 23.156L272.281 16.352C271.795 16.352 270.769 16.352 270.337 16.406ZM301.506 20.132C299.238 17.702 295.89 16.352 291.624 16.352C287.412 16.352 284.172 17.594 281.796 19.916C279.15 22.454 277.962 26.126 277.962 30.446C277.962 34.982 279.258 38.546 281.85 41.084C284.118 43.298 287.466 44.648 291.678 44.648C298.644 44.648 303.18 41.624 304.746 35.576L297.402 34.928C296.862 37.736 295.134 39.302 291.678 39.302C287.628 39.302 285.468 36.98 285.414 32.444H305.178C305.286 27.152 304.098 22.94 301.506 20.132ZM291.624 21.59C293.568 21.59 294.918 22.076 295.944 23.156C296.916 24.182 297.348 25.586 297.51 27.26H285.468C285.63 25.802 286.062 24.56 286.818 23.588C287.844 22.238 289.41 21.59 291.624 21.59ZM321.836 44V35.468H313.682V44H321.836ZM344.739 44V13.058H356.781V6.2H324.543V13.058H336.585V44H344.739ZM380.648 20.132C378.38 17.702 375.032 16.352 370.766 16.352C366.554 16.352 363.314 17.594 360.938 19.916C358.292 22.454 357.104 26.126 357.104 30.446C357.104 34.982 358.4 38.546 360.992 41.084C363.26 43.298 366.608 44.648 370.82 44.648C377.786 44.648 382.322 41.624 383.888 35.576L376.544 34.928C376.004 37.736 374.276 39.302 370.82 39.302C366.77 39.302 364.61 36.98 364.556 32.444H384.32C384.428 27.152 383.24 22.94 380.648 20.132ZM370.766 21.59C372.71 21.59 374.06 22.076 375.086 23.156C376.058 24.182 376.49 25.586 376.652 27.26H364.61C364.772 25.802 365.204 24.56 365.96 23.588C366.986 22.238 368.552 21.59 370.766 21.59ZM405.73 44.648C412.858 44.648 417.394 40.652 418.258 35.144L410.914 34.388C410.212 37.304 408.592 39.032 405.73 39.032C401.302 39.032 400.06 36.17 400.06 30.5C400.06 27.476 400.438 25.154 401.518 23.75C402.382 22.562 403.732 21.968 405.73 21.968C409.24 21.968 410.374 24.452 410.914 27.368L418.096 26.126C417.016 20.402 413.182 16.352 405.73 16.352C396.874 16.352 391.852 22.184 391.852 30.5C391.852 39.356 396.874 44.648 405.73 44.648ZM449.474 19.052C447.638 17.054 445.478 16.352 441.968 16.352C438.458 16.352 435.542 17.864 434.138 20.942V6.2H426.632V44H434.192V29.096C434.192 23.804 437 22.13 439.214 22.13C440.834 22.13 441.806 22.292 442.832 23.318C443.912 24.398 444.182 25.424 444.182 27.962V44H451.742V27.584C451.742 23.858 451.526 21.266 449.474 19.052Z" fill="white"/>
</svg>
