<svg width="800" height="200" viewBox="0 0 800 200" fill="none" xmlns="http://www.w3.org/2000/svg">
<rect width="800" height="200" fill="#FAF3EE"/>
<path d="M182.596 112V100.408C182.596 99.688 182.524 96.196 182.38 93.424H182.452C183.244 95.656 184.72 98.356 185.584 99.976L191.848 112H198.112V86.8H193V98.284C193 99.76 193.072 103.144 193.216 105.556H193.144C192.28 103.252 190.732 100.408 189.724 98.428L183.748 86.8H177.484V112H182.596ZM217.878 99.508C217.878 95.584 214.998 93.568 210.318 93.568C207.618 93.568 205.602 94.036 204.198 95.008C202.722 96.016 201.93 97.672 201.93 100.012L206.862 100.372C206.862 97.852 207.978 97.132 209.958 97.132C211.398 97.132 212.082 97.384 212.55 98.032C213.018 98.68 212.982 99.544 212.982 100.372L208.086 101.272C204.486 101.92 201.282 103.036 201.282 106.888C201.282 110.596 204.126 112.432 207.654 112.432C210.534 112.432 212.406 111.136 213.27 109.588C213.306 110.452 213.414 111.352 213.594 112H218.598V111.856C218.202 111.1 217.878 110.128 217.878 108.76V99.508ZM212.982 105.016C212.982 107.752 211.254 108.868 208.878 108.868C207.51 108.868 206.466 108.256 206.466 106.852C206.466 105.484 207.402 104.908 208.914 104.584L212.982 103.684V105.016ZM228.496 112.18C229.432 112.18 230.404 112.108 231.16 111.928L231.088 107.644C230.512 107.752 229.9 107.824 229.432 107.824C228.208 107.824 227.56 107.536 227.56 106.528V97.96H231.232V94H227.56V88.996H222.592V94H220V97.96H222.592V107.104C222.592 110.848 225.04 112.18 228.496 112.18ZM245.571 103.792C245.571 107.392 243.987 108.616 242.259 108.616C241.251 108.616 240.459 108.508 239.775 107.752C239.055 106.924 238.983 105.808 238.983 104.152V94H233.835V104.404C233.835 106.816 234.051 108.976 235.455 110.452C236.751 111.82 238.299 112.432 240.567 112.432C242.943 112.432 244.707 111.388 245.643 109.48V112H250.539V94H245.571V103.792ZM264.265 93.604C261.349 93.82 259.801 95.332 259.189 97.348V94H254.221V112H259.261V103.972C259.261 99.616 261.133 98.032 264.517 98.032C264.841 98.032 265.165 98.068 265.453 98.104L265.561 93.568C265.237 93.568 264.553 93.568 264.265 93.604ZM281.804 96.088C280.292 94.468 278.06 93.568 275.216 93.568C272.408 93.568 270.248 94.396 268.664 95.944C266.9 97.636 266.108 100.084 266.108 102.964C266.108 105.988 266.972 108.364 268.7 110.056C270.212 111.532 272.444 112.432 275.252 112.432C279.896 112.432 282.92 110.416 283.964 106.384L279.068 105.952C278.708 107.824 277.556 108.868 275.252 108.868C272.552 108.868 271.112 107.32 271.076 104.296H284.252C284.324 100.768 283.532 97.96 281.804 96.088ZM275.216 97.06C276.512 97.06 277.412 97.384 278.096 98.104C278.744 98.788 279.032 99.724 279.14 100.84H271.112C271.22 99.868 271.508 99.04 272.012 98.392C272.696 97.492 273.74 97.06 275.216 97.06ZM292.117 112V106.312H286.681V112H292.117ZM304.146 112V91.372H312.174V86.8H290.682V91.372H298.71V112H304.146ZM324.845 96.088C323.333 94.468 321.101 93.568 318.257 93.568C315.449 93.568 313.289 94.396 311.705 95.944C309.941 97.636 309.149 100.084 309.149 102.964C309.149 105.988 310.013 108.364 311.741 110.056C313.253 111.532 315.485 112.432 318.293 112.432C322.937 112.432 325.961 110.416 327.005 106.384L322.109 105.952C321.749 107.824 320.597 108.868 318.293 108.868C315.593 108.868 314.153 107.32 314.117 104.296H327.293C327.365 100.768 326.573 97.96 324.845 96.088ZM318.257 97.06C319.553 97.06 320.453 97.384 321.137 98.104C321.785 98.788 322.073 99.724 322.181 100.84H314.153C314.261 99.868 314.549 99.04 315.053 98.392C315.737 97.492 316.781 97.06 318.257 97.06ZM338.326 112.432C343.078 112.432 346.102 109.768 346.678 106.096L341.782 105.592C341.314 107.536 340.234 108.688 338.326 108.688C335.374 108.688 334.546 106.78 334.546 103C334.546 100.984 334.798 99.436 335.518 98.5C336.094 97.708 336.994 97.312 338.326 97.312C340.666 97.312 341.422 98.968 341.782 100.912L346.57 100.084C345.85 96.268 343.294 93.568 338.326 93.568C332.422 93.568 329.074 97.456 329.074 103C329.074 108.904 332.422 112.432 338.326 112.432ZM364.249 95.368C363.025 94.036 361.585 93.568 359.245 93.568C356.905 93.568 354.961 94.576 354.025 96.628V86.8H349.021V112H354.061V102.064C354.061 98.536 355.933 97.42 357.409 97.42C358.489 97.42 359.137 97.528 359.821 98.212C360.541 98.932 360.721 99.616 360.721 101.308V112H365.761V101.056C365.761 98.572 365.617 96.844 364.249 95.368Z" fill="#282828"/>
<rect x="51" y="51" width="98" height="98" stroke="#282828" stroke-width="2"/>
<path d="M100 50L100 150" stroke="#282828" stroke-width="2"/>
<path d="M51 51L149 149" stroke="#282828" stroke-width="2"/>
<path d="M59 51L100 92" stroke="#282828" stroke-width="2"/>
<path d="M141 149L100 108" stroke="#282828" stroke-width="2"/>
<path d="M67 51L100 84" stroke="#282828" stroke-width="2"/>
<path d="M133 149L100 116" stroke="#282828" stroke-width="2"/>
<path d="M75 51L100 76" stroke="#282828" stroke-width="2"/>
<path d="M125 149L100 124" stroke="#282828" stroke-width="2"/>
<path d="M83 51L100 68" stroke="#282828" stroke-width="2"/>
<path d="M117 149L100 132" stroke="#282828" stroke-width="2"/>
<path d="M91 51L100 60" stroke="#282828" stroke-width="2"/>
<path d="M109 149L100 140" stroke="#282828" stroke-width="2"/>
</svg>
