<svg width="317" height="105" viewBox="0 0 317 105" fill="none" xmlns="http://www.w3.org/2000/svg">
<path d="M129.556 98.19L139.586 72.01H135.574L125.578 98.19H129.556ZM152.299 97V84.862C152.299 84.182 152.231 80.952 152.129 78.504H152.163C152.979 80.476 154.407 83.094 155.121 84.318L162.295 97H167.157V73.2H163.111V85.27C163.111 86.494 163.179 89.656 163.281 91.798H163.247C162.363 89.758 161.071 87.378 160.119 85.644L153.047 73.2H148.253V97H152.299ZM185.081 82.414C183.653 80.612 181.375 79.592 178.689 79.592C176.105 79.592 174.065 80.408 172.569 81.972C171.039 83.604 170.291 85.848 170.291 88.466C170.291 91.22 171.005 93.464 172.569 95.062C174.031 96.558 176.071 97.408 178.723 97.408C183.075 97.408 185.863 95.47 186.747 91.56L182.837 91.254C182.463 93.328 181.171 94.382 178.689 94.382C175.867 94.382 174.439 92.784 174.371 89.622H187.019C187.121 86.698 186.441 84.114 185.081 82.414ZM178.689 82.618C180.185 82.618 181.205 83.026 181.953 83.944C182.531 84.658 182.837 85.644 182.905 86.596H174.405C174.473 85.78 174.711 84.862 175.255 84.114C175.935 83.162 177.091 82.618 178.689 82.618ZM203.21 80H198.858L196.784 83.094L195.356 85.372C194.982 84.76 194.472 83.876 193.928 83.06L191.82 80H187.434L193.112 88.092L186.958 97H191.344L193.486 93.736C194.132 92.784 194.846 91.56 195.288 90.846C195.764 91.628 196.444 92.818 197.056 93.77L199.266 97H203.652L197.532 88.092L203.21 80ZM216.512 89.384C216.512 93.43 214.438 94.246 212.84 94.246C211.854 94.246 210.97 94.178 210.154 93.362C209.338 92.512 209.304 91.322 209.304 89.758V80H205.19V89.962C205.19 92.036 205.326 94.144 206.652 95.538C207.876 96.83 209.372 97.408 211.548 97.408C213.894 97.408 215.628 96.388 216.546 94.518V97H220.49V80H216.512V89.384ZM230.67 97.408C234.41 97.408 237.98 96.15 237.98 92.036C237.98 88.024 234.342 87.31 231.146 86.596C228.97 86.12 227.406 85.712 227.406 84.386C227.406 83.06 228.8 82.482 230.296 82.482C232.438 82.482 233.73 83.502 233.832 85.61L237.538 84.998C237.164 80.952 234.002 79.592 230.296 79.592C226.896 79.592 223.598 81.054 223.598 84.692C223.598 88.126 226.488 89.078 229.514 89.86C232.064 90.506 234.172 90.778 234.172 92.274C234.172 93.702 232.982 94.518 230.704 94.518C228.46 94.518 226.93 93.362 226.896 91.152L223.122 91.594C223.258 95.674 226.692 97.408 230.67 97.408Z" fill="white"/>
<path d="M132.596 62V50.408C132.596 49.688 132.524 46.196 132.38 43.424H132.452C133.244 45.656 134.72 48.356 135.584 49.976L141.848 62H148.112V36.8H143V48.284C143 49.76 143.072 53.144 143.216 55.556H143.144C142.28 53.252 140.732 50.408 139.724 48.428L133.748 36.8H127.484V62H132.596ZM167.878 49.508C167.878 45.584 164.998 43.568 160.318 43.568C157.618 43.568 155.602 44.036 154.198 45.008C152.722 46.016 151.93 47.672 151.93 50.012L156.862 50.372C156.862 47.852 157.978 47.132 159.958 47.132C161.398 47.132 162.082 47.384 162.55 48.032C163.018 48.68 162.982 49.544 162.982 50.372L158.086 51.272C154.486 51.92 151.282 53.036 151.282 56.888C151.282 60.596 154.126 62.432 157.654 62.432C160.534 62.432 162.406 61.136 163.27 59.588C163.306 60.452 163.414 61.352 163.594 62H168.598V61.856C168.202 61.1 167.878 60.128 167.878 58.76V49.508ZM162.982 55.016C162.982 57.752 161.254 58.868 158.878 58.868C157.51 58.868 156.466 58.256 156.466 56.852C156.466 55.484 157.402 54.908 158.914 54.584L162.982 53.684V55.016ZM178.496 62.18C179.432 62.18 180.404 62.108 181.16 61.928L181.088 57.644C180.512 57.752 179.9 57.824 179.432 57.824C178.208 57.824 177.56 57.536 177.56 56.528V47.96H181.232V44H177.56V38.996H172.592V44H170V47.96H172.592V57.104C172.592 60.848 175.04 62.18 178.496 62.18ZM195.571 53.792C195.571 57.392 193.987 58.616 192.259 58.616C191.251 58.616 190.459 58.508 189.775 57.752C189.055 56.924 188.983 55.808 188.983 54.152V44H183.835V54.404C183.835 56.816 184.051 58.976 185.455 60.452C186.751 61.82 188.299 62.432 190.567 62.432C192.943 62.432 194.707 61.388 195.643 59.48V62H200.539V44H195.571V53.792ZM214.265 43.604C211.349 43.82 209.801 45.332 209.189 47.348V44H204.221V62H209.261V53.972C209.261 49.616 211.133 48.032 214.517 48.032C214.841 48.032 215.165 48.068 215.453 48.104L215.561 43.568C215.237 43.568 214.553 43.568 214.265 43.604ZM231.804 46.088C230.292 44.468 228.06 43.568 225.216 43.568C222.408 43.568 220.248 44.396 218.664 45.944C216.9 47.636 216.108 50.084 216.108 52.964C216.108 55.988 216.972 58.364 218.7 60.056C220.212 61.532 222.444 62.432 225.252 62.432C229.896 62.432 232.92 60.416 233.964 56.384L229.068 55.952C228.708 57.824 227.556 58.868 225.252 58.868C222.552 58.868 221.112 57.32 221.076 54.296H234.252C234.324 50.768 233.532 47.96 231.804 46.088ZM225.216 47.06C226.512 47.06 227.412 47.384 228.096 48.104C228.744 48.788 229.032 49.724 229.14 50.84H221.112C221.22 49.868 221.508 49.04 222.012 48.392C222.696 47.492 223.74 47.06 225.216 47.06ZM242.117 62V56.312H236.681V62H242.117ZM254.146 62V41.372H262.174V36.8H240.682V41.372H248.71V62H254.146ZM274.845 46.088C273.333 44.468 271.101 43.568 268.257 43.568C265.449 43.568 263.289 44.396 261.705 45.944C259.941 47.636 259.149 50.084 259.149 52.964C259.149 55.988 260.013 58.364 261.741 60.056C263.253 61.532 265.485 62.432 268.293 62.432C272.937 62.432 275.961 60.416 277.005 56.384L272.109 55.952C271.749 57.824 270.597 58.868 268.293 58.868C265.593 58.868 264.153 57.32 264.117 54.296H277.293C277.365 50.768 276.573 47.96 274.845 46.088ZM268.257 47.06C269.553 47.06 270.453 47.384 271.137 48.104C271.785 48.788 272.073 49.724 272.181 50.84H264.153C264.261 49.868 264.549 49.04 265.053 48.392C265.737 47.492 266.781 47.06 268.257 47.06ZM288.326 62.432C293.078 62.432 296.102 59.768 296.678 56.096L291.782 55.592C291.314 57.536 290.234 58.688 288.326 58.688C285.374 58.688 284.546 56.78 284.546 53C284.546 50.984 284.798 49.436 285.518 48.5C286.094 47.708 286.994 47.312 288.326 47.312C290.666 47.312 291.422 48.968 291.782 50.912L296.57 50.084C295.85 46.268 293.294 43.568 288.326 43.568C282.422 43.568 279.074 47.456 279.074 53C279.074 58.904 282.422 62.432 288.326 62.432ZM314.249 45.368C313.025 44.036 311.585 43.568 309.245 43.568C306.905 43.568 304.961 44.576 304.025 46.628V36.8H299.021V62H304.061V52.064C304.061 48.536 305.933 47.42 307.409 47.42C308.489 47.42 309.137 47.528 309.821 48.212C310.541 48.932 310.721 49.616 310.721 51.308V62H315.761V51.056C315.761 48.572 315.617 46.844 314.249 45.368Z" fill="white"/>
<rect x="1" y="1" width="98" height="98" stroke="white" stroke-width="2"/>
<path d="M50 0L50 100" stroke="white" stroke-width="2"/>
<path d="M1 1L99 99" stroke="white" stroke-width="2"/>
<path d="M9 1L50 42" stroke="white" stroke-width="2"/>
<path d="M91 99L50 58" stroke="white" stroke-width="2"/>
<path d="M17 1L50 34" stroke="white" stroke-width="2"/>
<path d="M83 99L50 66" stroke="white" stroke-width="2"/>
<path d="M25 1L50 26" stroke="white" stroke-width="2"/>
<path d="M75 99L50 74" stroke="white" stroke-width="2"/>
<path d="M33 1L50 18" stroke="white" stroke-width="2"/>
<path d="M67 99L50 82" stroke="white" stroke-width="2"/>
<path d="M41 1L50 10" stroke="white" stroke-width="2"/>
<path d="M59 99L50 90" stroke="white" stroke-width="2"/>
</svg>
