<svg width="121" height="36" viewBox="0 0 121 36" fill="none" xmlns="http://www.w3.org/2000/svg">
<path d="M4.556 29.19L14.586 3.01H10.574L0.578 29.19H4.556ZM27.2988 28V15.862C27.2988 15.182 27.2308 11.952 27.1288 9.504H27.1628C27.9788 11.476 29.4068 14.094 30.1208 15.318L37.2948 28H42.1568V4.2H38.1108V16.27C38.1108 17.494 38.1788 20.656 38.2808 22.798H38.2468C37.3628 20.758 36.0708 18.378 35.1188 16.644L28.0468 4.2H23.2528V28H27.2988ZM60.0815 13.414C58.6535 11.612 56.3755 10.592 53.6895 10.592C51.1055 10.592 49.0655 11.408 47.5695 12.972C46.0395 14.604 45.2915 16.848 45.2915 19.466C45.2915 22.22 46.0055 24.464 47.5695 26.062C49.0315 27.558 51.0715 28.408 53.7235 28.408C58.0755 28.408 60.8635 26.47 61.7475 22.56L57.8375 22.254C57.4635 24.328 56.1715 25.382 53.6895 25.382C50.8675 25.382 49.4395 23.784 49.3715 20.622H62.0195C62.1215 17.698 61.4415 15.114 60.0815 13.414ZM53.6895 13.618C55.1855 13.618 56.2055 14.026 56.9535 14.944C57.5315 15.658 57.8375 16.644 57.9055 17.596H49.4055C49.4735 16.78 49.7115 15.862 50.2555 15.114C50.9355 14.162 52.0915 13.618 53.6895 13.618ZM78.2096 11H73.8576L71.7836 14.094L70.3556 16.372C69.9816 15.76 69.4716 14.876 68.9276 14.06L66.8196 11H62.4336L68.1116 19.092L61.9576 28H66.3436L68.4856 24.736C69.1316 23.784 69.8456 22.56 70.2876 21.846C70.7636 22.628 71.4436 23.818 72.0556 24.77L74.2656 28H78.6516L72.5316 19.092L78.2096 11ZM91.5123 20.384C91.5123 24.43 89.4383 25.246 87.8403 25.246C86.8543 25.246 85.9703 25.178 85.1543 24.362C84.3383 23.512 84.3043 22.322 84.3043 20.758V11H80.1903V20.962C80.1903 23.036 80.3263 25.144 81.6523 26.538C82.8763 27.83 84.3723 28.408 86.5483 28.408C88.8943 28.408 90.6283 27.388 91.5463 25.518V28H95.4903V11H91.5123V20.384ZM105.67 28.408C109.41 28.408 112.98 27.15 112.98 23.036C112.98 19.024 109.342 18.31 106.146 17.596C103.97 17.12 102.406 16.712 102.406 15.386C102.406 14.06 103.8 13.482 105.296 13.482C107.438 13.482 108.73 14.502 108.832 16.61L112.538 15.998C112.164 11.952 109.002 10.592 105.296 10.592C101.896 10.592 98.5981 12.054 98.5981 15.692C98.5981 19.126 101.488 20.078 104.514 20.86C107.064 21.506 109.172 21.778 109.172 23.274C109.172 24.702 107.982 25.518 105.704 25.518C103.46 25.518 101.93 24.362 101.896 22.152L98.1221 22.594C98.2581 26.674 101.692 28.408 105.67 28.408Z" fill="white"/>
</svg>
