<svg width="317" height="105" viewBox="0 0 317 105" fill="none" xmlns="http://www.w3.org/2000/svg">
<path d="M129.556 98.19L139.586 72.01H135.574L125.578 98.19H129.556ZM152.503 97V87.888H156.685C161.139 87.888 166.443 87.174 166.443 80.578C166.443 73.914 161.105 73.2 156.719 73.2H148.253V97H152.503ZM152.503 76.634H156.651C159.405 76.634 162.193 76.702 162.193 80.578C162.193 84.318 159.405 84.488 156.617 84.488H152.503V76.634ZM172.964 97V73.2H168.918V97H172.964ZM191.027 85.202C191.027 81.496 188.545 79.592 184.159 79.592C181.779 79.592 179.909 80.034 178.651 80.918C177.359 81.802 176.611 83.23 176.509 85.236L180.453 85.746C180.487 83.366 181.575 82.55 183.921 82.55C185.315 82.55 186.165 82.856 186.641 83.502C187.117 84.182 187.117 84.998 187.117 86.12L182.051 87.072C178.957 87.65 175.931 88.67 175.931 92.308C175.931 95.742 178.685 97.408 181.813 97.408C184.601 97.408 186.437 96.252 187.321 94.586C187.321 95.64 187.423 96.354 187.559 97H191.605V96.864C191.265 96.048 191.027 95.062 191.027 93.94V85.202ZM187.117 90.472C187.117 92.988 185.553 94.45 182.663 94.45C181.201 94.45 180.045 93.736 180.045 92.274C180.045 90.71 181.133 90.2 182.697 89.826L187.117 88.874V90.472ZM200.659 97.17C201.407 97.17 202.257 97.102 202.903 96.966L202.835 93.464C202.257 93.566 201.679 93.634 201.271 93.634C200.047 93.634 199.503 93.396 199.503 92.376V83.23H202.971V80H199.503V75.274H195.525V80H193.077V83.23H195.525V92.716C195.525 95.912 197.429 97.17 200.659 97.17ZM210.821 97V83.23H214.289V80H210.821V77.654C210.821 76.532 211.365 76.328 212.521 76.328C212.895 76.328 213.609 76.396 214.153 76.498L214.221 73.234C213.847 73.132 212.895 73.03 212.079 73.03C208.611 73.03 206.809 74.322 206.809 77.62V80H204.361V83.23H206.809V97H210.821ZM223.887 97.408C229.123 97.408 232.523 93.838 232.523 88.5C232.523 83.366 229.225 79.592 223.887 79.592C218.481 79.592 215.183 83.332 215.183 88.5C215.183 94.042 218.447 97.408 223.887 97.408ZM223.887 94.45C222.459 94.45 221.439 94.076 220.759 93.294C219.875 92.342 219.501 90.744 219.501 88.5C219.501 86.256 219.875 84.658 220.759 83.706C221.439 82.924 222.493 82.55 223.887 82.55C225.315 82.55 226.335 82.958 227.015 83.774C227.831 84.76 228.205 86.324 228.205 88.5C228.205 90.676 227.865 92.24 227.049 93.226C226.369 94.042 225.315 94.45 223.887 94.45ZM244.328 79.626C241.574 79.83 239.874 81.292 239.33 83.06V80H235.318V97H239.364V89.214C239.364 84.522 241.37 83.23 244.566 83.23C244.872 83.23 245.178 83.23 245.416 83.264L245.518 79.592C245.246 79.592 244.6 79.592 244.328 79.626ZM267.284 79.592C265.448 79.592 264.258 80.034 263.306 80.816C262.558 81.462 262.014 82.142 261.64 83.06C260.926 80.918 259.158 79.592 256.506 79.592C254.772 79.592 253.65 80.068 252.766 80.816C252.154 81.292 251.78 81.87 251.508 82.482V80H247.496V97H251.508V87.718C251.508 85.474 252.052 84.352 252.698 83.672C253.276 83.094 254.058 82.754 255.01 82.754C255.656 82.754 256.574 82.754 257.39 83.536C258.308 84.386 258.342 85.576 258.342 87.14V97H262.388V87.65C262.388 85.542 262.898 84.42 263.578 83.706C264.19 83.06 265.04 82.754 265.992 82.754C266.706 82.754 267.556 82.822 268.372 83.57C269.222 84.386 269.256 85.61 269.256 87.14V97H273.302V86.222C273.302 81.802 271.16 79.592 267.284 79.592Z" fill="white"/>
<path d="M132.596 62V50.408C132.596 49.688 132.524 46.196 132.38 43.424H132.452C133.244 45.656 134.72 48.356 135.584 49.976L141.848 62H148.112V36.8H143V48.284C143 49.76 143.072 53.144 143.216 55.556H143.144C142.28 53.252 140.732 50.408 139.724 48.428L133.748 36.8H127.484V62H132.596ZM167.878 49.508C167.878 45.584 164.998 43.568 160.318 43.568C157.618 43.568 155.602 44.036 154.198 45.008C152.722 46.016 151.93 47.672 151.93 50.012L156.862 50.372C156.862 47.852 157.978 47.132 159.958 47.132C161.398 47.132 162.082 47.384 162.55 48.032C163.018 48.68 162.982 49.544 162.982 50.372L158.086 51.272C154.486 51.92 151.282 53.036 151.282 56.888C151.282 60.596 154.126 62.432 157.654 62.432C160.534 62.432 162.406 61.136 163.27 59.588C163.306 60.452 163.414 61.352 163.594 62H168.598V61.856C168.202 61.1 167.878 60.128 167.878 58.76V49.508ZM162.982 55.016C162.982 57.752 161.254 58.868 158.878 58.868C157.51 58.868 156.466 58.256 156.466 56.852C156.466 55.484 157.402 54.908 158.914 54.584L162.982 53.684V55.016ZM178.496 62.18C179.432 62.18 180.404 62.108 181.16 61.928L181.088 57.644C180.512 57.752 179.9 57.824 179.432 57.824C178.208 57.824 177.56 57.536 177.56 56.528V47.96H181.232V44H177.56V38.996H172.592V44H170V47.96H172.592V57.104C172.592 60.848 175.04 62.18 178.496 62.18ZM195.571 53.792C195.571 57.392 193.987 58.616 192.259 58.616C191.251 58.616 190.459 58.508 189.775 57.752C189.055 56.924 188.983 55.808 188.983 54.152V44H183.835V54.404C183.835 56.816 184.051 58.976 185.455 60.452C186.751 61.82 188.299 62.432 190.567 62.432C192.943 62.432 194.707 61.388 195.643 59.48V62H200.539V44H195.571V53.792ZM214.265 43.604C211.349 43.82 209.801 45.332 209.189 47.348V44H204.221V62H209.261V53.972C209.261 49.616 211.133 48.032 214.517 48.032C214.841 48.032 215.165 48.068 215.453 48.104L215.561 43.568C215.237 43.568 214.553 43.568 214.265 43.604ZM231.804 46.088C230.292 44.468 228.06 43.568 225.216 43.568C222.408 43.568 220.248 44.396 218.664 45.944C216.9 47.636 216.108 50.084 216.108 52.964C216.108 55.988 216.972 58.364 218.7 60.056C220.212 61.532 222.444 62.432 225.252 62.432C229.896 62.432 232.92 60.416 233.964 56.384L229.068 55.952C228.708 57.824 227.556 58.868 225.252 58.868C222.552 58.868 221.112 57.32 221.076 54.296H234.252C234.324 50.768 233.532 47.96 231.804 46.088ZM225.216 47.06C226.512 47.06 227.412 47.384 228.096 48.104C228.744 48.788 229.032 49.724 229.14 50.84H221.112C221.22 49.868 221.508 49.04 222.012 48.392C222.696 47.492 223.74 47.06 225.216 47.06ZM242.117 62V56.312H236.681V62H242.117ZM254.146 62V41.372H262.174V36.8H240.682V41.372H248.71V62H254.146ZM274.845 46.088C273.333 44.468 271.101 43.568 268.257 43.568C265.449 43.568 263.289 44.396 261.705 45.944C259.941 47.636 259.149 50.084 259.149 52.964C259.149 55.988 260.013 58.364 261.741 60.056C263.253 61.532 265.485 62.432 268.293 62.432C272.937 62.432 275.961 60.416 277.005 56.384L272.109 55.952C271.749 57.824 270.597 58.868 268.293 58.868C265.593 58.868 264.153 57.32 264.117 54.296H277.293C277.365 50.768 276.573 47.96 274.845 46.088ZM268.257 47.06C269.553 47.06 270.453 47.384 271.137 48.104C271.785 48.788 272.073 49.724 272.181 50.84H264.153C264.261 49.868 264.549 49.04 265.053 48.392C265.737 47.492 266.781 47.06 268.257 47.06ZM288.326 62.432C293.078 62.432 296.102 59.768 296.678 56.096L291.782 55.592C291.314 57.536 290.234 58.688 288.326 58.688C285.374 58.688 284.546 56.78 284.546 53C284.546 50.984 284.798 49.436 285.518 48.5C286.094 47.708 286.994 47.312 288.326 47.312C290.666 47.312 291.422 48.968 291.782 50.912L296.57 50.084C295.85 46.268 293.294 43.568 288.326 43.568C282.422 43.568 279.074 47.456 279.074 53C279.074 58.904 282.422 62.432 288.326 62.432ZM314.249 45.368C313.025 44.036 311.585 43.568 309.245 43.568C306.905 43.568 304.961 44.576 304.025 46.628V36.8H299.021V62H304.061V52.064C304.061 48.536 305.933 47.42 307.409 47.42C308.489 47.42 309.137 47.528 309.821 48.212C310.541 48.932 310.721 49.616 310.721 51.308V62H315.761V51.056C315.761 48.572 315.617 46.844 314.249 45.368Z" fill="white"/>
<rect x="1" y="1" width="98" height="98" stroke="white" stroke-width="2"/>
<path d="M50 0L50 100" stroke="white" stroke-width="2"/>
<path d="M1 1L99 99" stroke="white" stroke-width="2"/>
<path d="M9 1L50 42" stroke="white" stroke-width="2"/>
<path d="M91 99L50 58" stroke="white" stroke-width="2"/>
<path d="M17 1L50 34" stroke="white" stroke-width="2"/>
<path d="M83 99L50 66" stroke="white" stroke-width="2"/>
<path d="M25 1L50 26" stroke="white" stroke-width="2"/>
<path d="M75 99L50 74" stroke="white" stroke-width="2"/>
<path d="M33 1L50 18" stroke="white" stroke-width="2"/>
<path d="M67 99L50 82" stroke="white" stroke-width="2"/>
<path d="M41 1L50 10" stroke="white" stroke-width="2"/>
<path d="M59 99L50 90" stroke="white" stroke-width="2"/>
</svg>
