<svg width="100" height="151" viewBox="0 0 100 151" fill="none" xmlns="http://www.w3.org/2000/svg">
<rect x="1" y="1" width="98" height="98" stroke="white" stroke-width="2"/>
<path d="M50 0L50 100" stroke="white" stroke-width="2"/>
<path d="M1 1L99 99" stroke="white" stroke-width="2"/>
<path d="M9 1L50 42" stroke="white" stroke-width="2"/>
<path d="M91 99L50 58" stroke="white" stroke-width="2"/>
<path d="M17 1L50 34" stroke="white" stroke-width="2"/>
<path d="M83 99L50 66" stroke="white" stroke-width="2"/>
<path d="M25 1L50 26" stroke="white" stroke-width="2"/>
<path d="M75 99L50 74" stroke="white" stroke-width="2"/>
<path d="M33 1L50 18" stroke="white" stroke-width="2"/>
<path d="M67 99L50 82" stroke="white" stroke-width="2"/>
<path d="M41 1L50 10" stroke="white" stroke-width="2"/>
<path d="M59 99L50 90" stroke="white" stroke-width="2"/>
<path d="M6.13745 125V119.204C6.13745 118.844 6.10145 117.098 6.02945 115.712H6.06545C6.46145 116.828 7.19945 118.178 7.63145 118.988L10.7635 125H13.8955V112.4H11.3395V118.142C11.3395 118.88 11.3755 120.572 11.4475 121.778H11.4115C10.9795 120.626 10.2055 119.204 9.70145 118.214L6.71345 112.4H3.58145V125H6.13745ZM23.7784 118.754C23.7784 116.792 22.3384 115.784 19.9984 115.784C18.6484 115.784 17.6404 116.018 16.9384 116.504C16.2004 117.008 15.8044 117.836 15.8044 119.006L18.2704 119.186C18.2704 117.926 18.8284 117.566 19.8184 117.566C20.5384 117.566 20.8804 117.692 21.1144 118.016C21.3484 118.34 21.3304 118.772 21.3304 119.186L18.8824 119.636C17.0824 119.96 15.4804 120.518 15.4804 122.444C15.4804 124.298 16.9024 125.216 18.6664 125.216C20.1064 125.216 21.0424 124.568 21.4744 123.794C21.4924 124.226 21.5464 124.676 21.6364 125H24.1384V124.928C23.9404 124.55 23.7784 124.064 23.7784 123.38V118.754ZM21.3304 121.508C21.3304 122.876 20.4664 123.434 19.2784 123.434C18.5944 123.434 18.0724 123.128 18.0724 122.426C18.0724 121.742 18.5404 121.454 19.2964 121.292L21.3304 120.842V121.508ZM29.0875 125.09C29.5555 125.09 30.0415 125.054 30.4195 124.964L30.3835 122.822C30.0955 122.876 29.7895 122.912 29.5555 122.912C28.9435 122.912 28.6195 122.768 28.6195 122.264V117.98H30.4555V116H28.6195V113.498H26.1355V116H24.8395V117.98H26.1355V122.552C26.1355 124.424 27.3595 125.09 29.0875 125.09ZM37.6249 120.896C37.6249 122.696 36.8329 123.308 35.9689 123.308C35.4649 123.308 35.0689 123.254 34.7269 122.876C34.3669 122.462 34.3309 121.904 34.3309 121.076V116H31.7569V121.202C31.7569 122.408 31.8649 123.488 32.5669 124.226C33.2149 124.91 33.9889 125.216 35.1229 125.216C36.3109 125.216 37.1929 124.694 37.6609 123.74V125H40.1089V116H37.6249V120.896ZM46.9717 115.802C45.5137 115.91 44.7397 116.666 44.4337 117.674V116H41.9497V125H44.4697V120.986C44.4697 118.808 45.4057 118.016 47.0977 118.016C47.2597 118.016 47.4217 118.034 47.5657 118.052L47.6197 115.784C47.4577 115.784 47.1157 115.784 46.9717 115.802ZM55.7415 117.044C54.9855 116.234 53.8695 115.784 52.4475 115.784C51.0435 115.784 49.9635 116.198 49.1715 116.972C48.2895 117.818 47.8935 119.042 47.8935 120.482C47.8935 121.994 48.3255 123.182 49.1895 124.028C49.9455 124.766 51.0615 125.216 52.4655 125.216C54.7875 125.216 56.2995 124.208 56.8215 122.192L54.3735 121.976C54.1935 122.912 53.6175 123.434 52.4655 123.434C51.1155 123.434 50.3955 122.66 50.3775 121.148H56.9655C57.0015 119.384 56.6055 117.98 55.7415 117.044ZM52.4475 117.53C53.0955 117.53 53.5455 117.692 53.8875 118.052C54.2115 118.394 54.3555 118.862 54.4095 119.42H50.3955C50.4495 118.934 50.5935 118.52 50.8455 118.196C51.1875 117.746 51.7095 117.53 52.4475 117.53ZM60.8981 125V122.156H58.1801V125H60.8981ZM66.9125 125V114.686H70.9265V112.4H60.1805V114.686H64.1945V125H66.9125ZM77.2621 117.044C76.5061 116.234 75.3901 115.784 73.9681 115.784C72.5641 115.784 71.4841 116.198 70.6921 116.972C69.8101 117.818 69.4141 119.042 69.4141 120.482C69.4141 121.994 69.8461 123.182 70.7101 124.028C71.4661 124.766 72.5821 125.216 73.9861 125.216C76.3081 125.216 77.8201 124.208 78.3421 122.192L75.8941 121.976C75.7141 122.912 75.1381 123.434 73.9861 123.434C72.6361 123.434 71.9161 122.66 71.8981 121.148H78.4861C78.5221 119.384 78.1261 117.98 77.2621 117.044ZM73.9681 117.53C74.6161 117.53 75.0661 117.692 75.4081 118.052C75.7321 118.394 75.8761 118.862 75.9301 119.42H71.9161C71.9701 118.934 72.1141 118.52 72.3661 118.196C72.7081 117.746 73.2301 117.53 73.9681 117.53ZM84.0026 125.216C86.3786 125.216 87.8906 123.884 88.1786 122.048L85.7306 121.796C85.4966 122.768 84.9566 123.344 84.0026 123.344C82.5266 123.344 82.1126 122.39 82.1126 120.5C82.1126 119.492 82.2386 118.718 82.5986 118.25C82.8866 117.854 83.3366 117.656 84.0026 117.656C85.1726 117.656 85.5506 118.484 85.7306 119.456L88.1246 119.042C87.7646 117.134 86.4866 115.784 84.0026 115.784C81.0506 115.784 79.3766 117.728 79.3766 120.5C79.3766 123.452 81.0506 125.216 84.0026 125.216ZM96.9642 116.684C96.3522 116.018 95.6322 115.784 94.4622 115.784C93.2922 115.784 92.3202 116.288 91.8522 117.314V112.4H89.3502V125H91.8702V120.032C91.8702 118.268 92.8062 117.71 93.5442 117.71C94.0842 117.71 94.4082 117.764 94.7502 118.106C95.1102 118.466 95.2002 118.808 95.2002 119.654V125H97.7202V119.528C97.7202 118.286 97.6482 117.422 96.9642 116.684Z" fill="white"/>
<path d="M7.06209 142.56L11.7821 130.24H9.89409L5.19009 142.56H7.06209ZM17.8606 142V137.712H19.8286C21.9246 137.712 24.4206 137.376 24.4206 134.272C24.4206 131.136 21.9086 130.8 19.8446 130.8H15.8606V142H17.8606ZM17.8606 132.416H19.8126C21.1086 132.416 22.4206 132.448 22.4206 134.272C22.4206 136.032 21.1086 136.112 19.7966 136.112H17.8606V132.416ZM27.4896 142V130.8H25.5856V142H27.4896ZM35.9897 136.448C35.9897 134.704 34.8217 133.808 32.7577 133.808C31.6377 133.808 30.7577 134.016 30.1657 134.432C29.5577 134.848 29.2057 135.52 29.1577 136.464L31.0137 136.704C31.0297 135.584 31.5417 135.2 32.6457 135.2C33.3017 135.2 33.7017 135.344 33.9257 135.648C34.1497 135.968 34.1497 136.352 34.1497 136.88L31.7657 137.328C30.3097 137.6 28.8857 138.08 28.8857 139.792C28.8857 141.408 30.1817 142.192 31.6537 142.192C32.9657 142.192 33.8297 141.648 34.2457 140.864C34.2457 141.36 34.2937 141.696 34.3577 142H36.2617V141.936C36.1017 141.552 35.9897 141.088 35.9897 140.56V136.448ZM34.1497 138.928C34.1497 140.112 33.4137 140.8 32.0537 140.8C31.3657 140.8 30.8217 140.464 30.8217 139.776C30.8217 139.04 31.3337 138.8 32.0697 138.624L34.1497 138.176V138.928ZM40.5221 142.08C40.8741 142.08 41.2741 142.048 41.5781 141.984L41.5461 140.336C41.2741 140.384 41.0021 140.416 40.8101 140.416C40.2341 140.416 39.9781 140.304 39.9781 139.824V135.52H41.6101V134H39.9781V131.776H38.1061V134H36.9541V135.52H38.1061V139.984C38.1061 141.488 39.0021 142.08 40.5221 142.08ZM45.3043 142V135.52H46.9363V134H45.3043V132.896C45.3043 132.368 45.5603 132.272 46.1043 132.272C46.2803 132.272 46.6163 132.304 46.8723 132.352L46.9043 130.816C46.7283 130.768 46.2803 130.72 45.8963 130.72C44.2643 130.72 43.4163 131.328 43.4163 132.88V134H42.2643V135.52H43.4163V142H45.3043ZM51.453 142.192C53.917 142.192 55.517 140.512 55.517 138C55.517 135.584 53.965 133.808 51.453 133.808C48.909 133.808 47.357 135.568 47.357 138C47.357 140.608 48.893 142.192 51.453 142.192ZM51.453 140.8C50.781 140.8 50.301 140.624 49.981 140.256C49.565 139.808 49.389 139.056 49.389 138C49.389 136.944 49.565 136.192 49.981 135.744C50.301 135.376 50.797 135.2 51.453 135.2C52.125 135.2 52.605 135.392 52.925 135.776C53.309 136.24 53.485 136.976 53.485 138C53.485 139.024 53.325 139.76 52.941 140.224C52.621 140.608 52.125 140.8 51.453 140.8ZM61.0725 133.824C59.7765 133.92 58.9765 134.608 58.7205 135.44V134H56.8325V142H58.7365V138.336C58.7365 136.128 59.6805 135.52 61.1845 135.52C61.3285 135.52 61.4725 135.52 61.5845 135.536L61.6325 133.808C61.5045 133.808 61.2005 133.808 61.0725 133.824ZM71.8751 133.808C71.0111 133.808 70.4511 134.016 70.0031 134.384C69.6511 134.688 69.3951 135.008 69.2191 135.44C68.8831 134.432 68.0511 133.808 66.8031 133.808C65.9871 133.808 65.4591 134.032 65.0431 134.384C64.7551 134.608 64.5791 134.88 64.4511 135.168V134H62.5631V142H64.4511V137.632C64.4511 136.576 64.7071 136.048 65.0111 135.728C65.2831 135.456 65.6511 135.296 66.0991 135.296C66.4031 135.296 66.8351 135.296 67.2191 135.664C67.6511 136.064 67.6671 136.624 67.6671 137.36V142H69.5711V137.6C69.5711 136.608 69.8111 136.08 70.1311 135.744C70.4191 135.44 70.8191 135.296 71.2671 135.296C71.6031 135.296 72.0031 135.328 72.3871 135.68C72.7871 136.064 72.8031 136.64 72.8031 137.36V142H74.7071V136.928C74.7071 134.848 73.6991 133.808 71.8751 133.808Z" fill="white"/>
</svg>
