<svg width="518" height="100" viewBox="0 0 518 100" fill="none" xmlns="http://www.w3.org/2000/svg">
<path d="M330.556 62.835L340.586 36.655H336.574L326.578 62.835H330.556ZM353.503 61.645V52.533H357.685C362.139 52.533 367.443 51.819 367.443 45.223C367.443 38.559 362.105 37.845 357.719 37.845H349.253V61.645H353.503ZM353.503 41.279H357.651C360.405 41.279 363.193 41.347 363.193 45.223C363.193 48.963 360.405 49.133 357.617 49.133H353.503V41.279ZM373.964 61.645V37.845H369.918V61.645H373.964ZM392.027 49.847C392.027 46.141 389.545 44.237 385.159 44.237C382.779 44.237 380.909 44.679 379.651 45.563C378.359 46.447 377.611 47.875 377.509 49.881L381.453 50.391C381.487 48.011 382.575 47.195 384.921 47.195C386.315 47.195 387.165 47.501 387.641 48.147C388.117 48.827 388.117 49.643 388.117 50.765L383.051 51.717C379.957 52.295 376.931 53.315 376.931 56.953C376.931 60.387 379.685 62.053 382.813 62.053C385.601 62.053 387.437 60.897 388.321 59.231C388.321 60.285 388.423 60.999 388.559 61.645H392.605V61.509C392.265 60.693 392.027 59.707 392.027 58.585V49.847ZM388.117 55.117C388.117 57.633 386.553 59.095 383.663 59.095C382.201 59.095 381.045 58.381 381.045 56.919C381.045 55.355 382.133 54.845 383.697 54.471L388.117 53.519V55.117ZM401.659 61.815C402.407 61.815 403.257 61.747 403.903 61.611L403.835 58.109C403.257 58.211 402.679 58.279 402.271 58.279C401.047 58.279 400.503 58.041 400.503 57.021V47.875H403.971V44.645H400.503V39.919H396.525V44.645H394.077V47.875H396.525V57.361C396.525 60.557 398.429 61.815 401.659 61.815ZM411.821 61.645V47.875H415.289V44.645H411.821V42.299C411.821 41.177 412.365 40.973 413.521 40.973C413.895 40.973 414.609 41.041 415.153 41.143L415.221 37.879C414.847 37.777 413.895 37.675 413.079 37.675C409.611 37.675 407.809 38.967 407.809 42.265V44.645H405.361V47.875H407.809V61.645H411.821ZM424.887 62.053C430.123 62.053 433.523 58.483 433.523 53.145C433.523 48.011 430.225 44.237 424.887 44.237C419.481 44.237 416.183 47.977 416.183 53.145C416.183 58.687 419.447 62.053 424.887 62.053ZM424.887 59.095C423.459 59.095 422.439 58.721 421.759 57.939C420.875 56.987 420.501 55.389 420.501 53.145C420.501 50.901 420.875 49.303 421.759 48.351C422.439 47.569 423.493 47.195 424.887 47.195C426.315 47.195 427.335 47.603 428.015 48.419C428.831 49.405 429.205 50.969 429.205 53.145C429.205 55.321 428.865 56.885 428.049 57.871C427.369 58.687 426.315 59.095 424.887 59.095ZM445.328 44.271C442.574 44.475 440.874 45.937 440.33 47.705V44.645H436.318V61.645H440.364V53.859C440.364 49.167 442.37 47.875 445.566 47.875C445.872 47.875 446.178 47.875 446.416 47.909L446.518 44.237C446.246 44.237 445.6 44.237 445.328 44.271ZM468.284 44.237C466.448 44.237 465.258 44.679 464.306 45.461C463.558 46.107 463.014 46.787 462.64 47.705C461.926 45.563 460.158 44.237 457.506 44.237C455.772 44.237 454.65 44.713 453.766 45.461C453.154 45.937 452.78 46.515 452.508 47.127V44.645H448.496V61.645H452.508V52.363C452.508 50.119 453.052 48.997 453.698 48.317C454.276 47.739 455.058 47.399 456.01 47.399C456.656 47.399 457.574 47.399 458.39 48.181C459.308 49.031 459.342 50.221 459.342 51.785V61.645H463.388V52.295C463.388 50.187 463.898 49.065 464.578 48.351C465.19 47.705 466.04 47.399 466.992 47.399C467.706 47.399 468.556 47.467 469.372 48.215C470.222 49.031 470.256 50.255 470.256 51.785V61.645H474.302V50.867C474.302 46.447 472.16 44.237 468.284 44.237Z" fill="white"/>
<path d="M132.596 62V50.408C132.596 49.688 132.524 46.196 132.38 43.424H132.452C133.244 45.656 134.72 48.356 135.584 49.976L141.848 62H148.112V36.8H143V48.284C143 49.76 143.072 53.144 143.216 55.556H143.144C142.28 53.252 140.732 50.408 139.724 48.428L133.748 36.8H127.484V62H132.596ZM167.878 49.508C167.878 45.584 164.998 43.568 160.318 43.568C157.618 43.568 155.602 44.036 154.198 45.008C152.722 46.016 151.93 47.672 151.93 50.012L156.862 50.372C156.862 47.852 157.978 47.132 159.958 47.132C161.398 47.132 162.082 47.384 162.55 48.032C163.018 48.68 162.982 49.544 162.982 50.372L158.086 51.272C154.486 51.92 151.282 53.036 151.282 56.888C151.282 60.596 154.126 62.432 157.654 62.432C160.534 62.432 162.406 61.136 163.27 59.588C163.306 60.452 163.414 61.352 163.594 62H168.598V61.856C168.202 61.1 167.878 60.128 167.878 58.76V49.508ZM162.982 55.016C162.982 57.752 161.254 58.868 158.878 58.868C157.51 58.868 156.466 58.256 156.466 56.852C156.466 55.484 157.402 54.908 158.914 54.584L162.982 53.684V55.016ZM178.496 62.18C179.432 62.18 180.404 62.108 181.16 61.928L181.088 57.644C180.512 57.752 179.9 57.824 179.432 57.824C178.208 57.824 177.56 57.536 177.56 56.528V47.96H181.232V44H177.56V38.996H172.592V44H170V47.96H172.592V57.104C172.592 60.848 175.04 62.18 178.496 62.18ZM195.571 53.792C195.571 57.392 193.987 58.616 192.259 58.616C191.251 58.616 190.459 58.508 189.775 57.752C189.055 56.924 188.983 55.808 188.983 54.152V44H183.835V54.404C183.835 56.816 184.051 58.976 185.455 60.452C186.751 61.82 188.299 62.432 190.567 62.432C192.943 62.432 194.707 61.388 195.643 59.48V62H200.539V44H195.571V53.792ZM214.265 43.604C211.349 43.82 209.801 45.332 209.189 47.348V44H204.221V62H209.261V53.972C209.261 49.616 211.133 48.032 214.517 48.032C214.841 48.032 215.165 48.068 215.453 48.104L215.561 43.568C215.237 43.568 214.553 43.568 214.265 43.604ZM231.804 46.088C230.292 44.468 228.06 43.568 225.216 43.568C222.408 43.568 220.248 44.396 218.664 45.944C216.9 47.636 216.108 50.084 216.108 52.964C216.108 55.988 216.972 58.364 218.7 60.056C220.212 61.532 222.444 62.432 225.252 62.432C229.896 62.432 232.92 60.416 233.964 56.384L229.068 55.952C228.708 57.824 227.556 58.868 225.252 58.868C222.552 58.868 221.112 57.32 221.076 54.296H234.252C234.324 50.768 233.532 47.96 231.804 46.088ZM225.216 47.06C226.512 47.06 227.412 47.384 228.096 48.104C228.744 48.788 229.032 49.724 229.14 50.84H221.112C221.22 49.868 221.508 49.04 222.012 48.392C222.696 47.492 223.74 47.06 225.216 47.06ZM242.117 62V56.312H236.681V62H242.117ZM254.146 62V41.372H262.174V36.8H240.682V41.372H248.71V62H254.146ZM274.845 46.088C273.333 44.468 271.101 43.568 268.257 43.568C265.449 43.568 263.289 44.396 261.705 45.944C259.941 47.636 259.149 50.084 259.149 52.964C259.149 55.988 260.013 58.364 261.741 60.056C263.253 61.532 265.485 62.432 268.293 62.432C272.937 62.432 275.961 60.416 277.005 56.384L272.109 55.952C271.749 57.824 270.597 58.868 268.293 58.868C265.593 58.868 264.153 57.32 264.117 54.296H277.293C277.365 50.768 276.573 47.96 274.845 46.088ZM268.257 47.06C269.553 47.06 270.453 47.384 271.137 48.104C271.785 48.788 272.073 49.724 272.181 50.84H264.153C264.261 49.868 264.549 49.04 265.053 48.392C265.737 47.492 266.781 47.06 268.257 47.06ZM288.326 62.432C293.078 62.432 296.102 59.768 296.678 56.096L291.782 55.592C291.314 57.536 290.234 58.688 288.326 58.688C285.374 58.688 284.546 56.78 284.546 53C284.546 50.984 284.798 49.436 285.518 48.5C286.094 47.708 286.994 47.312 288.326 47.312C290.666 47.312 291.422 48.968 291.782 50.912L296.57 50.084C295.85 46.268 293.294 43.568 288.326 43.568C282.422 43.568 279.074 47.456 279.074 53C279.074 58.904 282.422 62.432 288.326 62.432ZM314.249 45.368C313.025 44.036 311.585 43.568 309.245 43.568C306.905 43.568 304.961 44.576 304.025 46.628V36.8H299.021V62H304.061V52.064C304.061 48.536 305.933 47.42 307.409 47.42C308.489 47.42 309.137 47.528 309.821 48.212C310.541 48.932 310.721 49.616 310.721 51.308V62H315.761V51.056C315.761 48.572 315.617 46.844 314.249 45.368Z" fill="white"/>
<rect x="1" y="1" width="98" height="98" stroke="white" stroke-width="2"/>
<path d="M50 0L50 100" stroke="white" stroke-width="2"/>
<path d="M1 1L99 99" stroke="white" stroke-width="2"/>
<path d="M9 1L50 42" stroke="white" stroke-width="2"/>
<path d="M91 99L50 58" stroke="white" stroke-width="2"/>
<path d="M17 1L50 34" stroke="white" stroke-width="2"/>
<path d="M83 99L50 66" stroke="white" stroke-width="2"/>
<path d="M25 1L50 26" stroke="white" stroke-width="2"/>
<path d="M75 99L50 74" stroke="white" stroke-width="2"/>
<path d="M33 1L50 18" stroke="white" stroke-width="2"/>
<path d="M67 99L50 82" stroke="white" stroke-width="2"/>
<path d="M41 1L50 10" stroke="white" stroke-width="2"/>
<path d="M59 99L50 90" stroke="white" stroke-width="2"/>
</svg>
