<svg width="61" height="18" viewBox="0 0 61 18" fill="none" xmlns="http://www.w3.org/2000/svg">
<path d="M5.30369 13.56L10.0237 1.24H8.13569L3.43169 13.56H5.30369ZM16.0062 13V7.288C16.0062 6.968 15.9742 5.448 15.9262 4.296H15.9422C16.3262 5.224 16.9982 6.456 17.3342 7.032L20.7102 13H22.9982V1.8H21.0942V7.48C21.0942 8.056 21.1262 9.544 21.1742 10.552H21.1582C20.7422 9.592 20.1342 8.472 19.6862 7.656L16.3582 1.8H14.1022V13H16.0062ZM31.4333 6.136C30.7613 5.288 29.6893 4.808 28.4253 4.808C27.2093 4.808 26.2493 5.192 25.5453 5.928C24.8253 6.696 24.4733 7.752 24.4733 8.984C24.4733 10.28 24.8093 11.336 25.5453 12.088C26.2333 12.792 27.1933 13.192 28.4413 13.192C30.4893 13.192 31.8013 12.28 32.2173 10.44L30.3773 10.296C30.2013 11.272 29.5933 11.768 28.4253 11.768C27.0973 11.768 26.4253 11.016 26.3933 9.528H32.3453C32.3933 8.152 32.0733 6.936 31.4333 6.136ZM28.4253 6.232C29.1293 6.232 29.6093 6.424 29.9613 6.856C30.2333 7.192 30.3773 7.656 30.4093 8.104H26.4093C26.4413 7.72 26.5533 7.288 26.8093 6.936C27.1293 6.488 27.6733 6.232 28.4253 6.232ZM39.9642 5H37.9162L36.9402 6.456L36.2682 7.528C36.0922 7.24 35.8522 6.824 35.5962 6.44L34.6042 5H32.5402L35.2122 8.808L32.3162 13H34.3802L35.3882 11.464C35.6922 11.016 36.0282 10.44 36.2362 10.104C36.4602 10.472 36.7802 11.032 37.0682 11.48L38.1082 13H40.1722L37.2922 8.808L39.9642 5ZM46.2243 9.416C46.2243 11.32 45.2483 11.704 44.4963 11.704C44.0323 11.704 43.6163 11.672 43.2323 11.288C42.8483 10.888 42.8323 10.328 42.8323 9.592V5H40.8963V9.688C40.8963 10.664 40.9603 11.656 41.5843 12.312C42.1603 12.92 42.8643 13.192 43.8883 13.192C44.9923 13.192 45.8083 12.712 46.2403 11.832V13H48.0963V5H46.2243V9.416ZM52.8868 13.192C54.6468 13.192 56.3268 12.6 56.3268 10.664C56.3268 8.776 54.6148 8.44 53.1108 8.104C52.0868 7.88 51.3508 7.688 51.3508 7.064C51.3508 6.44 52.0068 6.168 52.7108 6.168C53.7188 6.168 54.3268 6.648 54.3748 7.64L56.1188 7.352C55.9428 5.448 54.4548 4.808 52.7108 4.808C51.1108 4.808 49.5588 5.496 49.5588 7.208C49.5588 8.824 50.9188 9.272 52.3428 9.64C53.5428 9.944 54.5348 10.072 54.5348 10.776C54.5348 11.448 53.9748 11.832 52.9028 11.832C51.8468 11.832 51.1268 11.288 51.1108 10.248L49.3348 10.456C49.3988 12.376 51.0148 13.192 52.8868 13.192Z" fill="#282828"/>
</svg>
