<svg width="100" height="151" viewBox="0 0 100 151" fill="none" xmlns="http://www.w3.org/2000/svg">
<rect x="1" y="1" width="98" height="98" stroke="#282828" stroke-width="2"/>
<path d="M50 0L50 100" stroke="#282828" stroke-width="2"/>
<path d="M1 1L99 99" stroke="#282828" stroke-width="2"/>
<path d="M9 1L50 42" stroke="#282828" stroke-width="2"/>
<path d="M91 99L50 58" stroke="#282828" stroke-width="2"/>
<path d="M17 1L50 34" stroke="#282828" stroke-width="2"/>
<path d="M83 99L50 66" stroke="#282828" stroke-width="2"/>
<path d="M25 1L50 26" stroke="#282828" stroke-width="2"/>
<path d="M75 99L50 74" stroke="#282828" stroke-width="2"/>
<path d="M33 1L50 18" stroke="#282828" stroke-width="2"/>
<path d="M67 99L50 82" stroke="#282828" stroke-width="2"/>
<path d="M41 1L50 10" stroke="#282828" stroke-width="2"/>
<path d="M59 99L50 90" stroke="#282828" stroke-width="2"/>
<path d="M6.13745 125V119.204C6.13745 118.844 6.10145 117.098 6.02945 115.712H6.06545C6.46145 116.828 7.19945 118.178 7.63145 118.988L10.7635 125H13.8955V112.4H11.3395V118.142C11.3395 118.88 11.3755 120.572 11.4475 121.778H11.4115C10.9795 120.626 10.2055 119.204 9.70145 118.214L6.71345 112.4H3.58145V125H6.13745ZM23.7784 118.754C23.7784 116.792 22.3384 115.784 19.9984 115.784C18.6484 115.784 17.6404 116.018 16.9384 116.504C16.2004 117.008 15.8044 117.836 15.8044 119.006L18.2704 119.186C18.2704 117.926 18.8284 117.566 19.8184 117.566C20.5384 117.566 20.8804 117.692 21.1144 118.016C21.3484 118.34 21.3304 118.772 21.3304 119.186L18.8824 119.636C17.0824 119.96 15.4804 120.518 15.4804 122.444C15.4804 124.298 16.9024 125.216 18.6664 125.216C20.1064 125.216 21.0424 124.568 21.4744 123.794C21.4924 124.226 21.5464 124.676 21.6364 125H24.1384V124.928C23.9404 124.55 23.7784 124.064 23.7784 123.38V118.754ZM21.3304 121.508C21.3304 122.876 20.4664 123.434 19.2784 123.434C18.5944 123.434 18.0724 123.128 18.0724 122.426C18.0724 121.742 18.5404 121.454 19.2964 121.292L21.3304 120.842V121.508ZM29.0875 125.09C29.5555 125.09 30.0415 125.054 30.4195 124.964L30.3835 122.822C30.0955 122.876 29.7895 122.912 29.5555 122.912C28.9435 122.912 28.6195 122.768 28.6195 122.264V117.98H30.4555V116H28.6195V113.498H26.1355V116H24.8395V117.98H26.1355V122.552C26.1355 124.424 27.3595 125.09 29.0875 125.09ZM37.6249 120.896C37.6249 122.696 36.8329 123.308 35.9689 123.308C35.4649 123.308 35.0689 123.254 34.7269 122.876C34.3669 122.462 34.3309 121.904 34.3309 121.076V116H31.7569V121.202C31.7569 122.408 31.8649 123.488 32.5669 124.226C33.2149 124.91 33.9889 125.216 35.1229 125.216C36.3109 125.216 37.1929 124.694 37.6609 123.74V125H40.1089V116H37.6249V120.896ZM46.9717 115.802C45.5137 115.91 44.7397 116.666 44.4337 117.674V116H41.9497V125H44.4697V120.986C44.4697 118.808 45.4057 118.016 47.0977 118.016C47.2597 118.016 47.4217 118.034 47.5657 118.052L47.6197 115.784C47.4577 115.784 47.1157 115.784 46.9717 115.802ZM55.7415 117.044C54.9855 116.234 53.8695 115.784 52.4475 115.784C51.0435 115.784 49.9635 116.198 49.1715 116.972C48.2895 117.818 47.8935 119.042 47.8935 120.482C47.8935 121.994 48.3255 123.182 49.1895 124.028C49.9455 124.766 51.0615 125.216 52.4655 125.216C54.7875 125.216 56.2995 124.208 56.8215 122.192L54.3735 121.976C54.1935 122.912 53.6175 123.434 52.4655 123.434C51.1155 123.434 50.3955 122.66 50.3775 121.148H56.9655C57.0015 119.384 56.6055 117.98 55.7415 117.044ZM52.4475 117.53C53.0955 117.53 53.5455 117.692 53.8875 118.052C54.2115 118.394 54.3555 118.862 54.4095 119.42H50.3955C50.4495 118.934 50.5935 118.52 50.8455 118.196C51.1875 117.746 51.7095 117.53 52.4475 117.53ZM60.8981 125V122.156H58.1801V125H60.8981ZM66.9125 125V114.686H70.9265V112.4H60.1805V114.686H64.1945V125H66.9125ZM77.2621 117.044C76.5061 116.234 75.3901 115.784 73.9681 115.784C72.5641 115.784 71.4841 116.198 70.6921 116.972C69.8101 117.818 69.4141 119.042 69.4141 120.482C69.4141 121.994 69.8461 123.182 70.7101 124.028C71.4661 124.766 72.5821 125.216 73.9861 125.216C76.3081 125.216 77.8201 124.208 78.3421 122.192L75.8941 121.976C75.7141 122.912 75.1381 123.434 73.9861 123.434C72.6361 123.434 71.9161 122.66 71.8981 121.148H78.4861C78.5221 119.384 78.1261 117.98 77.2621 117.044ZM73.9681 117.53C74.6161 117.53 75.0661 117.692 75.4081 118.052C75.7321 118.394 75.8761 118.862 75.9301 119.42H71.9161C71.9701 118.934 72.1141 118.52 72.3661 118.196C72.7081 117.746 73.2301 117.53 73.9681 117.53ZM84.0026 125.216C86.3786 125.216 87.8906 123.884 88.1786 122.048L85.7306 121.796C85.4966 122.768 84.9566 123.344 84.0026 123.344C82.5266 123.344 82.1126 122.39 82.1126 120.5C82.1126 119.492 82.2386 118.718 82.5986 118.25C82.8866 117.854 83.3366 117.656 84.0026 117.656C85.1726 117.656 85.5506 118.484 85.7306 119.456L88.1246 119.042C87.7646 117.134 86.4866 115.784 84.0026 115.784C81.0506 115.784 79.3766 117.728 79.3766 120.5C79.3766 123.452 81.0506 125.216 84.0026 125.216ZM96.9642 116.684C96.3522 116.018 95.6322 115.784 94.4622 115.784C93.2922 115.784 92.3202 116.288 91.8522 117.314V112.4H89.3502V125H91.8702V120.032C91.8702 118.268 92.8062 117.71 93.5442 117.71C94.0842 117.71 94.4082 117.764 94.7502 118.106C95.1102 118.466 95.2002 118.808 95.2002 119.654V125H97.7202V119.528C97.7202 118.286 97.6482 117.422 96.9642 116.684Z" fill="#282828"/>
<path d="M5.30369 142.56L10.0237 130.24H8.13569L3.43169 142.56H5.30369ZM16.0062 142V136.288C16.0062 135.968 15.9742 134.448 15.9262 133.296H15.9422C16.3262 134.224 16.9982 135.456 17.3342 136.032L20.7102 142H22.9982V130.8H21.0942V136.48C21.0942 137.056 21.1262 138.544 21.1742 139.552H21.1582C20.7422 138.592 20.1342 137.472 19.6862 136.656L16.3582 130.8H14.1022V142H16.0062ZM31.4333 135.136C30.7613 134.288 29.6893 133.808 28.4253 133.808C27.2093 133.808 26.2493 134.192 25.5453 134.928C24.8253 135.696 24.4733 136.752 24.4733 137.984C24.4733 139.28 24.8093 140.336 25.5453 141.088C26.2333 141.792 27.1933 142.192 28.4413 142.192C30.4893 142.192 31.8013 141.28 32.2173 139.44L30.3773 139.296C30.2013 140.272 29.5933 140.768 28.4253 140.768C27.0973 140.768 26.4253 140.016 26.3933 138.528H32.3453C32.3933 137.152 32.0733 135.936 31.4333 135.136ZM28.4253 135.232C29.1293 135.232 29.6093 135.424 29.9613 135.856C30.2333 136.192 30.3773 136.656 30.4093 137.104H26.4093C26.4413 136.72 26.5533 136.288 26.8093 135.936C27.1293 135.488 27.6733 135.232 28.4253 135.232ZM39.9642 134H37.9162L36.9402 135.456L36.2682 136.528C36.0922 136.24 35.8522 135.824 35.5962 135.44L34.6042 134H32.5402L35.2122 137.808L32.3162 142H34.3802L35.3882 140.464C35.6922 140.016 36.0282 139.44 36.2362 139.104C36.4602 139.472 36.7802 140.032 37.0682 140.48L38.1082 142H40.1722L37.2922 137.808L39.9642 134ZM46.2243 138.416C46.2243 140.32 45.2483 140.704 44.4963 140.704C44.0323 140.704 43.6163 140.672 43.2323 140.288C42.8483 139.888 42.8323 139.328 42.8323 138.592V134H40.8963V138.688C40.8963 139.664 40.9603 140.656 41.5843 141.312C42.1603 141.92 42.8643 142.192 43.8883 142.192C44.9923 142.192 45.8083 141.712 46.2403 140.832V142H48.0963V134H46.2243V138.416ZM52.8868 142.192C54.6468 142.192 56.3268 141.6 56.3268 139.664C56.3268 137.776 54.6148 137.44 53.1108 137.104C52.0868 136.88 51.3508 136.688 51.3508 136.064C51.3508 135.44 52.0068 135.168 52.7108 135.168C53.7188 135.168 54.3268 135.648 54.3748 136.64L56.1188 136.352C55.9428 134.448 54.4548 133.808 52.7108 133.808C51.1108 133.808 49.5588 134.496 49.5588 136.208C49.5588 137.824 50.9188 138.272 52.3428 138.64C53.5428 138.944 54.5348 139.072 54.5348 139.776C54.5348 140.448 53.9748 140.832 52.9028 140.832C51.8468 140.832 51.1268 140.288 51.1108 139.248L49.3348 139.456C49.3988 141.376 51.0148 142.192 52.8868 142.192Z" fill="#282828"/>
</svg>
