<svg width="510" height="107" viewBox="0 0 510 107" fill="none" xmlns="http://www.w3.org/2000/svg">
<path d="M322.556 65.19L332.586 39.01H328.574L318.578 65.19H322.556ZM345.299 64V51.862C345.299 51.182 345.231 47.952 345.129 45.504H345.163C345.979 47.476 347.407 50.094 348.121 51.318L355.295 64H360.157V40.2H356.111V52.27C356.111 53.494 356.179 56.656 356.281 58.798H356.247C355.363 56.758 354.071 54.378 353.119 52.644L346.047 40.2H341.253V64H345.299ZM378.081 49.414C376.653 47.612 374.375 46.592 371.689 46.592C369.105 46.592 367.065 47.408 365.569 48.972C364.039 50.604 363.291 52.848 363.291 55.466C363.291 58.22 364.005 60.464 365.569 62.062C367.031 63.558 369.071 64.408 371.723 64.408C376.075 64.408 378.863 62.47 379.747 58.56L375.837 58.254C375.463 60.328 374.171 61.382 371.689 61.382C368.867 61.382 367.439 59.784 367.371 56.622H380.019C380.121 53.698 379.441 51.114 378.081 49.414ZM371.689 49.618C373.185 49.618 374.205 50.026 374.953 50.944C375.531 51.658 375.837 52.644 375.905 53.596H367.405C367.473 52.78 367.711 51.862 368.255 51.114C368.935 50.162 370.091 49.618 371.689 49.618ZM396.21 47H391.858L389.784 50.094L388.356 52.372C387.982 51.76 387.472 50.876 386.928 50.06L384.82 47H380.434L386.112 55.092L379.958 64H384.344L386.486 60.736C387.132 59.784 387.846 58.56 388.288 57.846C388.764 58.628 389.444 59.818 390.056 60.77L392.266 64H396.652L390.532 55.092L396.21 47ZM409.512 56.384C409.512 60.43 407.438 61.246 405.84 61.246C404.854 61.246 403.97 61.178 403.154 60.362C402.338 59.512 402.304 58.322 402.304 56.758V47H398.19V56.962C398.19 59.036 398.326 61.144 399.652 62.538C400.876 63.83 402.372 64.408 404.548 64.408C406.894 64.408 408.628 63.388 409.546 61.518V64H413.49V47H409.512V56.384ZM423.67 64.408C427.41 64.408 430.98 63.15 430.98 59.036C430.98 55.024 427.342 54.31 424.146 53.596C421.97 53.12 420.406 52.712 420.406 51.386C420.406 50.06 421.8 49.482 423.296 49.482C425.438 49.482 426.73 50.502 426.832 52.61L430.538 51.998C430.164 47.952 427.002 46.592 423.296 46.592C419.896 46.592 416.598 48.054 416.598 51.692C416.598 55.126 419.488 56.078 422.514 56.86C425.064 57.506 427.172 57.778 427.172 59.274C427.172 60.702 425.982 61.518 423.704 61.518C421.46 61.518 419.93 60.362 419.896 58.152L416.122 58.594C416.258 62.674 419.692 64.408 423.67 64.408Z" fill="#282828"/>
<path d="M126.681 64.3101V52.7181C126.681 51.9981 126.609 48.5061 126.465 45.7341H126.537C127.329 47.9661 128.805 50.6661 129.669 52.2861L135.933 64.3101H142.197V39.1101H137.085V50.5941C137.085 52.0701 137.157 55.4541 137.301 57.8661H137.229C136.365 55.5621 134.817 52.7181 133.809 50.7381L127.833 39.1101H121.569V64.3101H126.681ZM161.963 51.8181C161.963 47.8941 159.083 45.8781 154.403 45.8781C151.703 45.8781 149.687 46.3461 148.283 47.3181C146.807 48.3261 146.015 49.9821 146.015 52.3221L150.947 52.6821C150.947 50.1621 152.063 49.4421 154.043 49.4421C155.483 49.4421 156.167 49.6941 156.635 50.3421C157.103 50.9901 157.067 51.8541 157.067 52.6821L152.171 53.5821C148.571 54.2301 145.367 55.3461 145.367 59.1981C145.367 62.9061 148.211 64.7421 151.739 64.7421C154.619 64.7421 156.491 63.4461 157.355 61.8981C157.391 62.7621 157.499 63.6621 157.679 64.3101H162.683V64.1661C162.287 63.4101 161.963 62.4381 161.963 61.0701V51.8181ZM157.067 57.3261C157.067 60.0621 155.339 61.1781 152.963 61.1781C151.595 61.1781 150.551 60.5661 150.551 59.1621C150.551 57.7941 151.487 57.2181 152.999 56.8941L157.067 55.9941V57.3261ZM172.581 64.4901C173.517 64.4901 174.489 64.4181 175.245 64.2381L175.173 59.9541C174.597 60.0621 173.985 60.1341 173.517 60.1341C172.293 60.1341 171.645 59.8461 171.645 58.8381V50.2701H175.317V46.3101H171.645V41.3061H166.677V46.3101H164.085V50.2701H166.677V59.4141C166.677 63.1581 169.125 64.4901 172.581 64.4901ZM189.656 56.1021C189.656 59.7021 188.072 60.9261 186.344 60.9261C185.336 60.9261 184.544 60.8181 183.86 60.0621C183.14 59.2341 183.068 58.1181 183.068 56.4621V46.3101H177.92V56.7141C177.92 59.1261 178.136 61.2861 179.54 62.7621C180.836 64.1301 182.384 64.7421 184.652 64.7421C187.028 64.7421 188.792 63.6981 189.728 61.7901V64.3101H194.624V46.3101H189.656V56.1021ZM208.35 45.9141C205.434 46.1301 203.886 47.6421 203.274 49.6581V46.3101H198.306V64.3101H203.346V56.2821C203.346 51.9261 205.218 50.3421 208.602 50.3421C208.926 50.3421 209.25 50.3781 209.538 50.4141L209.646 45.8781C209.322 45.8781 208.638 45.8781 208.35 45.9141ZM225.889 48.3981C224.377 46.7781 222.145 45.8781 219.301 45.8781C216.493 45.8781 214.333 46.7061 212.749 48.2541C210.985 49.9461 210.193 52.3941 210.193 55.2741C210.193 58.2981 211.057 60.6741 212.785 62.3661C214.297 63.8421 216.529 64.7421 219.337 64.7421C223.981 64.7421 227.005 62.7261 228.049 58.6941L223.153 58.2621C222.793 60.1341 221.641 61.1781 219.337 61.1781C216.637 61.1781 215.197 59.6301 215.161 56.6061H228.337C228.409 53.0781 227.617 50.2701 225.889 48.3981ZM219.301 49.3701C220.597 49.3701 221.497 49.6941 222.181 50.4141C222.829 51.0981 223.117 52.0341 223.225 53.1501H215.197C215.305 52.1781 215.593 51.3501 216.097 50.7021C216.781 49.8021 217.825 49.3701 219.301 49.3701ZM236.202 64.3101V58.6221H230.766V64.3101H236.202ZM248.231 64.3101V43.6821H256.259V39.1101H234.767V43.6821H242.795V64.3101H248.231ZM268.93 48.3981C267.418 46.7781 265.186 45.8781 262.342 45.8781C259.534 45.8781 257.374 46.7061 255.79 48.2541C254.026 49.9461 253.234 52.3941 253.234 55.2741C253.234 58.2981 254.098 60.6741 255.826 62.3661C257.338 63.8421 259.57 64.7421 262.378 64.7421C267.022 64.7421 270.046 62.7261 271.09 58.6941L266.194 58.2621C265.834 60.1341 264.682 61.1781 262.378 61.1781C259.678 61.1781 258.238 59.6301 258.202 56.6061H271.378C271.45 53.0781 270.658 50.2701 268.93 48.3981ZM262.342 49.3701C263.638 49.3701 264.538 49.6941 265.222 50.4141C265.87 51.0981 266.158 52.0341 266.266 53.1501H258.238C258.346 52.1781 258.634 51.3501 259.138 50.7021C259.822 49.8021 260.866 49.3701 262.342 49.3701ZM282.412 64.7421C287.164 64.7421 290.188 62.0781 290.764 58.4061L285.868 57.9021C285.4 59.8461 284.32 60.9981 282.412 60.9981C279.46 60.9981 278.632 59.0901 278.632 55.3101C278.632 53.2941 278.884 51.7461 279.604 50.8101C280.18 50.0181 281.08 49.6221 282.412 49.6221C284.752 49.6221 285.508 51.2781 285.868 53.2221L290.656 52.3941C289.936 48.5781 287.38 45.8781 282.412 45.8781C276.508 45.8781 273.16 49.7661 273.16 55.3101C273.16 61.2141 276.508 64.7421 282.412 64.7421ZM308.335 47.6781C307.111 46.3461 305.671 45.8781 303.331 45.8781C300.991 45.8781 299.047 46.8861 298.111 48.9381V39.1101H293.107V64.3101H298.147V54.3741C298.147 50.8461 300.019 49.7301 301.495 49.7301C302.575 49.7301 303.223 49.8381 303.907 50.5221C304.627 51.2421 304.807 51.9261 304.807 53.6181V64.3101H309.847V53.3661C309.847 50.8821 309.703 49.1541 308.335 47.6781Z" fill="#282828"/>
<rect x="1" y="1" width="93.2681" height="105" stroke="#282828" stroke-width="2"/>
<path d="M47.634 0L47.634 107" stroke="#282828" stroke-width="2"/>
<path d="M0.952637 1.07007L94.3154 105.93" stroke="#282828" stroke-width="2"/>
<path d="M8.57422 1.07007L47.6342 44.9401" stroke="#282828" stroke-width="2"/>
<path d="M86.6941 105.93L47.6342 62.06" stroke="#282828" stroke-width="2"/>
<path d="M16.1956 1.07007L47.634 36.3801" stroke="#282828" stroke-width="2"/>
<path d="M79.0725 105.93L47.634 70.62" stroke="#282828" stroke-width="2"/>
<path d="M23.8171 1.07007L47.6342 27.8201" stroke="#282828" stroke-width="2"/>
<path d="M71.4512 105.93L47.6341 79.1801" stroke="#282828" stroke-width="2"/>
<path d="M31.4385 1.07007L47.6341 19.2601" stroke="#282828" stroke-width="2"/>
<path d="M63.8296 105.93L47.634 87.7401" stroke="#282828" stroke-width="2"/>
<path d="M39.0601 1.07007L47.6342 10.7001" stroke="#282828" stroke-width="2"/>
<path d="M56.2083 105.93L47.6341 96.3" stroke="#282828" stroke-width="2"/>
</svg>
