<svg width="452" height="108" viewBox="0 0 452 108" fill="none" xmlns="http://www.w3.org/2000/svg">
<path d="M124.432 101.68L138.592 64.72H132.928L118.816 101.68H124.432ZM161.628 100V87.136H167.532C173.82 87.136 181.308 86.128 181.308 76.816C181.308 67.408 173.772 66.4 167.58 66.4H155.628V100H161.628ZM161.628 71.248H167.484C171.372 71.248 175.308 71.344 175.308 76.816C175.308 82.096 171.372 82.336 167.436 82.336H161.628V71.248ZM192.915 100V66.4H187.203V100H192.915ZM220.815 83.344C220.815 78.112 217.311 75.424 211.119 75.424C207.759 75.424 205.119 76.048 203.343 77.296C201.519 78.544 200.463 80.56 200.319 83.392L205.887 84.112C205.935 80.752 207.471 79.6 210.783 79.6C212.751 79.6 213.951 80.032 214.623 80.944C215.295 81.904 215.295 83.056 215.295 84.64L208.143 85.984C203.775 86.8 199.503 88.24 199.503 93.376C199.503 98.224 203.391 100.576 207.807 100.576C211.743 100.576 214.335 98.944 215.583 96.592C215.583 98.08 215.727 99.088 215.919 100H221.631V99.808C221.151 98.656 220.815 97.264 220.815 95.68V83.344ZM215.295 90.784C215.295 94.336 213.087 96.4 209.007 96.4C206.943 96.4 205.311 95.392 205.311 93.328C205.311 91.12 206.847 90.4 209.055 89.872L215.295 88.528V90.784ZM236.812 100.24C237.868 100.24 239.068 100.144 239.98 99.952L239.884 95.008C239.068 95.152 238.252 95.248 237.676 95.248C235.948 95.248 235.18 94.912 235.18 93.472V80.56H240.076V76H235.18V69.328H229.564V76H226.108V80.56H229.564V93.952C229.564 98.464 232.252 100.24 236.812 100.24ZM253.559 100V80.56H258.455V76H253.559V72.688C253.559 71.104 254.327 70.816 255.959 70.816C256.487 70.816 257.495 70.912 258.263 71.056L258.359 66.448C257.831 66.304 256.487 66.16 255.335 66.16C250.439 66.16 247.895 67.984 247.895 72.64V76H244.439V80.56H247.895V100H253.559ZM274.405 100.576C281.797 100.576 286.597 95.536 286.597 88C286.597 80.752 281.941 75.424 274.405 75.424C266.773 75.424 262.117 80.704 262.117 88C262.117 95.824 266.725 100.576 274.405 100.576ZM274.405 96.4C272.389 96.4 270.949 95.872 269.989 94.768C268.741 93.424 268.213 91.168 268.213 88C268.213 84.832 268.741 82.576 269.989 81.232C270.949 80.128 272.437 79.6 274.405 79.6C276.421 79.6 277.861 80.176 278.821 81.328C279.973 82.72 280.501 84.928 280.501 88C280.501 91.072 280.021 93.28 278.869 94.672C277.909 95.824 276.421 96.4 274.405 96.4ZM305.663 75.472C301.775 75.76 299.375 77.824 298.607 80.32V76H292.943V100H298.655V89.008C298.655 82.384 301.487 80.56 305.999 80.56C306.431 80.56 306.863 80.56 307.199 80.608L307.343 75.424C306.959 75.424 306.047 75.424 305.663 75.472ZM340.471 75.424C337.879 75.424 336.199 76.048 334.855 77.152C333.799 78.064 333.031 79.024 332.503 80.32C331.495 77.296 328.999 75.424 325.255 75.424C322.807 75.424 321.223 76.096 319.975 77.152C319.111 77.824 318.583 78.64 318.199 79.504V76H312.535V100H318.199V86.896C318.199 83.728 318.967 82.144 319.879 81.184C320.695 80.368 321.799 79.888 323.143 79.888C324.055 79.888 325.351 79.888 326.503 80.992C327.799 82.192 327.847 83.872 327.847 86.08V100H333.559V86.8C333.559 83.824 334.279 82.24 335.239 81.232C336.103 80.32 337.303 79.888 338.647 79.888C339.655 79.888 340.855 79.984 342.007 81.04C343.207 82.192 343.255 83.92 343.255 86.08V100H348.967V84.784C348.967 78.544 345.943 75.424 340.471 75.424Z" fill="#282828"/>
<rect x="1" y="4" width="98" height="98" stroke="#282828" stroke-width="2"/>
<path d="M50 3L50 103" stroke="#282828" stroke-width="2"/>
<path d="M1 4L99 102" stroke="#282828" stroke-width="2"/>
<path d="M9 4L50 45" stroke="#282828" stroke-width="2"/>
<path d="M91 102L50 61" stroke="#282828" stroke-width="2"/>
<path d="M17 4L50 37" stroke="#282828" stroke-width="2"/>
<path d="M83 102L50 69" stroke="#282828" stroke-width="2"/>
<path d="M25 4L50 29" stroke="#282828" stroke-width="2"/>
<path d="M75 102L50 77" stroke="#282828" stroke-width="2"/>
<path d="M33 4L50 21" stroke="#282828" stroke-width="2"/>
<path d="M67 102L50 85" stroke="#282828" stroke-width="2"/>
<path d="M41 4L50 13" stroke="#282828" stroke-width="2"/>
<path d="M59 102L50 93" stroke="#282828" stroke-width="2"/>
<path d="M128.394 44V26.612C128.394 25.532 128.286 20.294 128.07 16.136H128.178C129.366 19.484 131.58 23.534 132.876 25.964L142.272 44H151.668V6.2H144V23.426C144 25.64 144.108 30.716 144.324 34.334H144.216C142.92 30.878 140.598 26.612 139.086 23.642L130.122 6.2H120.726V44H128.394ZM186.177 25.262C186.177 19.376 181.857 16.352 174.837 16.352C170.787 16.352 167.763 17.054 165.657 18.512C163.443 20.024 162.255 22.508 162.255 26.018L169.653 26.558C169.653 22.778 171.327 21.698 174.297 21.698C176.457 21.698 177.483 22.076 178.185 23.048C178.887 24.02 178.833 25.316 178.833 26.558L171.489 27.908C166.089 28.88 161.283 30.554 161.283 36.332C161.283 41.894 165.549 44.648 170.841 44.648C175.161 44.648 177.969 42.704 179.265 40.382C179.319 41.678 179.481 43.028 179.751 44H187.257V43.784C186.663 42.65 186.177 41.192 186.177 39.14V25.262ZM178.833 33.524C178.833 37.628 176.241 39.302 172.677 39.302C170.625 39.302 169.059 38.384 169.059 36.278C169.059 34.226 170.463 33.362 172.731 32.876L178.833 31.526V33.524ZM206.964 44.27C208.368 44.27 209.826 44.162 210.96 43.892L210.852 37.466C209.988 37.628 209.07 37.736 208.368 37.736C206.532 37.736 205.56 37.304 205.56 35.792V22.94H211.068V17H205.56V9.494H198.108V17H194.22V22.94H198.108V36.656C198.108 42.272 201.78 44.27 206.964 44.27ZM237.436 31.688C237.436 37.088 235.06 38.924 232.468 38.924C230.956 38.924 229.768 38.762 228.742 37.628C227.662 36.386 227.554 34.712 227.554 32.228V17H219.832V32.606C219.832 36.224 220.156 39.464 222.262 41.678C224.206 43.73 226.528 44.648 229.93 44.648C233.494 44.648 236.14 43.082 237.544 40.22V44H244.888V17H237.436V31.688ZM270.337 16.406C265.963 16.73 263.641 18.998 262.723 22.022V17H255.271V44H262.831V31.958C262.831 25.424 265.639 23.048 270.715 23.048C271.201 23.048 271.687 23.102 272.119 23.156L272.281 16.352C271.795 16.352 270.769 16.352 270.337 16.406ZM301.506 20.132C299.238 17.702 295.89 16.352 291.624 16.352C287.412 16.352 284.172 17.594 281.796 19.916C279.15 22.454 277.962 26.126 277.962 30.446C277.962 34.982 279.258 38.546 281.85 41.084C284.118 43.298 287.466 44.648 291.678 44.648C298.644 44.648 303.18 41.624 304.746 35.576L297.402 34.928C296.862 37.736 295.134 39.302 291.678 39.302C287.628 39.302 285.468 36.98 285.414 32.444H305.178C305.286 27.152 304.098 22.94 301.506 20.132ZM291.624 21.59C293.568 21.59 294.918 22.076 295.944 23.156C296.916 24.182 297.348 25.586 297.51 27.26H285.468C285.63 25.802 286.062 24.56 286.818 23.588C287.844 22.238 289.41 21.59 291.624 21.59ZM321.836 44V35.468H313.682V44H321.836ZM344.739 44V13.058H356.781V6.2H324.543V13.058H336.585V44H344.739ZM380.648 20.132C378.38 17.702 375.032 16.352 370.766 16.352C366.554 16.352 363.314 17.594 360.938 19.916C358.292 22.454 357.104 26.126 357.104 30.446C357.104 34.982 358.4 38.546 360.992 41.084C363.26 43.298 366.608 44.648 370.82 44.648C377.786 44.648 382.322 41.624 383.888 35.576L376.544 34.928C376.004 37.736 374.276 39.302 370.82 39.302C366.77 39.302 364.61 36.98 364.556 32.444H384.32C384.428 27.152 383.24 22.94 380.648 20.132ZM370.766 21.59C372.71 21.59 374.06 22.076 375.086 23.156C376.058 24.182 376.49 25.586 376.652 27.26H364.61C364.772 25.802 365.204 24.56 365.96 23.588C366.986 22.238 368.552 21.59 370.766 21.59ZM405.73 44.648C412.858 44.648 417.394 40.652 418.258 35.144L410.914 34.388C410.212 37.304 408.592 39.032 405.73 39.032C401.302 39.032 400.06 36.17 400.06 30.5C400.06 27.476 400.438 25.154 401.518 23.75C402.382 22.562 403.732 21.968 405.73 21.968C409.24 21.968 410.374 24.452 410.914 27.368L418.096 26.126C417.016 20.402 413.182 16.352 405.73 16.352C396.874 16.352 391.852 22.184 391.852 30.5C391.852 39.356 396.874 44.648 405.73 44.648ZM449.474 19.052C447.638 17.054 445.478 16.352 441.968 16.352C438.458 16.352 435.542 17.864 434.138 20.942V6.2H426.632V44H434.192V29.096C434.192 23.804 437 22.13 439.214 22.13C440.834 22.13 441.806 22.292 442.832 23.318C443.912 24.398 444.182 25.424 444.182 27.962V44H451.742V27.584C451.742 23.858 451.526 21.266 449.474 19.052Z" fill="#282828"/>
</svg>
