<svg width="711" height="100" viewBox="0 0 711 100" fill="none" xmlns="http://www.w3.org/2000/svg">
<path d="M486.432 68.68L500.592 31.72H494.928L480.816 68.68H486.432ZM523.628 67V54.136H529.532C535.82 54.136 543.308 53.128 543.308 43.816C543.308 34.408 535.772 33.4 529.58 33.4H517.628V67H523.628ZM523.628 38.248H529.484C533.372 38.248 537.308 38.344 537.308 43.816C537.308 49.096 533.372 49.336 529.436 49.336H523.628V38.248ZM554.915 67V33.4H549.203V67H554.915ZM582.815 50.344C582.815 45.112 579.311 42.424 573.119 42.424C569.759 42.424 567.119 43.048 565.343 44.296C563.519 45.544 562.463 47.56 562.319 50.392L567.887 51.112C567.935 47.752 569.471 46.6 572.783 46.6C574.751 46.6 575.951 47.032 576.623 47.944C577.295 48.904 577.295 50.056 577.295 51.64L570.143 52.984C565.775 53.8 561.503 55.24 561.503 60.376C561.503 65.224 565.391 67.576 569.807 67.576C573.743 67.576 576.335 65.944 577.583 63.592C577.583 65.08 577.727 66.088 577.919 67H583.631V66.808C583.151 65.656 582.815 64.264 582.815 62.68V50.344ZM577.295 57.784C577.295 61.336 575.087 63.4 571.007 63.4C568.943 63.4 567.311 62.392 567.311 60.328C567.311 58.12 568.847 57.4 571.055 56.872L577.295 55.528V57.784ZM598.812 67.24C599.868 67.24 601.068 67.144 601.98 66.952L601.884 62.008C601.068 62.152 600.252 62.248 599.676 62.248C597.948 62.248 597.18 61.912 597.18 60.472V47.56H602.076V43H597.18V36.328H591.564V43H588.108V47.56H591.564V60.952C591.564 65.464 594.252 67.24 598.812 67.24ZM615.559 67V47.56H620.455V43H615.559V39.688C615.559 38.104 616.327 37.816 617.959 37.816C618.487 37.816 619.495 37.912 620.263 38.056L620.359 33.448C619.831 33.304 618.487 33.16 617.335 33.16C612.439 33.16 609.895 34.984 609.895 39.64V43H606.439V47.56H609.895V67H615.559ZM636.405 67.576C643.797 67.576 648.597 62.536 648.597 55C648.597 47.752 643.941 42.424 636.405 42.424C628.773 42.424 624.117 47.704 624.117 55C624.117 62.824 628.725 67.576 636.405 67.576ZM636.405 63.4C634.389 63.4 632.949 62.872 631.989 61.768C630.741 60.424 630.213 58.168 630.213 55C630.213 51.832 630.741 49.576 631.989 48.232C632.949 47.128 634.437 46.6 636.405 46.6C638.421 46.6 639.861 47.176 640.821 48.328C641.973 49.72 642.501 51.928 642.501 55C642.501 58.072 642.021 60.28 640.869 61.672C639.909 62.824 638.421 63.4 636.405 63.4ZM667.663 42.472C663.775 42.76 661.375 44.824 660.607 47.32V43H654.943V67H660.655V56.008C660.655 49.384 663.487 47.56 667.999 47.56C668.431 47.56 668.863 47.56 669.199 47.608L669.343 42.424C668.959 42.424 668.047 42.424 667.663 42.472ZM702.471 42.424C699.879 42.424 698.199 43.048 696.855 44.152C695.799 45.064 695.031 46.024 694.503 47.32C693.495 44.296 690.999 42.424 687.255 42.424C684.807 42.424 683.223 43.096 681.975 44.152C681.111 44.824 680.583 45.64 680.199 46.504V43H674.535V67H680.199V53.896C680.199 50.728 680.967 49.144 681.879 48.184C682.695 47.368 683.799 46.888 685.143 46.888C686.055 46.888 687.351 46.888 688.503 47.992C689.799 49.192 689.847 50.872 689.847 53.08V67H695.559V53.8C695.559 50.824 696.279 49.24 697.239 48.232C698.103 47.32 699.303 46.888 700.647 46.888C701.655 46.888 702.855 46.984 704.007 48.04C705.207 49.192 705.255 50.92 705.255 53.08V67H710.967V51.784C710.967 45.544 707.943 42.424 702.471 42.424Z" fill="#282828"/>
<path d="M136.394 68V50.612C136.394 49.532 136.286 44.294 136.07 40.136H136.178C137.366 43.484 139.58 47.534 140.876 49.964L150.272 68H159.668V30.2H152V47.426C152 49.64 152.108 54.716 152.324 58.334H152.216C150.92 54.878 148.598 50.612 147.086 47.642L138.122 30.2H128.726V68H136.394ZM194.177 49.262C194.177 43.376 189.857 40.352 182.837 40.352C178.787 40.352 175.763 41.054 173.657 42.512C171.443 44.024 170.255 46.508 170.255 50.018L177.653 50.558C177.653 46.778 179.327 45.698 182.297 45.698C184.457 45.698 185.483 46.076 186.185 47.048C186.887 48.02 186.833 49.316 186.833 50.558L179.489 51.908C174.089 52.88 169.283 54.554 169.283 60.332C169.283 65.894 173.549 68.648 178.841 68.648C183.161 68.648 185.969 66.704 187.265 64.382C187.319 65.678 187.481 67.028 187.751 68H195.257V67.784C194.663 66.65 194.177 65.192 194.177 63.14V49.262ZM186.833 57.524C186.833 61.628 184.241 63.302 180.677 63.302C178.625 63.302 177.059 62.384 177.059 60.278C177.059 58.226 178.463 57.362 180.731 56.876L186.833 55.526V57.524ZM214.964 68.27C216.368 68.27 217.826 68.162 218.96 67.892L218.852 61.466C217.988 61.628 217.07 61.736 216.368 61.736C214.532 61.736 213.56 61.304 213.56 59.792V46.94H219.068V41H213.56V33.494H206.108V41H202.22V46.94H206.108V60.656C206.108 66.272 209.78 68.27 214.964 68.27ZM245.436 55.688C245.436 61.088 243.06 62.924 240.468 62.924C238.956 62.924 237.768 62.762 236.742 61.628C235.662 60.386 235.554 58.712 235.554 56.228V41H227.832V56.606C227.832 60.224 228.156 63.464 230.262 65.678C232.206 67.73 234.528 68.648 237.93 68.648C241.494 68.648 244.14 67.082 245.544 64.22V68H252.888V41H245.436V55.688ZM278.337 40.406C273.963 40.73 271.641 42.998 270.723 46.022V41H263.271V68H270.831V55.958C270.831 49.424 273.639 47.048 278.715 47.048C279.201 47.048 279.687 47.102 280.119 47.156L280.281 40.352C279.795 40.352 278.769 40.352 278.337 40.406ZM309.506 44.132C307.238 41.702 303.89 40.352 299.624 40.352C295.412 40.352 292.172 41.594 289.796 43.916C287.15 46.454 285.962 50.126 285.962 54.446C285.962 58.982 287.258 62.546 289.85 65.084C292.118 67.298 295.466 68.648 299.678 68.648C306.644 68.648 311.18 65.624 312.746 59.576L305.402 58.928C304.862 61.736 303.134 63.302 299.678 63.302C295.628 63.302 293.468 60.98 293.414 56.444H313.178C313.286 51.152 312.098 46.94 309.506 44.132ZM299.624 45.59C301.568 45.59 302.918 46.076 303.944 47.156C304.916 48.182 305.348 49.586 305.51 51.26H293.468C293.63 49.802 294.062 48.56 294.818 47.588C295.844 46.238 297.41 45.59 299.624 45.59ZM329.836 68V59.468H321.682V68H329.836ZM352.739 68V37.058H364.781V30.2H332.543V37.058H344.585V68H352.739ZM388.648 44.132C386.38 41.702 383.032 40.352 378.766 40.352C374.554 40.352 371.314 41.594 368.938 43.916C366.292 46.454 365.104 50.126 365.104 54.446C365.104 58.982 366.4 62.546 368.992 65.084C371.26 67.298 374.608 68.648 378.82 68.648C385.786 68.648 390.322 65.624 391.888 59.576L384.544 58.928C384.004 61.736 382.276 63.302 378.82 63.302C374.77 63.302 372.61 60.98 372.556 56.444H392.32C392.428 51.152 391.24 46.94 388.648 44.132ZM378.766 45.59C380.71 45.59 382.06 46.076 383.086 47.156C384.058 48.182 384.49 49.586 384.652 51.26H372.61C372.772 49.802 373.204 48.56 373.96 47.588C374.986 46.238 376.552 45.59 378.766 45.59ZM413.73 68.648C420.858 68.648 425.394 64.652 426.258 59.144L418.914 58.388C418.212 61.304 416.592 63.032 413.73 63.032C409.302 63.032 408.06 60.17 408.06 54.5C408.06 51.476 408.438 49.154 409.518 47.75C410.382 46.562 411.732 45.968 413.73 45.968C417.24 45.968 418.374 48.452 418.914 51.368L426.096 50.126C425.016 44.402 421.182 40.352 413.73 40.352C404.874 40.352 399.852 46.184 399.852 54.5C399.852 63.356 404.874 68.648 413.73 68.648ZM457.474 43.052C455.638 41.054 453.478 40.352 449.968 40.352C446.458 40.352 443.542 41.864 442.138 44.942V30.2H434.632V68H442.192V53.096C442.192 47.804 445 46.13 447.214 46.13C448.834 46.13 449.806 46.292 450.832 47.318C451.912 48.398 452.182 49.424 452.182 51.962V68H459.742V51.584C459.742 47.858 459.526 45.266 457.474 43.052Z" fill="#282828"/>
<rect x="1" y="1" width="98" height="98" stroke="#282828" stroke-width="2"/>
<path d="M50 0L50 100" stroke="#282828" stroke-width="2"/>
<path d="M1 1L99 99" stroke="#282828" stroke-width="2"/>
<path d="M9 1L50 42" stroke="#282828" stroke-width="2"/>
<path d="M91 99L50 58" stroke="#282828" stroke-width="2"/>
<path d="M17 1L50 34" stroke="#282828" stroke-width="2"/>
<path d="M83 99L50 66" stroke="#282828" stroke-width="2"/>
<path d="M25 1L50 26" stroke="#282828" stroke-width="2"/>
<path d="M75 99L50 74" stroke="#282828" stroke-width="2"/>
<path d="M33 1L50 18" stroke="#282828" stroke-width="2"/>
<path d="M67 99L50 82" stroke="#282828" stroke-width="2"/>
<path d="M41 1L50 10" stroke="#282828" stroke-width="2"/>
<path d="M59 99L50 90" stroke="#282828" stroke-width="2"/>
</svg>
