<svg width="690" height="100" viewBox="0 0 690 100" fill="none" xmlns="http://www.w3.org/2000/svg">
<path d="M486.432 68.68L500.592 31.72H494.928L480.816 68.68H486.432ZM529.676 67.576C536.636 67.576 543.596 65.32 543.596 57.208C543.596 50.008 537.932 48.184 530.876 47.032C526.22 46.264 522.476 45.304 522.476 42.232C522.476 39.064 525.5 37.624 528.908 37.624C533.468 37.624 536.204 39.928 536.396 44.584L542.492 43.528C541.724 35.608 536.108 32.824 528.956 32.824C522.908 32.824 516.38 35.368 516.38 42.52C516.38 48.952 521.804 51.16 527.9 52.504C532.94 53.608 537.452 53.464 537.452 57.448C537.452 61.384 533.996 62.728 529.724 62.728C525.068 62.728 521.66 60.232 521.66 55.288L515.468 55.96C515.564 63.928 522.14 67.576 529.676 67.576ZM558.691 67.24C559.747 67.24 560.947 67.144 561.859 66.952L561.763 62.008C560.947 62.152 560.131 62.248 559.555 62.248C557.827 62.248 557.059 61.912 557.059 60.472V47.56H561.955V43H557.059V36.328H551.443V43H547.987V47.56H551.443V60.952C551.443 65.464 554.131 67.24 558.691 67.24ZM583.79 56.248C583.79 61.96 580.862 63.112 578.606 63.112C577.214 63.112 575.966 63.016 574.814 61.864C573.662 60.664 573.614 58.984 573.614 56.776V43H567.806V57.064C567.806 59.992 567.998 62.968 569.87 64.936C571.598 66.76 573.71 67.576 576.782 67.576C580.094 67.576 582.542 66.136 583.838 63.496V67H589.406V43H583.79V56.248ZM613.761 45.976C612.177 43.624 609.681 42.424 606.561 42.424C600.129 42.424 595.809 47.416 595.809 55C595.809 62.824 600.369 67.576 606.657 67.576C609.825 67.576 612.369 66.232 613.761 63.592V67H619.425V33.4H613.761V45.976ZM611.937 61.864C610.977 62.872 609.681 63.4 607.953 63.4C603.297 63.4 602.001 60.52 602.001 55C602.001 52.024 602.433 49.816 603.585 48.424C604.497 47.272 605.937 46.648 608.049 46.648C612.609 46.648 613.905 50.248 613.905 55.048C613.905 58.12 613.281 60.424 611.937 61.864ZM632.862 39.256V33.112H627.15V39.256H632.862ZM632.862 67V43H627.15V67H632.862ZM651.498 67.576C658.89 67.576 663.69 62.536 663.69 55C663.69 47.752 659.034 42.424 651.498 42.424C643.866 42.424 639.21 47.704 639.21 55C639.21 62.824 643.818 67.576 651.498 67.576ZM651.498 63.4C649.482 63.4 648.042 62.872 647.082 61.768C645.834 60.424 645.306 58.168 645.306 55C645.306 51.832 645.834 49.576 647.082 48.232C648.042 47.128 649.53 46.6 651.498 46.6C653.514 46.6 654.954 47.176 655.914 48.328C657.066 49.72 657.594 51.928 657.594 55C657.594 58.072 657.114 60.28 655.962 61.672C655.002 62.824 653.514 63.4 651.498 63.4ZM679.109 67.576C684.389 67.576 689.429 65.8 689.429 59.992C689.429 54.328 684.293 53.32 679.781 52.312C676.709 51.64 674.501 51.064 674.501 49.192C674.501 47.32 676.469 46.504 678.581 46.504C681.605 46.504 683.429 47.944 683.573 50.92L688.805 50.056C688.277 44.344 683.813 42.424 678.581 42.424C673.781 42.424 669.125 44.488 669.125 49.624C669.125 54.472 673.205 55.816 677.477 56.92C681.077 57.832 684.053 58.216 684.053 60.328C684.053 62.344 682.373 63.496 679.157 63.496C675.989 63.496 673.829 61.864 673.781 58.744L668.453 59.368C668.645 65.128 673.493 67.576 679.109 67.576Z" fill="#282828"/>
<path d="M136.394 68V50.612C136.394 49.532 136.286 44.294 136.07 40.136H136.178C137.366 43.484 139.58 47.534 140.876 49.964L150.272 68H159.668V30.2H152V47.426C152 49.64 152.108 54.716 152.324 58.334H152.216C150.92 54.878 148.598 50.612 147.086 47.642L138.122 30.2H128.726V68H136.394ZM194.177 49.262C194.177 43.376 189.857 40.352 182.837 40.352C178.787 40.352 175.763 41.054 173.657 42.512C171.443 44.024 170.255 46.508 170.255 50.018L177.653 50.558C177.653 46.778 179.327 45.698 182.297 45.698C184.457 45.698 185.483 46.076 186.185 47.048C186.887 48.02 186.833 49.316 186.833 50.558L179.489 51.908C174.089 52.88 169.283 54.554 169.283 60.332C169.283 65.894 173.549 68.648 178.841 68.648C183.161 68.648 185.969 66.704 187.265 64.382C187.319 65.678 187.481 67.028 187.751 68H195.257V67.784C194.663 66.65 194.177 65.192 194.177 63.14V49.262ZM186.833 57.524C186.833 61.628 184.241 63.302 180.677 63.302C178.625 63.302 177.059 62.384 177.059 60.278C177.059 58.226 178.463 57.362 180.731 56.876L186.833 55.526V57.524ZM214.964 68.27C216.368 68.27 217.826 68.162 218.96 67.892L218.852 61.466C217.988 61.628 217.07 61.736 216.368 61.736C214.532 61.736 213.56 61.304 213.56 59.792V46.94H219.068V41H213.56V33.494H206.108V41H202.22V46.94H206.108V60.656C206.108 66.272 209.78 68.27 214.964 68.27ZM245.436 55.688C245.436 61.088 243.06 62.924 240.468 62.924C238.956 62.924 237.768 62.762 236.742 61.628C235.662 60.386 235.554 58.712 235.554 56.228V41H227.832V56.606C227.832 60.224 228.156 63.464 230.262 65.678C232.206 67.73 234.528 68.648 237.93 68.648C241.494 68.648 244.14 67.082 245.544 64.22V68H252.888V41H245.436V55.688ZM278.337 40.406C273.963 40.73 271.641 42.998 270.723 46.022V41H263.271V68H270.831V55.958C270.831 49.424 273.639 47.048 278.715 47.048C279.201 47.048 279.687 47.102 280.119 47.156L280.281 40.352C279.795 40.352 278.769 40.352 278.337 40.406ZM309.506 44.132C307.238 41.702 303.89 40.352 299.624 40.352C295.412 40.352 292.172 41.594 289.796 43.916C287.15 46.454 285.962 50.126 285.962 54.446C285.962 58.982 287.258 62.546 289.85 65.084C292.118 67.298 295.466 68.648 299.678 68.648C306.644 68.648 311.18 65.624 312.746 59.576L305.402 58.928C304.862 61.736 303.134 63.302 299.678 63.302C295.628 63.302 293.468 60.98 293.414 56.444H313.178C313.286 51.152 312.098 46.94 309.506 44.132ZM299.624 45.59C301.568 45.59 302.918 46.076 303.944 47.156C304.916 48.182 305.348 49.586 305.51 51.26H293.468C293.63 49.802 294.062 48.56 294.818 47.588C295.844 46.238 297.41 45.59 299.624 45.59ZM329.836 68V59.468H321.682V68H329.836ZM352.739 68V37.058H364.781V30.2H332.543V37.058H344.585V68H352.739ZM388.648 44.132C386.38 41.702 383.032 40.352 378.766 40.352C374.554 40.352 371.314 41.594 368.938 43.916C366.292 46.454 365.104 50.126 365.104 54.446C365.104 58.982 366.4 62.546 368.992 65.084C371.26 67.298 374.608 68.648 378.82 68.648C385.786 68.648 390.322 65.624 391.888 59.576L384.544 58.928C384.004 61.736 382.276 63.302 378.82 63.302C374.77 63.302 372.61 60.98 372.556 56.444H392.32C392.428 51.152 391.24 46.94 388.648 44.132ZM378.766 45.59C380.71 45.59 382.06 46.076 383.086 47.156C384.058 48.182 384.49 49.586 384.652 51.26H372.61C372.772 49.802 373.204 48.56 373.96 47.588C374.986 46.238 376.552 45.59 378.766 45.59ZM413.73 68.648C420.858 68.648 425.394 64.652 426.258 59.144L418.914 58.388C418.212 61.304 416.592 63.032 413.73 63.032C409.302 63.032 408.06 60.17 408.06 54.5C408.06 51.476 408.438 49.154 409.518 47.75C410.382 46.562 411.732 45.968 413.73 45.968C417.24 45.968 418.374 48.452 418.914 51.368L426.096 50.126C425.016 44.402 421.182 40.352 413.73 40.352C404.874 40.352 399.852 46.184 399.852 54.5C399.852 63.356 404.874 68.648 413.73 68.648ZM457.474 43.052C455.638 41.054 453.478 40.352 449.968 40.352C446.458 40.352 443.542 41.864 442.138 44.942V30.2H434.632V68H442.192V53.096C442.192 47.804 445 46.13 447.214 46.13C448.834 46.13 449.806 46.292 450.832 47.318C451.912 48.398 452.182 49.424 452.182 51.962V68H459.742V51.584C459.742 47.858 459.526 45.266 457.474 43.052Z" fill="#282828"/>
<rect x="1" y="1" width="98" height="98" stroke="#282828" stroke-width="2"/>
<path d="M50 0L50 100" stroke="#282828" stroke-width="2"/>
<path d="M1 1L99 99" stroke="#282828" stroke-width="2"/>
<path d="M9 1L50 42" stroke="#282828" stroke-width="2"/>
<path d="M91 99L50 58" stroke="#282828" stroke-width="2"/>
<path d="M17 1L50 34" stroke="#282828" stroke-width="2"/>
<path d="M83 99L50 66" stroke="#282828" stroke-width="2"/>
<path d="M25 1L50 26" stroke="#282828" stroke-width="2"/>
<path d="M75 99L50 74" stroke="#282828" stroke-width="2"/>
<path d="M33 1L50 18" stroke="#282828" stroke-width="2"/>
<path d="M67 99L50 82" stroke="#282828" stroke-width="2"/>
<path d="M41 1L50 10" stroke="#282828" stroke-width="2"/>
<path d="M59 99L50 90" stroke="#282828" stroke-width="2"/>
</svg>
