<svg width="161" height="151" viewBox="0 0 161 151" fill="none" xmlns="http://www.w3.org/2000/svg">
<rect x="1" y="1" width="98" height="98" stroke="white" stroke-width="2"/>
<path d="M50 0L50 100" stroke="white" stroke-width="2"/>
<path d="M1 1L99 99" stroke="white" stroke-width="2"/>
<path d="M9 1L50 42" stroke="white" stroke-width="2"/>
<path d="M91 99L50 58" stroke="white" stroke-width="2"/>
<path d="M17 1L50 34" stroke="white" stroke-width="2"/>
<path d="M83 99L50 66" stroke="white" stroke-width="2"/>
<path d="M25 1L50 26" stroke="white" stroke-width="2"/>
<path d="M75 99L50 74" stroke="white" stroke-width="2"/>
<path d="M33 1L50 18" stroke="white" stroke-width="2"/>
<path d="M67 99L50 82" stroke="white" stroke-width="2"/>
<path d="M41 1L50 10" stroke="white" stroke-width="2"/>
<path d="M59 99L50 90" stroke="white" stroke-width="2"/>
<path d="M6.13745 125V119.204C6.13745 118.844 6.10145 117.098 6.02945 115.712H6.06545C6.46145 116.828 7.19945 118.178 7.63145 118.988L10.7635 125H13.8955V112.4H11.3395V118.142C11.3395 118.88 11.3755 120.572 11.4475 121.778H11.4115C10.9795 120.626 10.2055 119.204 9.70145 118.214L6.71345 112.4H3.58145V125H6.13745ZM23.7784 118.754C23.7784 116.792 22.3384 115.784 19.9984 115.784C18.6484 115.784 17.6404 116.018 16.9384 116.504C16.2004 117.008 15.8044 117.836 15.8044 119.006L18.2704 119.186C18.2704 117.926 18.8284 117.566 19.8184 117.566C20.5384 117.566 20.8804 117.692 21.1144 118.016C21.3484 118.34 21.3304 118.772 21.3304 119.186L18.8824 119.636C17.0824 119.96 15.4804 120.518 15.4804 122.444C15.4804 124.298 16.9024 125.216 18.6664 125.216C20.1064 125.216 21.0424 124.568 21.4744 123.794C21.4924 124.226 21.5464 124.676 21.6364 125H24.1384V124.928C23.9404 124.55 23.7784 124.064 23.7784 123.38V118.754ZM21.3304 121.508C21.3304 122.876 20.4664 123.434 19.2784 123.434C18.5944 123.434 18.0724 123.128 18.0724 122.426C18.0724 121.742 18.5404 121.454 19.2964 121.292L21.3304 120.842V121.508ZM29.0875 125.09C29.5555 125.09 30.0415 125.054 30.4195 124.964L30.3835 122.822C30.0955 122.876 29.7895 122.912 29.5555 122.912C28.9435 122.912 28.6195 122.768 28.6195 122.264V117.98H30.4555V116H28.6195V113.498H26.1355V116H24.8395V117.98H26.1355V122.552C26.1355 124.424 27.3595 125.09 29.0875 125.09ZM37.6249 120.896C37.6249 122.696 36.8329 123.308 35.9689 123.308C35.4649 123.308 35.0689 123.254 34.7269 122.876C34.3669 122.462 34.3309 121.904 34.3309 121.076V116H31.7569V121.202C31.7569 122.408 31.8649 123.488 32.5669 124.226C33.2149 124.91 33.9889 125.216 35.1229 125.216C36.3109 125.216 37.1929 124.694 37.6609 123.74V125H40.1089V116H37.6249V120.896ZM46.9717 115.802C45.5137 115.91 44.7397 116.666 44.4337 117.674V116H41.9497V125H44.4697V120.986C44.4697 118.808 45.4057 118.016 47.0977 118.016C47.2597 118.016 47.4217 118.034 47.5657 118.052L47.6197 115.784C47.4577 115.784 47.1157 115.784 46.9717 115.802ZM55.7415 117.044C54.9855 116.234 53.8695 115.784 52.4475 115.784C51.0435 115.784 49.9635 116.198 49.1715 116.972C48.2895 117.818 47.8935 119.042 47.8935 120.482C47.8935 121.994 48.3255 123.182 49.1895 124.028C49.9455 124.766 51.0615 125.216 52.4655 125.216C54.7875 125.216 56.2995 124.208 56.8215 122.192L54.3735 121.976C54.1935 122.912 53.6175 123.434 52.4655 123.434C51.1155 123.434 50.3955 122.66 50.3775 121.148H56.9655C57.0015 119.384 56.6055 117.98 55.7415 117.044ZM52.4475 117.53C53.0955 117.53 53.5455 117.692 53.8875 118.052C54.2115 118.394 54.3555 118.862 54.4095 119.42H50.3955C50.4495 118.934 50.5935 118.52 50.8455 118.196C51.1875 117.746 51.7095 117.53 52.4475 117.53ZM60.8981 125V122.156H58.1801V125H60.8981ZM66.9125 125V114.686H70.9265V112.4H60.1805V114.686H64.1945V125H66.9125ZM77.2621 117.044C76.5061 116.234 75.3901 115.784 73.9681 115.784C72.5641 115.784 71.4841 116.198 70.6921 116.972C69.8101 117.818 69.4141 119.042 69.4141 120.482C69.4141 121.994 69.8461 123.182 70.7101 124.028C71.4661 124.766 72.5821 125.216 73.9861 125.216C76.3081 125.216 77.8201 124.208 78.3421 122.192L75.8941 121.976C75.7141 122.912 75.1381 123.434 73.9861 123.434C72.6361 123.434 71.9161 122.66 71.8981 121.148H78.4861C78.5221 119.384 78.1261 117.98 77.2621 117.044ZM73.9681 117.53C74.6161 117.53 75.0661 117.692 75.4081 118.052C75.7321 118.394 75.8761 118.862 75.9301 119.42H71.9161C71.9701 118.934 72.1141 118.52 72.3661 118.196C72.7081 117.746 73.2301 117.53 73.9681 117.53ZM84.0026 125.216C86.3786 125.216 87.8906 123.884 88.1786 122.048L85.7306 121.796C85.4966 122.768 84.9566 123.344 84.0026 123.344C82.5266 123.344 82.1126 122.39 82.1126 120.5C82.1126 119.492 82.2386 118.718 82.5986 118.25C82.8866 117.854 83.3366 117.656 84.0026 117.656C85.1726 117.656 85.5506 118.484 85.7306 119.456L88.1246 119.042C87.7646 117.134 86.4866 115.784 84.0026 115.784C81.0506 115.784 79.3766 117.728 79.3766 120.5C79.3766 123.452 81.0506 125.216 84.0026 125.216ZM96.9642 116.684C96.3522 116.018 95.6322 115.784 94.4622 115.784C93.2922 115.784 92.3202 116.288 91.8522 117.314V112.4H89.3502V125H91.8702V120.032C91.8702 118.268 92.8062 117.71 93.5442 117.71C94.0842 117.71 94.4082 117.764 94.7502 118.106C95.1102 118.466 95.2002 118.808 95.2002 119.654V125H97.7202V119.528C97.7202 118.286 97.6482 117.422 96.9642 116.684Z" fill="white"/>
<path d="M7.06209 142.56L11.7821 130.24H9.89409L5.19009 142.56H7.06209ZM19.8766 142.192C22.1966 142.192 24.5166 141.44 24.5166 138.736C24.5166 136.336 22.6286 135.728 20.2766 135.344C18.7246 135.088 17.4766 134.768 17.4766 133.744C17.4766 132.688 18.4846 132.208 19.6206 132.208C21.1406 132.208 22.0526 132.976 22.1166 134.528L24.1486 134.176C23.8926 131.536 22.0206 130.608 19.6366 130.608C17.6206 130.608 15.4446 131.456 15.4446 133.84C15.4446 135.984 17.2526 136.72 19.2846 137.168C20.9646 137.536 22.4686 137.488 22.4686 138.816C22.4686 140.128 21.3166 140.576 19.8926 140.576C18.3406 140.576 17.2046 139.744 17.2046 138.096L15.1406 138.32C15.1726 140.976 17.3646 142.192 19.8766 142.192ZM28.7483 142.08C29.1003 142.08 29.5003 142.048 29.8043 141.984L29.7723 140.336C29.5003 140.384 29.2283 140.416 29.0363 140.416C28.4603 140.416 28.2043 140.304 28.2043 139.824V135.52H29.8363V134H28.2043V131.776H26.3323V134H25.1803V135.52H26.3323V139.984C26.3323 141.488 27.2283 142.08 28.7483 142.08ZM36.3146 138.416C36.3146 140.32 35.3386 140.704 34.5866 140.704C34.1226 140.704 33.7066 140.672 33.3226 140.288C32.9386 139.888 32.9226 139.328 32.9226 138.592V134H30.9866V138.688C30.9866 139.664 31.0506 140.656 31.6746 141.312C32.2506 141.92 32.9546 142.192 33.9786 142.192C35.0826 142.192 35.8986 141.712 36.3306 140.832V142H38.1866V134H36.3146V138.416ZM45.5051 134.992C44.9771 134.208 44.1451 133.808 43.1051 133.808C40.9611 133.808 39.5211 135.472 39.5211 138C39.5211 140.608 41.0411 142.192 43.1371 142.192C44.1931 142.192 45.0411 141.744 45.5051 140.864V142H47.3931V130.8H45.5051V134.992ZM44.8971 140.288C44.5771 140.624 44.1451 140.8 43.5691 140.8C42.0171 140.8 41.5851 139.84 41.5851 138C41.5851 137.008 41.7291 136.272 42.1131 135.808C42.4171 135.424 42.8971 135.216 43.6011 135.216C45.1211 135.216 45.5531 136.416 45.5531 138.016C45.5531 139.04 45.3451 139.808 44.8971 140.288ZM51.0721 132.752V130.704H49.1681V132.752H51.0721ZM51.0721 142V134H49.1681V142H51.0721ZM56.4842 142.192C58.9482 142.192 60.5482 140.512 60.5482 138C60.5482 135.584 58.9962 133.808 56.4842 133.808C53.9402 133.808 52.3882 135.568 52.3882 138C52.3882 140.608 53.9242 142.192 56.4842 142.192ZM56.4842 140.8C55.8122 140.8 55.3322 140.624 55.0122 140.256C54.5962 139.808 54.4202 139.056 54.4202 138C54.4202 136.944 54.5962 136.192 55.0122 135.744C55.3322 135.376 55.8282 135.2 56.4842 135.2C57.1562 135.2 57.6362 135.392 57.9562 135.776C58.3402 136.24 58.5162 136.976 58.5162 138C58.5162 139.024 58.3562 139.76 57.9722 140.224C57.6522 140.608 57.1562 140.8 56.4842 140.8ZM65.8252 142.56L70.5452 130.24H68.6572L63.9532 142.56H65.8252ZM79.3597 137.648H82.6557C82.5277 139.568 81.4077 140.576 79.6157 140.576C78.3197 140.576 77.4237 140.224 76.8797 139.44C76.3837 138.752 76.1597 137.776 76.1597 136.4C76.1597 135.04 76.4317 134.032 76.9117 133.36C77.4717 132.576 78.3837 132.224 79.5517 132.224C81.1997 132.224 82.0637 133.264 82.3997 134.56L84.4797 134.16C83.8717 131.84 82.0157 130.608 79.5517 130.608C76.0157 130.608 74.0317 132.992 74.0317 136.4C74.0317 140.128 75.9997 142.192 79.3277 142.192C80.8477 142.192 82.1117 141.584 82.7997 140.512L82.9277 142H84.6077V135.936H79.3597V137.648ZM90.4481 133.824C89.1521 133.92 88.3521 134.608 88.0961 135.44V134H86.2081V142H88.1121V138.336C88.1121 136.128 89.0561 135.52 90.5601 135.52C90.7041 135.52 90.8481 135.52 90.9601 135.536L91.0081 133.808C90.8801 133.808 90.5761 133.808 90.4481 133.824ZM98.2167 135.136C97.5447 134.288 96.4727 133.808 95.2087 133.808C93.9927 133.808 93.0327 134.192 92.3287 134.928C91.6087 135.696 91.2567 136.752 91.2567 137.984C91.2567 139.28 91.5927 140.336 92.3287 141.088C93.0167 141.792 93.9767 142.192 95.2247 142.192C97.2727 142.192 98.5847 141.28 99.0007 139.44L97.1607 139.296C96.9847 140.272 96.3767 140.768 95.2087 140.768C93.8807 140.768 93.2087 140.016 93.1767 138.528H99.1287C99.1767 137.152 98.8567 135.936 98.2167 135.136ZM95.2087 135.232C95.9127 135.232 96.3927 135.424 96.7447 135.856C97.0167 136.192 97.1607 136.656 97.1927 137.104H93.1927C93.2247 136.72 93.3367 136.288 93.5927 135.936C93.9127 135.488 94.4567 135.232 95.2087 135.232ZM106.963 135.136C106.291 134.288 105.219 133.808 103.955 133.808C102.739 133.808 101.779 134.192 101.075 134.928C100.355 135.696 100.003 136.752 100.003 137.984C100.003 139.28 100.339 140.336 101.075 141.088C101.763 141.792 102.723 142.192 103.971 142.192C106.019 142.192 107.331 141.28 107.747 139.44L105.907 139.296C105.731 140.272 105.123 140.768 103.955 140.768C102.627 140.768 101.955 140.016 101.923 138.528H107.875C107.923 137.152 107.603 135.936 106.963 135.136ZM103.955 135.232C104.659 135.232 105.139 135.424 105.491 135.856C105.763 136.192 105.907 136.656 105.939 137.104H101.939C101.971 136.72 102.083 136.288 102.339 135.936C102.659 135.488 103.203 135.232 103.955 135.232ZM115.725 134.624C115.181 134.064 114.525 133.808 113.485 133.808C112.333 133.808 111.469 134.24 111.069 135.216V134H109.181V142H111.085V137.616C111.085 135.68 112.125 135.296 112.829 135.296C113.293 135.296 113.677 135.328 114.029 135.68C114.445 136.064 114.477 136.576 114.477 137.312V142H116.397V137.168C116.397 136.208 116.349 135.264 115.725 134.624ZM124.659 134.656C124.099 134.048 123.411 133.808 122.371 133.808C121.299 133.808 120.419 134.256 119.987 135.184V130.8H118.099V142H120.003V137.552C120.003 135.648 121.059 135.296 121.747 135.296C122.211 135.296 122.595 135.328 122.963 135.696C123.363 136.08 123.395 136.528 123.395 137.264V142H125.315V137.168C125.315 136.176 125.267 135.312 124.659 134.656ZM130.665 142.192C133.129 142.192 134.729 140.512 134.729 138C134.729 135.584 133.177 133.808 130.665 133.808C128.121 133.808 126.569 135.568 126.569 138C126.569 140.608 128.105 142.192 130.665 142.192ZM130.665 140.8C129.993 140.8 129.513 140.624 129.193 140.256C128.777 139.808 128.601 139.056 128.601 138C128.601 136.944 128.777 136.192 129.193 135.744C129.513 135.376 130.009 135.2 130.665 135.2C131.337 135.2 131.817 135.392 132.137 135.776C132.521 136.24 132.697 136.976 132.697 138C132.697 139.024 132.537 139.76 132.153 140.224C131.833 140.608 131.337 140.8 130.665 140.8ZM141.309 138.416C141.309 140.32 140.333 140.704 139.581 140.704C139.117 140.704 138.701 140.672 138.317 140.288C137.933 139.888 137.917 139.328 137.917 138.592V134H135.981V138.688C135.981 139.664 136.045 140.656 136.669 141.312C137.245 141.92 137.949 142.192 138.973 142.192C140.077 142.192 140.893 141.712 141.325 140.832V142H143.181V134H141.309V138.416ZM147.971 142.192C149.731 142.192 151.411 141.6 151.411 139.664C151.411 137.776 149.699 137.44 148.195 137.104C147.171 136.88 146.435 136.688 146.435 136.064C146.435 135.44 147.091 135.168 147.795 135.168C148.803 135.168 149.411 135.648 149.459 136.64L151.203 136.352C151.027 134.448 149.539 133.808 147.795 133.808C146.195 133.808 144.643 134.496 144.643 136.208C144.643 137.824 146.003 138.272 147.427 138.64C148.627 138.944 149.619 139.072 149.619 139.776C149.619 140.448 149.059 140.832 147.987 140.832C146.931 140.832 146.211 140.288 146.195 139.248L144.419 139.456C144.483 141.376 146.099 142.192 147.971 142.192ZM159.253 135.136C158.581 134.288 157.509 133.808 156.245 133.808C155.029 133.808 154.069 134.192 153.365 134.928C152.645 135.696 152.293 136.752 152.293 137.984C152.293 139.28 152.629 140.336 153.365 141.088C154.053 141.792 155.013 142.192 156.261 142.192C158.309 142.192 159.621 141.28 160.037 139.44L158.197 139.296C158.021 140.272 157.413 140.768 156.245 140.768C154.917 140.768 154.245 140.016 154.213 138.528H160.165C160.213 137.152 159.893 135.936 159.253 135.136ZM156.245 135.232C156.949 135.232 157.429 135.424 157.781 135.856C158.053 136.192 158.197 136.656 158.229 137.104H154.229C154.261 136.72 154.373 136.288 154.629 135.936C154.949 135.488 155.493 135.232 156.245 135.232Z" fill="white"/>
</svg>
