<svg width="472" height="105" viewBox="0 0 472 105" fill="none" xmlns="http://www.w3.org/2000/svg">
<path d="M129.556 98.19L139.586 72.01H135.574L125.578 98.19H129.556ZM156.787 97.408C161.717 97.408 166.647 95.81 166.647 90.064C166.647 84.964 162.635 83.672 157.637 82.856C154.339 82.312 151.687 81.632 151.687 79.456C151.687 77.212 153.829 76.192 156.243 76.192C159.473 76.192 161.411 77.824 161.547 81.122L165.865 80.374C165.321 74.764 161.343 72.792 156.277 72.792C151.993 72.792 147.369 74.594 147.369 79.66C147.369 84.216 151.211 85.78 155.529 86.732C159.099 87.514 162.295 87.412 162.295 90.234C162.295 93.022 159.847 93.974 156.821 93.974C153.523 93.974 151.109 92.206 151.109 88.704L146.723 89.18C146.791 94.824 151.449 97.408 156.787 97.408ZM175.639 97.17C176.387 97.17 177.237 97.102 177.883 96.966L177.815 93.464C177.237 93.566 176.659 93.634 176.251 93.634C175.027 93.634 174.483 93.396 174.483 92.376V83.23H177.951V80H174.483V75.274H170.505V80H168.057V83.23H170.505V92.716C170.505 95.912 172.409 97.17 175.639 97.17ZM191.718 89.384C191.718 93.43 189.644 94.246 188.046 94.246C187.06 94.246 186.176 94.178 185.36 93.362C184.544 92.512 184.51 91.322 184.51 89.758V80H180.396V89.962C180.396 92.036 180.532 94.144 181.858 95.538C183.082 96.83 184.578 97.408 186.754 97.408C189.1 97.408 190.834 96.388 191.752 94.518V97H195.696V80H191.718V89.384ZM211.247 82.108C210.125 80.442 208.357 79.592 206.147 79.592C201.591 79.592 198.531 83.128 198.531 88.5C198.531 94.042 201.761 97.408 206.215 97.408C208.459 97.408 210.261 96.456 211.247 94.586V97H215.259V73.2H211.247V82.108ZM209.955 93.362C209.275 94.076 208.357 94.45 207.133 94.45C203.835 94.45 202.917 92.41 202.917 88.5C202.917 86.392 203.223 84.828 204.039 83.842C204.685 83.026 205.705 82.584 207.201 82.584C210.431 82.584 211.349 85.134 211.349 88.534C211.349 90.71 210.907 92.342 209.955 93.362ZM223.077 77.348V72.996H219.031V77.348H223.077ZM223.077 97V80H219.031V97H223.077ZM234.578 97.408C239.814 97.408 243.214 93.838 243.214 88.5C243.214 83.366 239.916 79.592 234.578 79.592C229.172 79.592 225.874 83.332 225.874 88.5C225.874 94.042 229.138 97.408 234.578 97.408ZM234.578 94.45C233.15 94.45 232.13 94.076 231.45 93.294C230.566 92.342 230.192 90.744 230.192 88.5C230.192 86.256 230.566 84.658 231.45 83.706C232.13 82.924 233.184 82.55 234.578 82.55C236.006 82.55 237.026 82.958 237.706 83.774C238.522 84.76 238.896 86.324 238.896 88.5C238.896 90.676 238.556 92.24 237.74 93.226C237.06 94.042 236.006 94.45 234.578 94.45ZM252.435 97.408C256.175 97.408 259.745 96.15 259.745 92.036C259.745 88.024 256.107 87.31 252.911 86.596C250.735 86.12 249.171 85.712 249.171 84.386C249.171 83.06 250.565 82.482 252.061 82.482C254.203 82.482 255.495 83.502 255.597 85.61L259.303 84.998C258.929 80.952 255.767 79.592 252.061 79.592C248.661 79.592 245.363 81.054 245.363 84.692C245.363 88.126 248.253 89.078 251.279 89.86C253.829 90.506 255.937 90.778 255.937 92.274C255.937 93.702 254.747 94.518 252.469 94.518C250.225 94.518 248.695 93.362 248.661 91.152L244.887 91.594C245.023 95.674 248.457 97.408 252.435 97.408ZM270.955 98.19L280.985 72.01H276.973L266.977 98.19H270.955ZM299.716 87.752H306.72C306.448 91.832 304.068 93.974 300.26 93.974C297.506 93.974 295.602 93.226 294.446 91.56C293.392 90.098 292.916 88.024 292.916 85.1C292.916 82.21 293.494 80.068 294.514 78.64C295.704 76.974 297.642 76.226 300.124 76.226C303.626 76.226 305.462 78.436 306.176 81.19L310.596 80.34C309.304 75.41 305.36 72.792 300.124 72.792C292.61 72.792 288.394 77.858 288.394 85.1C288.394 93.022 292.576 97.408 299.648 97.408C302.878 97.408 305.564 96.116 307.026 93.838L307.298 97H310.868V84.114H299.716V87.752ZM323.278 79.626C320.524 79.83 318.824 81.292 318.28 83.06V80H314.268V97H318.314V89.214C318.314 84.522 320.32 83.23 323.516 83.23C323.822 83.23 324.128 83.23 324.366 83.264L324.468 79.592C324.196 79.592 323.55 79.592 323.278 79.626ZM339.787 82.414C338.359 80.612 336.081 79.592 333.395 79.592C330.811 79.592 328.771 80.408 327.275 81.972C325.745 83.604 324.997 85.848 324.997 88.466C324.997 91.22 325.711 93.464 327.275 95.062C328.737 96.558 330.777 97.408 333.429 97.408C337.781 97.408 340.569 95.47 341.453 91.56L337.543 91.254C337.169 93.328 335.877 94.382 333.395 94.382C330.573 94.382 329.145 92.784 329.077 89.622H341.725C341.827 86.698 341.147 84.114 339.787 82.414ZM333.395 82.618C334.891 82.618 335.911 83.026 336.659 83.944C337.237 84.658 337.543 85.644 337.611 86.596H329.111C329.179 85.78 329.417 84.862 329.961 84.114C330.641 83.162 331.797 82.618 333.395 82.618ZM358.373 82.414C356.945 80.612 354.667 79.592 351.981 79.592C349.397 79.592 347.357 80.408 345.861 81.972C344.331 83.604 343.583 85.848 343.583 88.466C343.583 91.22 344.297 93.464 345.861 95.062C347.323 96.558 349.363 97.408 352.015 97.408C356.367 97.408 359.155 95.47 360.039 91.56L356.129 91.254C355.755 93.328 354.463 94.382 351.981 94.382C349.159 94.382 347.731 92.784 347.663 89.622H360.311C360.413 86.698 359.733 84.114 358.373 82.414ZM351.981 82.618C353.477 82.618 354.497 83.026 355.245 83.944C355.823 84.658 356.129 85.644 356.197 86.596H347.697C347.765 85.78 348.003 84.862 348.547 84.114C349.227 83.162 350.383 82.618 351.981 82.618ZM376.992 81.326C375.836 80.136 374.442 79.592 372.232 79.592C369.784 79.592 367.948 80.51 367.098 82.584V80H363.086V97H367.132V87.684C367.132 83.57 369.342 82.754 370.838 82.754C371.824 82.754 372.64 82.822 373.388 83.57C374.272 84.386 374.34 85.474 374.34 87.038V97H378.42V86.732C378.42 84.692 378.318 82.686 376.992 81.326ZM395.977 81.394C394.787 80.102 393.325 79.592 391.115 79.592C388.837 79.592 386.967 80.544 386.049 82.516V73.2H382.037V97H386.083V87.548C386.083 83.502 388.327 82.754 389.789 82.754C390.775 82.754 391.591 82.822 392.373 83.604C393.223 84.42 393.291 85.372 393.291 86.936V97H397.371V86.732C397.371 84.624 397.269 82.788 395.977 81.394ZM408.74 97.408C413.976 97.408 417.376 93.838 417.376 88.5C417.376 83.366 414.078 79.592 408.74 79.592C403.334 79.592 400.036 83.332 400.036 88.5C400.036 94.042 403.3 97.408 408.74 97.408ZM408.74 94.45C407.312 94.45 406.292 94.076 405.612 93.294C404.728 92.342 404.354 90.744 404.354 88.5C404.354 86.256 404.728 84.658 405.612 83.706C406.292 82.924 407.346 82.55 408.74 82.55C410.168 82.55 411.188 82.958 411.868 83.774C412.684 84.76 413.058 86.324 413.058 88.5C413.058 90.676 412.718 92.24 411.902 93.226C411.222 94.042 410.168 94.45 408.74 94.45ZM431.358 89.384C431.358 93.43 429.284 94.246 427.686 94.246C426.7 94.246 425.816 94.178 425 93.362C424.184 92.512 424.15 91.322 424.15 89.758V80H420.036V89.962C420.036 92.036 420.172 94.144 421.498 95.538C422.722 96.83 424.218 97.408 426.394 97.408C428.74 97.408 430.474 96.388 431.392 94.518V97H435.336V80H431.358V89.384ZM445.516 97.408C449.256 97.408 452.826 96.15 452.826 92.036C452.826 88.024 449.188 87.31 445.992 86.596C443.816 86.12 442.252 85.712 442.252 84.386C442.252 83.06 443.646 82.482 445.142 82.482C447.284 82.482 448.576 83.502 448.678 85.61L452.384 84.998C452.01 80.952 448.848 79.592 445.142 79.592C441.742 79.592 438.444 81.054 438.444 84.692C438.444 88.126 441.334 89.078 444.36 89.86C446.91 90.506 449.018 90.778 449.018 92.274C449.018 93.702 447.828 94.518 445.55 94.518C443.306 94.518 441.776 93.362 441.742 91.152L437.968 91.594C438.104 95.674 441.538 97.408 445.516 97.408ZM469.489 82.414C468.061 80.612 465.783 79.592 463.097 79.592C460.513 79.592 458.473 80.408 456.977 81.972C455.447 83.604 454.699 85.848 454.699 88.466C454.699 91.22 455.413 93.464 456.977 95.062C458.439 96.558 460.479 97.408 463.131 97.408C467.483 97.408 470.271 95.47 471.155 91.56L467.245 91.254C466.871 93.328 465.579 94.382 463.097 94.382C460.275 94.382 458.847 92.784 458.779 89.622H471.427C471.529 86.698 470.849 84.114 469.489 82.414ZM463.097 82.618C464.593 82.618 465.613 83.026 466.361 83.944C466.939 84.658 467.245 85.644 467.313 86.596H458.813C458.881 85.78 459.119 84.862 459.663 84.114C460.343 83.162 461.499 82.618 463.097 82.618Z" fill="white"/>
<path d="M132.596 62V50.408C132.596 49.688 132.524 46.196 132.38 43.424H132.452C133.244 45.656 134.72 48.356 135.584 49.976L141.848 62H148.112V36.8H143V48.284C143 49.76 143.072 53.144 143.216 55.556H143.144C142.28 53.252 140.732 50.408 139.724 48.428L133.748 36.8H127.484V62H132.596ZM167.878 49.508C167.878 45.584 164.998 43.568 160.318 43.568C157.618 43.568 155.602 44.036 154.198 45.008C152.722 46.016 151.93 47.672 151.93 50.012L156.862 50.372C156.862 47.852 157.978 47.132 159.958 47.132C161.398 47.132 162.082 47.384 162.55 48.032C163.018 48.68 162.982 49.544 162.982 50.372L158.086 51.272C154.486 51.92 151.282 53.036 151.282 56.888C151.282 60.596 154.126 62.432 157.654 62.432C160.534 62.432 162.406 61.136 163.27 59.588C163.306 60.452 163.414 61.352 163.594 62H168.598V61.856C168.202 61.1 167.878 60.128 167.878 58.76V49.508ZM162.982 55.016C162.982 57.752 161.254 58.868 158.878 58.868C157.51 58.868 156.466 58.256 156.466 56.852C156.466 55.484 157.402 54.908 158.914 54.584L162.982 53.684V55.016ZM178.496 62.18C179.432 62.18 180.404 62.108 181.16 61.928L181.088 57.644C180.512 57.752 179.9 57.824 179.432 57.824C178.208 57.824 177.56 57.536 177.56 56.528V47.96H181.232V44H177.56V38.996H172.592V44H170V47.96H172.592V57.104C172.592 60.848 175.04 62.18 178.496 62.18ZM195.571 53.792C195.571 57.392 193.987 58.616 192.259 58.616C191.251 58.616 190.459 58.508 189.775 57.752C189.055 56.924 188.983 55.808 188.983 54.152V44H183.835V54.404C183.835 56.816 184.051 58.976 185.455 60.452C186.751 61.82 188.299 62.432 190.567 62.432C192.943 62.432 194.707 61.388 195.643 59.48V62H200.539V44H195.571V53.792ZM214.265 43.604C211.349 43.82 209.801 45.332 209.189 47.348V44H204.221V62H209.261V53.972C209.261 49.616 211.133 48.032 214.517 48.032C214.841 48.032 215.165 48.068 215.453 48.104L215.561 43.568C215.237 43.568 214.553 43.568 214.265 43.604ZM231.804 46.088C230.292 44.468 228.06 43.568 225.216 43.568C222.408 43.568 220.248 44.396 218.664 45.944C216.9 47.636 216.108 50.084 216.108 52.964C216.108 55.988 216.972 58.364 218.7 60.056C220.212 61.532 222.444 62.432 225.252 62.432C229.896 62.432 232.92 60.416 233.964 56.384L229.068 55.952C228.708 57.824 227.556 58.868 225.252 58.868C222.552 58.868 221.112 57.32 221.076 54.296H234.252C234.324 50.768 233.532 47.96 231.804 46.088ZM225.216 47.06C226.512 47.06 227.412 47.384 228.096 48.104C228.744 48.788 229.032 49.724 229.14 50.84H221.112C221.22 49.868 221.508 49.04 222.012 48.392C222.696 47.492 223.74 47.06 225.216 47.06ZM242.117 62V56.312H236.681V62H242.117ZM254.146 62V41.372H262.174V36.8H240.682V41.372H248.71V62H254.146ZM274.845 46.088C273.333 44.468 271.101 43.568 268.257 43.568C265.449 43.568 263.289 44.396 261.705 45.944C259.941 47.636 259.149 50.084 259.149 52.964C259.149 55.988 260.013 58.364 261.741 60.056C263.253 61.532 265.485 62.432 268.293 62.432C272.937 62.432 275.961 60.416 277.005 56.384L272.109 55.952C271.749 57.824 270.597 58.868 268.293 58.868C265.593 58.868 264.153 57.32 264.117 54.296H277.293C277.365 50.768 276.573 47.96 274.845 46.088ZM268.257 47.06C269.553 47.06 270.453 47.384 271.137 48.104C271.785 48.788 272.073 49.724 272.181 50.84H264.153C264.261 49.868 264.549 49.04 265.053 48.392C265.737 47.492 266.781 47.06 268.257 47.06ZM288.326 62.432C293.078 62.432 296.102 59.768 296.678 56.096L291.782 55.592C291.314 57.536 290.234 58.688 288.326 58.688C285.374 58.688 284.546 56.78 284.546 53C284.546 50.984 284.798 49.436 285.518 48.5C286.094 47.708 286.994 47.312 288.326 47.312C290.666 47.312 291.422 48.968 291.782 50.912L296.57 50.084C295.85 46.268 293.294 43.568 288.326 43.568C282.422 43.568 279.074 47.456 279.074 53C279.074 58.904 282.422 62.432 288.326 62.432ZM314.249 45.368C313.025 44.036 311.585 43.568 309.245 43.568C306.905 43.568 304.961 44.576 304.025 46.628V36.8H299.021V62H304.061V52.064C304.061 48.536 305.933 47.42 307.409 47.42C308.489 47.42 309.137 47.528 309.821 48.212C310.541 48.932 310.721 49.616 310.721 51.308V62H315.761V51.056C315.761 48.572 315.617 46.844 314.249 45.368Z" fill="white"/>
<rect x="1" y="1" width="98" height="98" stroke="white" stroke-width="2"/>
<path d="M50 0L50 100" stroke="white" stroke-width="2"/>
<path d="M1 1L99 99" stroke="white" stroke-width="2"/>
<path d="M9 1L50 42" stroke="white" stroke-width="2"/>
<path d="M91 99L50 58" stroke="white" stroke-width="2"/>
<path d="M17 1L50 34" stroke="white" stroke-width="2"/>
<path d="M83 99L50 66" stroke="white" stroke-width="2"/>
<path d="M25 1L50 26" stroke="white" stroke-width="2"/>
<path d="M75 99L50 74" stroke="white" stroke-width="2"/>
<path d="M33 1L50 18" stroke="white" stroke-width="2"/>
<path d="M67 99L50 82" stroke="white" stroke-width="2"/>
<path d="M41 1L50 10" stroke="white" stroke-width="2"/>
<path d="M59 99L50 90" stroke="white" stroke-width="2"/>
</svg>
