<svg width="657" height="100" viewBox="0 0 657 100" fill="none" xmlns="http://www.w3.org/2000/svg">
<path d="M330.556 62.835L340.586 36.655H336.574L326.578 62.835H330.556ZM357.787 62.053C362.717 62.053 367.647 60.455 367.647 54.709C367.647 49.609 363.635 48.317 358.637 47.501C355.339 46.957 352.687 46.277 352.687 44.101C352.687 41.857 354.829 40.837 357.243 40.837C360.473 40.837 362.411 42.469 362.547 45.767L366.865 45.019C366.321 39.409 362.343 37.437 357.277 37.437C352.993 37.437 348.369 39.239 348.369 44.305C348.369 48.861 352.211 50.425 356.529 51.377C360.099 52.159 363.295 52.057 363.295 54.879C363.295 57.667 360.847 58.619 357.821 58.619C354.523 58.619 352.109 56.851 352.109 53.349L347.723 53.825C347.791 59.469 352.449 62.053 357.787 62.053ZM376.639 61.815C377.387 61.815 378.237 61.747 378.883 61.611L378.815 58.109C378.237 58.211 377.659 58.279 377.251 58.279C376.027 58.279 375.483 58.041 375.483 57.021V47.875H378.951V44.645H375.483V39.919H371.505V44.645H369.057V47.875H371.505V57.361C371.505 60.557 373.409 61.815 376.639 61.815ZM392.718 54.029C392.718 58.075 390.644 58.891 389.046 58.891C388.06 58.891 387.176 58.823 386.36 58.007C385.544 57.157 385.51 55.967 385.51 54.403V44.645H381.396V54.607C381.396 56.681 381.532 58.789 382.858 60.183C384.082 61.475 385.578 62.053 387.754 62.053C390.1 62.053 391.834 61.033 392.752 59.163V61.645H396.696V44.645H392.718V54.029ZM412.247 46.753C411.125 45.087 409.357 44.237 407.147 44.237C402.591 44.237 399.531 47.773 399.531 53.145C399.531 58.687 402.761 62.053 407.215 62.053C409.459 62.053 411.261 61.101 412.247 59.231V61.645H416.259V37.845H412.247V46.753ZM410.955 58.007C410.275 58.721 409.357 59.095 408.133 59.095C404.835 59.095 403.917 57.055 403.917 53.145C403.917 51.037 404.223 49.473 405.039 48.487C405.685 47.671 406.705 47.229 408.201 47.229C411.431 47.229 412.349 49.779 412.349 53.179C412.349 55.355 411.907 56.987 410.955 58.007ZM424.077 41.993V37.641H420.031V41.993H424.077ZM424.077 61.645V44.645H420.031V61.645H424.077ZM435.578 62.053C440.814 62.053 444.214 58.483 444.214 53.145C444.214 48.011 440.916 44.237 435.578 44.237C430.172 44.237 426.874 47.977 426.874 53.145C426.874 58.687 430.138 62.053 435.578 62.053ZM435.578 59.095C434.15 59.095 433.13 58.721 432.45 57.939C431.566 56.987 431.192 55.389 431.192 53.145C431.192 50.901 431.566 49.303 432.45 48.351C433.13 47.569 434.184 47.195 435.578 47.195C437.006 47.195 438.026 47.603 438.706 48.419C439.522 49.405 439.896 50.969 439.896 53.145C439.896 55.321 439.556 56.885 438.74 57.871C438.06 58.687 437.006 59.095 435.578 59.095ZM455.428 62.835L465.458 36.655H461.446L451.45 62.835H455.428ZM484.188 52.397H491.192C490.92 56.477 488.54 58.619 484.732 58.619C481.978 58.619 480.074 57.871 478.918 56.205C477.864 54.743 477.388 52.669 477.388 49.745C477.388 46.855 477.966 44.713 478.986 43.285C480.176 41.619 482.114 40.871 484.596 40.871C488.098 40.871 489.934 43.081 490.648 45.835L495.068 44.985C493.776 40.055 489.832 37.437 484.596 37.437C477.082 37.437 472.866 42.503 472.866 49.745C472.866 57.667 477.048 62.053 484.12 62.053C487.35 62.053 490.036 60.761 491.498 58.483L491.77 61.645H495.34V48.759H484.188V52.397ZM507.751 44.271C504.997 44.475 503.297 45.937 502.753 47.705V44.645H498.741V61.645H502.787V53.859C502.787 49.167 504.793 47.875 507.989 47.875C508.295 47.875 508.601 47.875 508.839 47.909L508.941 44.237C508.669 44.237 508.023 44.237 507.751 44.271ZM524.26 47.059C522.832 45.257 520.554 44.237 517.868 44.237C515.284 44.237 513.244 45.053 511.748 46.617C510.218 48.249 509.47 50.493 509.47 53.111C509.47 55.865 510.184 58.109 511.748 59.707C513.21 61.203 515.25 62.053 517.902 62.053C522.254 62.053 525.042 60.115 525.926 56.205L522.016 55.899C521.642 57.973 520.35 59.027 517.868 59.027C515.046 59.027 513.618 57.429 513.55 54.267H526.198C526.3 51.343 525.62 48.759 524.26 47.059ZM517.868 47.263C519.364 47.263 520.384 47.671 521.132 48.589C521.71 49.303 522.016 50.289 522.084 51.241H513.584C513.652 50.425 513.89 49.507 514.434 48.759C515.114 47.807 516.27 47.263 517.868 47.263ZM542.845 47.059C541.417 45.257 539.139 44.237 536.453 44.237C533.869 44.237 531.829 45.053 530.333 46.617C528.803 48.249 528.055 50.493 528.055 53.111C528.055 55.865 528.769 58.109 530.333 59.707C531.795 61.203 533.835 62.053 536.487 62.053C540.839 62.053 543.627 60.115 544.511 56.205L540.601 55.899C540.227 57.973 538.935 59.027 536.453 59.027C533.631 59.027 532.203 57.429 532.135 54.267H544.783C544.885 51.343 544.205 48.759 542.845 47.059ZM536.453 47.263C537.949 47.263 538.969 47.671 539.717 48.589C540.295 49.303 540.601 50.289 540.669 51.241H532.169C532.237 50.425 532.475 49.507 533.019 48.759C533.699 47.807 534.855 47.263 536.453 47.263ZM561.465 45.971C560.309 44.781 558.915 44.237 556.705 44.237C554.257 44.237 552.421 45.155 551.571 47.229V44.645H547.559V61.645H551.605V52.329C551.605 48.215 553.815 47.399 555.311 47.399C556.297 47.399 557.113 47.467 557.861 48.215C558.745 49.031 558.813 50.119 558.813 51.683V61.645H562.893V51.377C562.893 49.337 562.791 47.331 561.465 45.971ZM580.45 46.039C579.26 44.747 577.798 44.237 575.588 44.237C573.31 44.237 571.44 45.189 570.522 47.161V37.845H566.51V61.645H570.556V52.193C570.556 48.147 572.8 47.399 574.262 47.399C575.248 47.399 576.064 47.467 576.846 48.249C577.696 49.065 577.764 50.017 577.764 51.581V61.645H581.844V51.377C581.844 49.269 581.742 47.433 580.45 46.039ZM593.213 62.053C598.449 62.053 601.849 58.483 601.849 53.145C601.849 48.011 598.551 44.237 593.213 44.237C587.807 44.237 584.509 47.977 584.509 53.145C584.509 58.687 587.773 62.053 593.213 62.053ZM593.213 59.095C591.785 59.095 590.765 58.721 590.085 57.939C589.201 56.987 588.827 55.389 588.827 53.145C588.827 50.901 589.201 49.303 590.085 48.351C590.765 47.569 591.819 47.195 593.213 47.195C594.641 47.195 595.661 47.603 596.341 48.419C597.157 49.405 597.531 50.969 597.531 53.145C597.531 55.321 597.191 56.885 596.375 57.871C595.695 58.687 594.641 59.095 593.213 59.095ZM615.831 54.029C615.831 58.075 613.757 58.891 612.159 58.891C611.173 58.891 610.289 58.823 609.473 58.007C608.657 57.157 608.623 55.967 608.623 54.403V44.645H604.509V54.607C604.509 56.681 604.645 58.789 605.971 60.183C607.195 61.475 608.691 62.053 610.867 62.053C613.213 62.053 614.947 61.033 615.865 59.163V61.645H619.809V44.645H615.831V54.029ZM629.988 62.053C633.728 62.053 637.298 60.795 637.298 56.681C637.298 52.669 633.66 51.955 630.464 51.241C628.288 50.765 626.724 50.357 626.724 49.031C626.724 47.705 628.118 47.127 629.614 47.127C631.756 47.127 633.048 48.147 633.15 50.255L636.856 49.643C636.482 45.597 633.32 44.237 629.614 44.237C626.214 44.237 622.916 45.699 622.916 49.337C622.916 52.771 625.806 53.723 628.832 54.505C631.382 55.151 633.49 55.423 633.49 56.919C633.49 58.347 632.3 59.163 630.022 59.163C627.778 59.163 626.248 58.007 626.214 55.797L622.44 56.239C622.576 60.319 626.01 62.053 629.988 62.053ZM653.962 47.059C652.534 45.257 650.256 44.237 647.57 44.237C644.986 44.237 642.946 45.053 641.45 46.617C639.92 48.249 639.172 50.493 639.172 53.111C639.172 55.865 639.886 58.109 641.45 59.707C642.912 61.203 644.952 62.053 647.604 62.053C651.956 62.053 654.744 60.115 655.628 56.205L651.718 55.899C651.344 57.973 650.052 59.027 647.57 59.027C644.748 59.027 643.32 57.429 643.252 54.267H655.9C656.002 51.343 655.322 48.759 653.962 47.059ZM647.57 47.263C649.066 47.263 650.086 47.671 650.834 48.589C651.412 49.303 651.718 50.289 651.786 51.241H643.286C643.354 50.425 643.592 49.507 644.136 48.759C644.816 47.807 645.972 47.263 647.57 47.263Z" fill="white"/>
<path d="M132.596 62V50.408C132.596 49.688 132.524 46.196 132.38 43.424H132.452C133.244 45.656 134.72 48.356 135.584 49.976L141.848 62H148.112V36.8H143V48.284C143 49.76 143.072 53.144 143.216 55.556H143.144C142.28 53.252 140.732 50.408 139.724 48.428L133.748 36.8H127.484V62H132.596ZM167.878 49.508C167.878 45.584 164.998 43.568 160.318 43.568C157.618 43.568 155.602 44.036 154.198 45.008C152.722 46.016 151.93 47.672 151.93 50.012L156.862 50.372C156.862 47.852 157.978 47.132 159.958 47.132C161.398 47.132 162.082 47.384 162.55 48.032C163.018 48.68 162.982 49.544 162.982 50.372L158.086 51.272C154.486 51.92 151.282 53.036 151.282 56.888C151.282 60.596 154.126 62.432 157.654 62.432C160.534 62.432 162.406 61.136 163.27 59.588C163.306 60.452 163.414 61.352 163.594 62H168.598V61.856C168.202 61.1 167.878 60.128 167.878 58.76V49.508ZM162.982 55.016C162.982 57.752 161.254 58.868 158.878 58.868C157.51 58.868 156.466 58.256 156.466 56.852C156.466 55.484 157.402 54.908 158.914 54.584L162.982 53.684V55.016ZM178.496 62.18C179.432 62.18 180.404 62.108 181.16 61.928L181.088 57.644C180.512 57.752 179.9 57.824 179.432 57.824C178.208 57.824 177.56 57.536 177.56 56.528V47.96H181.232V44H177.56V38.996H172.592V44H170V47.96H172.592V57.104C172.592 60.848 175.04 62.18 178.496 62.18ZM195.571 53.792C195.571 57.392 193.987 58.616 192.259 58.616C191.251 58.616 190.459 58.508 189.775 57.752C189.055 56.924 188.983 55.808 188.983 54.152V44H183.835V54.404C183.835 56.816 184.051 58.976 185.455 60.452C186.751 61.82 188.299 62.432 190.567 62.432C192.943 62.432 194.707 61.388 195.643 59.48V62H200.539V44H195.571V53.792ZM214.265 43.604C211.349 43.82 209.801 45.332 209.189 47.348V44H204.221V62H209.261V53.972C209.261 49.616 211.133 48.032 214.517 48.032C214.841 48.032 215.165 48.068 215.453 48.104L215.561 43.568C215.237 43.568 214.553 43.568 214.265 43.604ZM231.804 46.088C230.292 44.468 228.06 43.568 225.216 43.568C222.408 43.568 220.248 44.396 218.664 45.944C216.9 47.636 216.108 50.084 216.108 52.964C216.108 55.988 216.972 58.364 218.7 60.056C220.212 61.532 222.444 62.432 225.252 62.432C229.896 62.432 232.92 60.416 233.964 56.384L229.068 55.952C228.708 57.824 227.556 58.868 225.252 58.868C222.552 58.868 221.112 57.32 221.076 54.296H234.252C234.324 50.768 233.532 47.96 231.804 46.088ZM225.216 47.06C226.512 47.06 227.412 47.384 228.096 48.104C228.744 48.788 229.032 49.724 229.14 50.84H221.112C221.22 49.868 221.508 49.04 222.012 48.392C222.696 47.492 223.74 47.06 225.216 47.06ZM242.117 62V56.312H236.681V62H242.117ZM254.146 62V41.372H262.174V36.8H240.682V41.372H248.71V62H254.146ZM274.845 46.088C273.333 44.468 271.101 43.568 268.257 43.568C265.449 43.568 263.289 44.396 261.705 45.944C259.941 47.636 259.149 50.084 259.149 52.964C259.149 55.988 260.013 58.364 261.741 60.056C263.253 61.532 265.485 62.432 268.293 62.432C272.937 62.432 275.961 60.416 277.005 56.384L272.109 55.952C271.749 57.824 270.597 58.868 268.293 58.868C265.593 58.868 264.153 57.32 264.117 54.296H277.293C277.365 50.768 276.573 47.96 274.845 46.088ZM268.257 47.06C269.553 47.06 270.453 47.384 271.137 48.104C271.785 48.788 272.073 49.724 272.181 50.84H264.153C264.261 49.868 264.549 49.04 265.053 48.392C265.737 47.492 266.781 47.06 268.257 47.06ZM288.326 62.432C293.078 62.432 296.102 59.768 296.678 56.096L291.782 55.592C291.314 57.536 290.234 58.688 288.326 58.688C285.374 58.688 284.546 56.78 284.546 53C284.546 50.984 284.798 49.436 285.518 48.5C286.094 47.708 286.994 47.312 288.326 47.312C290.666 47.312 291.422 48.968 291.782 50.912L296.57 50.084C295.85 46.268 293.294 43.568 288.326 43.568C282.422 43.568 279.074 47.456 279.074 53C279.074 58.904 282.422 62.432 288.326 62.432ZM314.249 45.368C313.025 44.036 311.585 43.568 309.245 43.568C306.905 43.568 304.961 44.576 304.025 46.628V36.8H299.021V62H304.061V52.064C304.061 48.536 305.933 47.42 307.409 47.42C308.489 47.42 309.137 47.528 309.821 48.212C310.541 48.932 310.721 49.616 310.721 51.308V62H315.761V51.056C315.761 48.572 315.617 46.844 314.249 45.368Z" fill="white"/>
<rect x="1" y="1" width="98" height="98" stroke="white" stroke-width="2"/>
<path d="M50 0L50 100" stroke="white" stroke-width="2"/>
<path d="M1 1L99 99" stroke="white" stroke-width="2"/>
<path d="M9 1L50 42" stroke="white" stroke-width="2"/>
<path d="M91 99L50 58" stroke="white" stroke-width="2"/>
<path d="M17 1L50 34" stroke="white" stroke-width="2"/>
<path d="M83 99L50 66" stroke="white" stroke-width="2"/>
<path d="M25 1L50 26" stroke="white" stroke-width="2"/>
<path d="M75 99L50 74" stroke="white" stroke-width="2"/>
<path d="M33 1L50 18" stroke="white" stroke-width="2"/>
<path d="M67 99L50 82" stroke="white" stroke-width="2"/>
<path d="M41 1L50 10" stroke="white" stroke-width="2"/>
<path d="M59 99L50 90" stroke="white" stroke-width="2"/>
</svg>
